<svg width="84" height="15" viewBox="0 0 84 15" fill="none" xmlns="http://www.w3.org/2000/svg">
<path d="M0.261586 14L6.02159 1.4H7.33559L13.0956 14H11.6916L6.39959 2.174H6.93959L1.64759 14H0.261586ZM2.52959 10.634L2.92559 9.554H10.2516L10.6476 10.634H2.52959ZM19.7879 14.09C18.9599 14.09 18.2159 13.904 17.5559 13.532C16.8959 13.148 16.3739 12.596 15.9899 11.876C15.6059 11.156 15.4139 10.286 15.4139 9.266C15.4139 8.234 15.6059 7.364 15.9899 6.656C16.3859 5.936 16.9139 5.39 17.5739 5.018C18.2339 4.646 18.9719 4.46 19.7879 4.46C20.6879 4.46 21.4919 4.664 22.1999 5.072C22.9199 5.468 23.4839 6.026 23.8919 6.746C24.2999 7.466 24.5039 8.306 24.5039 9.266C24.5039 10.214 24.2999 11.054 23.8919 11.786C23.4839 12.506 22.9199 13.07 22.1999 13.478C21.4919 13.886 20.6879 14.09 19.7879 14.09ZM14.9099 14V0.643999H16.1879V7.34L16.0079 9.248L16.1339 11.156V14H14.9099ZM19.6979 12.956C20.3699 12.956 20.9699 12.806 21.4979 12.506C22.0259 12.194 22.4459 11.762 22.7579 11.21C23.0699 10.646 23.2259 9.998 23.2259 9.266C23.2259 8.522 23.0699 7.874 22.7579 7.322C22.4459 6.77 22.0259 6.344 21.4979 6.044C20.9699 5.732 20.3699 5.576 19.6979 5.576C19.0259 5.576 18.4199 5.732 17.8799 6.044C17.3519 6.344 16.9319 6.77 16.6199 7.322C16.3199 7.874 16.1699 8.522 16.1699 9.266C16.1699 9.998 16.3199 10.646 16.6199 11.21C16.9319 11.762 17.3519 12.194 17.8799 12.506C18.4199 12.806 19.0259 12.956 19.6979 12.956ZM30.9611 14.09C30.0491 14.09 29.2271 13.886 28.4951 13.478C27.7751 13.058 27.2051 12.488 26.7851 11.768C26.3651 11.036 26.1551 10.202 26.1551 9.266C26.1551 8.318 26.3651 7.484 26.7851 6.764C27.2051 6.044 27.7751 5.48 28.4951 5.072C29.2151 4.664 30.0371 4.46 30.9611 4.46C31.8971 4.46 32.7251 4.664 33.4451 5.072C34.1771 5.48 34.7471 6.044 35.1551 6.764C35.5751 7.484 35.7851 8.318 35.7851 9.266C35.7851 10.202 35.5751 11.036 35.1551 11.768C34.7471 12.488 34.1771 13.058 33.4451 13.478C32.7131 13.886 31.8851 14.09 30.9611 14.09ZM30.9611 12.956C31.6451 12.956 32.2511 12.806 32.7791 12.506C33.3071 12.194 33.7211 11.762 34.0211 11.21C34.3331 10.646 34.4891 9.998 34.4891 9.266C34.4891 8.522 34.3331 7.874 34.0211 7.322C33.7211 6.77 33.3071 6.344 32.7791 6.044C32.2511 5.732 31.6511 5.576 30.9791 5.576C30.3071 5.576 29.7071 5.732 29.1791 6.044C28.6511 6.344 28.2311 6.77 27.9191 7.322C27.6071 7.874 27.4511 8.522 27.4511 9.266C27.4511 9.998 27.6071 10.646 27.9191 11.21C28.2311 11.762 28.6511 12.194 29.1791 12.506C29.7071 12.806 30.3011 12.956 30.9611 12.956ZM42.3003 14.09C41.4963 14.09 40.7943 13.94 40.1943 13.64C39.5943 13.34 39.1263 12.89 38.7903 12.29C38.4663 11.69 38.3043 10.94 38.3043 10.04V4.55H39.5823V9.896C39.5823 10.904 39.8283 11.666 40.3203 12.182C40.8243 12.686 41.5263 12.938 42.4263 12.938C43.0863 12.938 43.6563 12.806 44.1363 12.542C44.6283 12.266 45.0003 11.87 45.2523 11.354C45.5163 10.838 45.6483 10.22 45.6483 9.5V4.55H46.9263V14H45.7023V11.408L45.9003 11.876C45.6003 12.572 45.1323 13.118 44.4963 13.514C43.8723 13.898 43.1403 14.09 42.3003 14.09ZM53.4761 14.09C52.5881 14.09 51.9041 13.85 51.4241 13.37C50.9441 12.89 50.7041 12.212 50.7041 11.336V2.462H51.9821V11.264C51.9821 11.816 52.1201 12.242 52.3961 12.542C52.6841 12.842 53.0921 12.992 53.6201 12.992C54.1841 12.992 54.6521 12.83 55.0241 12.506L55.4741 13.424C55.2221 13.652 54.9161 13.82 54.5561 13.928C54.2081 14.036 53.8481 14.09 53.4761 14.09ZM49.0121 5.612V4.55H54.8621V5.612H49.0121ZM67.8575 14.108C66.2495 14.108 64.9835 13.646 64.0595 12.722C63.1355 11.798 62.6735 10.43 62.6735 8.618V1.4H64.0055V8.564C64.0055 10.052 64.3415 11.15 65.0135 11.858C65.6855 12.566 66.6335 12.92 67.8575 12.92C69.0935 12.92 70.0475 12.566 70.7195 11.858C71.3915 11.15 71.7275 10.052 71.7275 8.564V1.4H73.0235V8.618C73.0235 10.43 72.5615 11.798 71.6375 12.722C70.7255 13.646 69.4655 14.108 67.8575 14.108ZM79.3054 14.09C78.5254 14.09 77.7874 13.982 77.0914 13.766C76.3954 13.538 75.8494 13.256 75.4534 12.92L76.0294 11.912C76.4134 12.2 76.9054 12.452 77.5054 12.668C78.1054 12.872 78.7354 12.974 79.3954 12.974C80.2954 12.974 80.9434 12.836 81.3394 12.56C81.7354 12.272 81.9334 11.894 81.9334 11.426C81.9334 11.078 81.8194 10.808 81.5914 10.616C81.3754 10.412 81.0874 10.262 80.7274 10.166C80.3674 10.058 79.9654 9.968 79.5214 9.896C79.0774 9.824 78.6334 9.74 78.1894 9.644C77.7574 9.548 77.3614 9.41 77.0014 9.23C76.6414 9.038 76.3474 8.78 76.1194 8.456C75.9034 8.132 75.7954 7.7 75.7954 7.16C75.7954 6.644 75.9394 6.182 76.2274 5.774C76.5154 5.366 76.9354 5.048 77.4874 4.82C78.0514 4.58 78.7354 4.46 79.5394 4.46C80.1514 4.46 80.7634 4.544 81.3754 4.712C81.9874 4.868 82.4914 5.078 82.8874 5.342L82.3294 6.368C81.9094 6.08 81.4594 5.876 80.9794 5.756C80.4994 5.624 80.0194 5.558 79.5394 5.558C78.6874 5.558 78.0574 5.708 77.6494 6.008C77.2534 6.296 77.0554 6.668 77.0554 7.124C77.0554 7.484 77.1634 7.766 77.3794 7.97C77.6074 8.174 77.9014 8.336 78.2614 8.456C78.6334 8.564 79.0354 8.654 79.4674 8.726C79.9114 8.798 80.3494 8.888 80.7814 8.996C81.2254 9.092 81.6274 9.23 81.9874 9.41C82.3594 9.578 82.6534 9.824 82.8694 10.148C83.0974 10.46 83.2114 10.874 83.2114 11.39C83.2114 11.942 83.0554 12.422 82.7434 12.83C82.4434 13.226 81.9994 13.538 81.4114 13.766C80.8354 13.982 80.1334 14.09 79.3054 14.09Z" fill="url(#paint0_linear_16296_11972)"/>
<defs>
<linearGradient id="paint0_linear_16296_11972" x1="0" y1="8" x2="84" y2="8" gradientUnits="userSpaceOnUse">
<stop stop-color="#A3DB21"/>
<stop offset="1" stop-color="#00A6B2"/>
</linearGradient>
</defs>
</svg>
