<svg width="42" height="42" viewBox="0 0 42 42" fill="none" xmlns="http://www.w3.org/2000/svg">
<path fill-rule="evenodd" clip-rule="evenodd" d="M17.2129 11.6928V11.6928C17.3252 9.20581 19.4325 7.27902 21.9211 7.39137V7.39137C24.4081 7.50366 26.3349 9.61096 26.2225 12.0995V12.0995C26.1102 14.5865 24.0029 16.5133 21.5143 16.4009V16.4009C19.0259 16.2853 17.1007 14.1781 17.2129 11.6928Z" stroke="#A3DB21" stroke-width="2.5" stroke-linecap="round" stroke-linejoin="round"/>
<path fill-rule="evenodd" clip-rule="evenodd" d="M5.48271 29.2119V29.2119C5.59499 26.725 7.70229 24.7982 10.1909 24.9105V24.9105C12.6778 25.0228 14.6046 27.1301 14.4923 29.6187V29.6187C14.3784 32.1056 12.2727 34.0325 9.78411 33.9201V33.9201C7.29552 33.8078 5.37035 31.7005 5.48271 29.2119Z" stroke="#A3DB21" stroke-width="2.5" stroke-linecap="round" stroke-linejoin="round"/>
<path fill-rule="evenodd" clip-rule="evenodd" d="M27.318 30.1978V30.1978C27.4303 27.7108 29.5376 25.784 32.0261 25.8964V25.8964C34.5131 26.0087 36.4399 28.116 36.3275 30.6046V30.6046C36.2153 33.0915 34.108 35.0183 31.6194 34.9059V34.9059C29.1292 34.7935 27.2056 32.6864 27.318 30.1978V30.1978Z" stroke="#A3DB21" stroke-width="2.5" stroke-linecap="round" stroke-linejoin="round"/>
<path d="M15.6189 20.5158L12.1259 25.4658" stroke="#A3DB21" stroke-width="2.5" stroke-linecap="round" stroke-linejoin="round"/>
<path d="M23.9819 15.7856L27.0147 21.0303" stroke="#A3DB21" stroke-width="2.5" stroke-linecap="round" stroke-linejoin="round"/>
<path d="M27.3163 30.2023L20.9041 29.9127" stroke="#A3DB21" stroke-width="2.5" stroke-linecap="round" stroke-linejoin="round"/>
</svg>
