<svg width="162" height="78" viewBox="0 0 162 78" fill="none" xmlns="http://www.w3.org/2000/svg">
<g id="5 5926">
<g id="Clip path group">
<mask id="mask0_16814_3052" style="mask-type:luminance" maskUnits="userSpaceOnUse" x="8" y="7" width="145" height="63">
<g id="5f0a232bd2">
<path id="Vector" d="M8.0885 7.94269H152.854V69.4166H8.0885V7.94269Z" fill="white"/>
</g>
</mask>
<g mask="url(#mask0_16814_3052)">
<g id="Group">
<path id="Vector_2" d="M67.2708 22.3541C67.2708 22.3541 67.8333 21.5104 68.2968 20.8541C69.1406 19.7343 70.6302 18.1406 71.8437 17.1145C72.2187 16.8333 72.5885 16.4583 72.5885 16.4583C72.5885 16.4583 71.9375 16.552 71.5625 16.6458C70.7239 16.8333 69.4166 17.677 68.7656 18.2343C67.7395 19.1718 66.526 20.5781 67.0885 21.9791C67.1822 22.0729 67.2708 22.3541 67.2708 22.3541ZM73.151 23.9427C74.8281 23.8489 76.4114 23.3854 77.8125 22.5416C79.2135 21.6979 81.3593 20.2031 81.1718 18.3281C81.0781 17.7708 80.7031 17.302 80.2395 17.1145C79.5833 16.8333 79.3073 16.927 78.4635 17.1145C77.9062 17.302 77.625 17.3958 77.0677 17.677C75.3854 18.6093 73.0573 20.6718 71.8437 22.2604C71.5625 22.6354 71.2864 23.1041 71.0052 23.3854C70.8177 23.5677 70.7239 23.7552 70.7239 23.7552C70.8177 23.9427 72.4948 23.9427 73.151 23.9427ZM68.8593 27.0312C68.6718 27.2187 68.4843 27.6875 68.2968 27.9687C68.2083 28.1562 68.0208 28.3437 67.927 28.4375C67.4583 28.7187 67.0885 28.8073 66.7135 28.4375C66.1562 27.875 65.7812 27.125 65.7812 26.2812V25.2552C65.6875 24.7864 65.2187 24.2239 64.9427 23.7552C64.6614 23.1979 64.3802 22.2604 64.3802 21.6041C64.2864 19.6406 65.3125 17.8645 66.6197 16.4583C67.927 15.0573 69.6979 13.8385 71.5625 13.0885C73.3333 12.3437 75.9479 11.7812 77.9062 12.5312C78.5573 12.7135 79.401 13.276 79.8645 13.8385C79.9583 13.9323 80.052 14.1198 80.1458 14.1198C80.2395 14.2135 80.427 14.2135 80.6093 14.2135C81.2656 14.3073 82.1041 14.776 82.4739 15.151C83.2239 15.802 83.5937 16.3645 83.7812 17.302C84.1562 19.0781 83.1302 21.0416 82.0104 22.2604C80.052 24.3177 78 25.7239 75.4791 26.75C74.3593 27.2187 72.5885 27.5937 71.375 27.5C71.0052 27.5 70.5364 27.4062 70.1666 27.3125C69.9791 27.3125 69.2343 27.125 69.1406 27.0312C69.0468 27.125 68.9531 27.0312 68.8593 27.0312ZM71.1927 30.9635C71.2864 30.9635 71.375 31.0573 71.4687 31.0573C72.401 31.4323 72.776 32.2708 72.9635 33.1145C73.5208 35.2656 73.7083 39.9427 73.802 41.7239C73.8958 43.125 73.8958 44.4375 73.9895 45.8385C74.0833 46.9635 74.0833 48.552 73.8958 49.5833C73.802 49.9583 73.5208 50.4218 73.151 50.7031C72.6823 50.9843 71.75 50.9843 71.1927 50.8906C69.8854 50.6093 69.4166 49.7708 69.2343 48.4583C68.7656 45.3698 69.0468 39.2916 69.2343 36.6718C69.3229 35.8281 69.6041 33.1145 70.0729 31.9895C70.2604 31.7083 70.6302 30.8698 71.1927 30.9635ZM30.802 35.6406C30.802 35.6406 28.8437 35.7343 27.5416 35.9218C25.8593 36.1093 22.6875 36.6718 20.8229 37.3229C20.2656 37.5104 19.1458 37.9791 19.052 38.5416C18.9583 39.1041 19.3333 39.5677 19.7031 40.0364C19.9843 40.3177 21.2916 41.6302 21.6614 41.9114C23.25 43.2187 26.4218 45.276 28.75 46.2135C29.5937 46.5885 30.8958 47.0573 30.8958 47.0573C30.8958 47.0573 30.802 43.2187 30.802 39.4791C30.7083 37.6041 30.802 35.6406 30.802 35.6406ZM66.3385 37.1354C66.4322 38.1666 66.1562 40.1302 66.1562 40.3177C66.0625 40.8802 65.5937 42.2812 65.5937 42.375C65.2187 43.2187 64.8489 43.875 64.4739 44.5312C63.8229 45.651 62.3281 47.526 61.3958 48.2708C58.0416 51.1718 52.9114 52.8593 48.4322 53.3229C45.4479 53.6979 41.9947 53.6041 38.7343 53.0416C37.6145 52.8593 36.026 52.4843 36.026 52.4843C36.026 52.4843 36.026 53.1354 35.9322 53.6041C35.9322 53.7916 35.7447 54.3541 35.6562 54.5416C35.4687 55.0104 35 55.2916 34.5364 55.3854C33.8802 55.4791 33.1354 55.5729 32.5781 55.2916C31.552 54.8229 31.177 53.8854 30.9895 52.8593C30.802 52.0156 30.7083 50.4218 30.7083 50.4218C30.7083 50.4218 29.9635 50.052 29.3125 49.7708C27.3541 48.8333 25.4895 47.6198 23.901 46.401C23.4375 46.026 21.5677 44.4375 21.1041 44.0625C19.8906 42.9375 18.8645 41.8177 18.026 40.3177C17.375 39.1979 17.1875 38.1666 17.651 36.9479C18.3072 35.2656 20.7291 34.052 22.3177 33.302C23.5312 32.7395 27.2604 31.5208 28.75 31.3385C29.5 31.2448 30.6197 31.0573 30.7083 30.9635C30.7083 30.9635 30.802 30.9635 30.802 30.8698C30.802 30.776 30.8958 29.1823 30.8958 28.5312C30.8958 27.9687 31.3645 24.0364 31.4583 23.1979C31.552 22.7291 31.8281 21.0416 32.2031 20.5781C32.3906 20.2968 32.8541 20.2968 33.1354 20.4843C34.9062 21.6041 35.4687 25.4427 35.5625 27.4062C35.6562 28.625 35.6562 30.401 35.6562 30.401C35.6562 30.401 37.7083 30.3073 38.9166 30.401C40.1302 30.401 41.4375 30.5885 42.7447 30.8698C44.3281 31.151 47.5 31.802 49.2708 32.7395C50.7656 33.4895 52.1614 34.7968 52.6302 36.1093C53.0052 37.3229 53.0052 38.1666 52.3489 39.2916C51.6041 40.5052 50.2968 41.4427 48.901 41.5364C48.526 41.5364 46.9375 41.3489 46.4739 40.9739C46.2864 40.7864 46.2864 40.5989 46.4739 40.4114C46.5677 40.3177 47.2187 39.9427 47.6875 39.7552C47.875 39.6614 48.0572 39.4791 48.2447 39.3854C48.6197 39.1041 48.901 38.7291 48.901 38.3541C48.8072 37.7916 48.3385 37.5104 47.7812 37.3229C45.3541 36.3906 40.4114 35.5468 37.9843 35.3593C37.052 35.2656 35.7447 35.2656 35.7447 35.2656L36.026 48.4583C36.026 48.4583 37.1458 48.6458 37.9843 48.8333C38.4531 48.927 40.5989 49.1145 41.1562 49.1145C45.4479 49.2083 50.1093 48.8333 54.026 46.9635C55.7083 46.1198 57.2916 45.1823 58.5052 43.7812C60.0937 42.0052 60.9322 39.4791 60.651 36.9479C60.3697 34.1458 58.4114 30.776 56.8281 28.7187C52.6302 23.3854 45.5416 18.8906 39.1979 16.3645C32.7604 13.7448 26.4218 12.1562 19.6093 11.9687C17.8385 11.875 14.0156 11.9687 12.0572 12.5312C11.776 12.625 11.4947 12.7135 11.2187 12.7135C11.0312 12.7135 10.6562 12.901 10.5625 12.9948C10.4687 12.9948 10.4687 13.0885 10.4687 13.0885C10.4687 13.0885 10.5625 13.1823 10.6562 13.1823C10.8437 13.276 11.6822 13.3698 12.151 13.3698C12.5208 13.4635 12.9895 13.651 13.0833 13.9323C13.2708 14.2135 13.2708 14.401 13.0833 14.6823C12.6145 15.2448 11.0312 15.151 10.2864 15.0573C9.53641 14.9635 8.60412 14.6823 8.41662 14.026C8.23433 13.276 8.60412 12.5312 8.97912 11.7812C9.81766 10.375 10.9375 9.63017 12.6145 9.16142C14.9479 8.50517 18.026 8.03642 20.2656 7.94267C25.302 7.75517 30.151 8.59892 35.0937 10.0937C37.8906 10.9375 41.625 12.3437 44.3281 13.651C46.2864 14.5885 49.3645 16.2708 51.0416 17.4895C51.6041 17.8645 54.776 20.2031 55.2395 20.5781C56.2656 21.4166 57.5729 22.6354 58.5989 23.5677C60.4635 25.4427 62.7968 28.3437 63.9166 30.5885C64.1927 31.151 64.3802 31.7083 64.7552 32.2708C64.8489 32.4583 65.4062 33.7708 65.5 34.1458C65.5937 34.5156 65.6875 35.0781 65.6875 35.0781C66.1562 35.6406 66.3385 36.7656 66.3385 37.1354ZM88.2604 38.1666H88.4479C90.0312 38.3541 91.526 38.6354 92.7343 39.1979C93.8541 39.6614 94.4166 40.3177 95.0677 41.3489C95.9062 43.0312 96 45.276 95.2552 47.0573C94.6927 48.3645 93.3906 49.3958 92.177 50.052C90.9635 50.6093 89.75 50.8906 88.3541 51.0781C85.927 51.3593 83.2239 50.8906 81.0781 49.7708C79.7708 49.1145 78.1875 47.9895 77.3489 46.5885C76.7864 45.5573 76.7864 44.1562 77.5312 43.2187C78.651 41.6302 81.1718 41.3489 82.9427 41.3489C84.3437 41.4427 86.8593 41.8177 88.2604 42.2812C88.6302 42.375 90.0312 42.9375 90.2187 43.2187C90.4062 43.4062 90.5 43.5937 90.4062 43.875C90.125 44.8125 87.7916 45.276 87.1406 45.3698C85.3698 45.651 84.4375 44.9948 82.4739 44.1562C82.0104 43.9687 81.3593 43.7812 80.7968 43.6875C79.8645 43.5937 78.8385 43.875 78.651 44.8125C78.5573 45.276 79.1198 45.8385 79.5833 46.026C80.6093 46.4948 81.5416 46.6823 82.5677 46.6823C85.6458 46.776 89.1927 46.2135 91.7083 44.4375C92.0833 44.1562 92.3645 43.7812 92.3645 43.4062C92.3645 43.3125 92.2708 42.8437 92.0833 42.75H91.9895C91.8958 42.75 91.802 42.5625 91.7083 42.4687C91.526 42.2812 90.776 41.9114 90.6823 41.9114C89.0052 41.1614 85.8333 40.8802 84.1562 40.6927C82.4739 40.5052 79.7708 40.3177 79.1198 40.2239C78.4635 40.1302 77.7187 40.0364 77.1614 39.7552C76.5989 39.4791 76.0416 38.9166 75.8541 38.2604C75.5729 37.0416 75.9479 35.6406 76.5989 34.7031C78.2812 32.2708 82.2916 31.3385 85.276 30.9635C88.1666 30.5885 92.8281 30.5885 95.6302 32.0833C96.0937 32.2708 96.2812 32.552 96.1875 33.0208C96 33.8645 95.3489 34.4218 94.5104 34.7031C93.6666 34.9843 91.8958 35.0781 91.151 35.0781C87.6979 35.2656 83.5937 35.1718 80.3333 36.0156C80.052 36.1093 79.677 36.2031 79.4895 36.3906C79.026 36.9479 80.427 37.1354 80.7031 37.1354H80.8906L88.2604 38.1666ZM98.8906 50.8906C97.4947 50.4218 97.2135 48.177 97.1197 47.0573C96.9322 43.4062 97.8645 38.2604 99.0781 34.7968C99.4531 33.7708 99.9166 32.177 101.036 32.2708C101.781 32.3645 102.344 32.927 102.719 33.4895C103.833 34.9843 105.234 37.0416 106.167 38.5416C107.193 40.1302 108.219 41.8177 109.245 43.2187C109.338 43.4062 109.526 43.5937 109.62 43.6875C109.807 43.875 109.99 43.875 109.99 43.6875C109.99 43.5937 109.99 41.8177 109.901 41.4427C109.807 40.8802 109.807 40.4114 109.713 39.8489C109.526 38.3541 109.057 36.2968 108.687 34.8906C108.312 33.302 107.755 31.7083 107.38 30.1198C107.286 29.651 107.193 29.0885 107.193 28.625C107.193 27.9687 107.661 27.5937 108.312 27.7812C109.713 28.25 111.578 31.3385 112.135 32.3645C112.323 32.7395 113.068 34.5156 113.255 35.0781C113.818 36.8593 114.187 38.4479 114.375 40.4114C114.562 42.2812 114.375 44.9948 113.63 46.776C113.349 47.4323 112.792 48.3645 112.229 48.8333C111.484 49.5833 109.901 50.1458 108.875 49.4895C107.755 48.8333 105.797 45.5573 105.516 44.9948C104.396 43.0312 102.531 39.2916 102.25 38.9166C102.156 38.8229 102.062 38.7291 101.969 38.7291C101.875 38.7291 101.781 38.9166 101.781 39.1041C101.599 40.2239 101.505 45.276 101.505 45.4635C101.505 46.3073 101.411 48.4583 101.224 49.4895C101.036 50.1458 100.943 50.7031 100.292 50.9843C99.7343 51.1718 99.4531 51.0781 98.8906 50.8906ZM117.828 50.6093C117.641 50.5156 117.453 50.2395 117.266 50.052C117.266 50.052 116.708 49.302 116.615 49.0208C116.521 48.8333 116.427 48.6458 116.427 48.552C115.963 47.3385 115.963 46.2135 116.24 44.9948C116.521 43.7812 116.708 43.7812 117.266 42.1927C117.266 42.0989 117.359 42.0052 117.359 41.9114C117.359 41.7239 116.99 40.2239 116.99 39.7552C116.99 39.0104 117.547 38.5416 118.479 38.4479H118.667C119.042 38.3541 119.318 37.6041 119.505 37.0416C119.786 36.2031 120.25 34.9843 120.25 34.9843C120.25 34.9843 119.042 34.7031 118.385 34.5156C117.641 34.2343 117.172 33.8645 116.802 33.2083C116.427 32.4583 116.708 31.9895 117.453 31.802C117.734 31.7083 120.068 31.2448 120.812 31.151C121.745 31.0573 122.583 30.8698 123.422 30.776C124.167 30.6823 127.62 30.3073 128.74 30.3073C130.417 30.401 131.536 31.0573 132.469 32.4583C133.031 33.2083 133.307 34.1458 132.562 34.6093C131.349 35.3593 127.432 35.4531 126.687 35.4531H123.984L123.141 38.1666H127.526C127.901 38.1666 128.271 38.1666 128.552 38.2604C129.391 38.4479 129.672 39.1041 129.672 39.9427C129.672 40.9739 129.484 41.5364 128.646 41.6302C128.182 41.7239 123.328 41.7239 122.677 41.8177C122.302 41.9114 121.838 41.9114 121.838 41.9114C121.838 41.9114 121.463 42.8437 121.182 43.7812C120.906 44.7187 120.625 45.7448 120.625 45.7448H121.088C121.463 45.7448 121.745 45.7448 122.026 45.651C123.516 45.3698 125.755 45.0885 127.526 44.8125C128.458 44.625 129.021 44.625 129.484 45.276C129.953 45.8385 130.141 46.3073 130.229 47.0573C130.229 47.7083 129.766 48.177 129.115 48.6458C127.245 50.1458 123.891 51.7343 121.463 52.0156C120.344 52.1093 120.068 52.0156 119.042 51.7343C118.854 51.6406 118.198 51.3593 118.198 51.3593C118.385 50.9843 118.016 50.7031 117.828 50.6093ZM148.604 37.0416C147.396 38.0729 145.714 40.2239 144.969 41.3489C143.943 42.8437 143.01 44.5312 142.078 45.8385C141.891 46.1198 141.24 47.151 141.333 47.2448C141.333 47.3385 141.984 47.3385 142.635 47.151C143.943 46.9635 145.714 46.026 146.74 45.1823C148.234 43.9687 149.26 42.375 149.724 40.5052C149.911 39.6614 150.005 37.8854 149.448 37.0416C149.167 36.9479 148.792 36.8593 148.604 37.0416ZM138.625 52.4843C138.625 52.4843 138.255 53.6979 137.974 54.5416C137.505 56.1302 136.385 60.3437 136.109 61.7448C135.734 63.7135 134.615 68.8593 134.615 68.9531C134.521 69.1354 134.521 69.1354 134.333 69.2291C133.87 69.5104 133.682 69.4166 133.125 69.1354C132.375 68.7656 131.818 68.3906 131.255 67.6406C130.229 66.2396 130.417 63.6198 130.698 62.1198C131.443 56.6927 132.193 54.3541 134.245 49.0208V48.8333C133.588 47.4323 133.219 45.8385 133.219 44.5312C133.219 40.3177 135.641 36.2031 138.349 32.8333C138.531 32.552 139.839 30.9635 140.49 31.0573C141.052 31.0573 141.24 31.802 141.146 32.3645C140.865 34.3281 139.464 36.2968 138.531 37.8854C137.505 39.7552 137.229 40.5052 136.76 42.1927C136.667 42.4687 136.479 43.6875 136.479 43.875C136.479 44.3437 136.573 44.9062 136.573 44.9062C136.573 44.9062 138.255 42.4687 139.37 41.0677C140.026 40.2239 140.396 39.7552 140.958 39.1041C141.516 38.5416 143.474 36.3906 144.036 35.9218C145.25 34.7968 145.807 34.3281 147.115 33.5833C148.141 33.0208 149.073 32.927 150.099 33.5833C151.682 34.6093 152.432 36.8593 152.615 38.6354C152.802 40.7864 152.432 43.2187 151.406 45.0885C150.286 47.3385 148.698 48.927 146.646 50.2395C144.5 51.6406 141.984 52.6718 139.557 52.5781C139 52.4843 138.625 52.4843 138.625 52.4843Z" fill="white"/>
</g>
</g>
</g>
</g>
</svg>
