<svg width="43" height="43" viewBox="0 0 43 43" fill="none" xmlns="http://www.w3.org/2000/svg">
<g id="Group">
<g id="Group_2">
<path id="Path" d="M23.4485 19.9533L11.1729 30.5973" stroke="#A3DB21" stroke-width="2.5" stroke-linecap="round" stroke-linejoin="round"/>
<path id="Path_2" d="M13.0017 22.3685L7.48292 20.643C6.87574 20.4531 6.71312 19.671 7.19245 19.2539L11.9742 15.1077C12.2954 14.8292 12.7145 14.6863 13.141 14.7134L18.177 15.028" stroke="#A3DB21" stroke-width="2.5" stroke-linecap="round" stroke-linejoin="round"/>
<path id="Path_3" fill-rule="evenodd" clip-rule="evenodd" d="M34.9368 17.3745L36.6951 11.1657C37.1738 9.47614 35.7646 7.85098 34.0243 8.08549L27.629 8.94652C25.7457 9.20017 23.9783 9.99806 22.544 11.2432L17.0053 16.0442C14.8923 17.8764 13.4264 20.3427 12.8247 23.0743L12.7984 23.1913C12.4169 24.935 12.8803 26.7552 14.0485 28.1041V28.1041C15.2168 29.4515 16.9545 30.1682 18.7348 30.0359L18.8544 30.0265C21.6435 29.8194 24.2928 28.7161 26.4058 26.8839L31.9429 22.0829C33.3787 20.8395 34.4189 19.2029 34.9368 17.3745V17.3745Z" stroke="#A3DB21" stroke-width="2.5" stroke-linecap="round" stroke-linejoin="round"/>
<path id="Path_4" d="M24.9268 9.72021C28.4908 12.5414 31.5003 16.0123 33.7882 19.94" stroke="#A3DB21" stroke-width="2.5" stroke-linecap="round" stroke-linejoin="round"/>
<path id="Path_5" d="M19.5762 29.9525L20.5025 35.66C20.6044 36.288 21.3556 36.5598 21.8365 36.1444L26.6182 31.9982C26.9394 31.7197 27.1402 31.3251 27.1738 30.899L27.5758 25.8692" stroke="#A3DB21" stroke-width="2.5" stroke-linecap="round" stroke-linejoin="round"/>
</g>
</g>
</svg>
