<svg width="258" height="42" viewBox="0 0 258 42" fill="none" xmlns="http://www.w3.org/2000/svg">
<rect x="0.75" y="0.25" width="256.5" height="41.5" rx="20.75" fill="white" fill-opacity="0.12"/>
<rect x="0.75" y="0.25" width="256.5" height="41.5" rx="20.75" stroke="white" stroke-width="0.5"/>
<path fill-rule="evenodd" clip-rule="evenodd" d="M15.4961 25.794C17.7062 25.794 19.4978 27.5856 19.4978 29.7957C19.4978 27.5856 21.2894 25.794 23.4994 25.794C21.2894 25.794 19.4978 24.0024 19.4978 21.7923C19.4978 24.0024 17.7062 25.794 15.4961 25.794Z" fill="url(#paint0_linear_16296_3738)" stroke="url(#paint1_linear_16296_3738)" stroke-width="1.5" stroke-linecap="round" stroke-linejoin="round"/>
<path fill-rule="evenodd" clip-rule="evenodd" d="M25.5 22.7927C27.7101 22.7927 29.5017 24.5844 29.5017 26.7944C29.5017 24.5844 31.2933 22.7927 33.5033 22.7927C31.2933 22.7927 29.5017 21.0011 29.5017 18.7911C29.5017 21.0011 27.7101 22.7927 25.5 22.7927Z" fill="url(#paint2_linear_16296_3738)" stroke="url(#paint3_linear_16296_3738)" stroke-width="1.5" stroke-linecap="round" stroke-linejoin="round"/>
<path fill-rule="evenodd" clip-rule="evenodd" d="M19.4961 15.7898C21.7062 15.7898 23.4978 17.5814 23.4978 19.7915C23.4978 17.5814 25.2894 15.7898 27.4994 15.7898C25.2894 15.7898 23.4978 13.9982 23.4978 11.7881C23.4978 13.9982 21.7062 15.7898 19.4961 15.7898Z" fill="url(#paint4_linear_16296_3738)" stroke="url(#paint5_linear_16296_3738)" stroke-width="1.5" stroke-linecap="round" stroke-linejoin="round"/>
<path d="M46.6809 27V14.4H51.8109C53.1549 14.4 54.3309 14.67 55.3389 15.21C56.3589 15.738 57.1509 16.476 57.7149 17.424C58.2789 18.372 58.5609 19.464 58.5609 20.7C58.5609 21.936 58.2789 23.028 57.7149 23.976C57.1509 24.924 56.3589 25.668 55.3389 26.208C54.3309 26.736 53.1549 27 51.8109 27H46.6809ZM48.0129 25.848H51.7389C52.8549 25.848 53.8209 25.632 54.6369 25.2C55.4649 24.756 56.1069 24.15 56.5629 23.382C57.0189 22.602 57.2469 21.708 57.2469 20.7C57.2469 19.68 57.0189 18.786 56.5629 18.018C56.1069 17.25 55.4649 16.65 54.6369 16.218C53.8209 15.774 52.8549 15.552 51.7389 15.552H48.0129V25.848ZM67.204 27V24.912L67.15 24.57V21.078C67.15 20.274 66.922 19.656 66.466 19.224C66.022 18.792 65.356 18.576 64.468 18.576C63.856 18.576 63.274 18.678 62.722 18.882C62.17 19.086 61.702 19.356 61.318 19.692L60.742 18.738C61.222 18.33 61.798 18.018 62.47 17.802C63.142 17.574 63.85 17.46 64.594 17.46C65.818 17.46 66.76 17.766 67.42 18.378C68.092 18.978 68.428 19.896 68.428 21.132V27H67.204ZM63.946 27.09C63.238 27.09 62.62 26.976 62.092 26.748C61.576 26.508 61.18 26.184 60.904 25.776C60.628 25.356 60.49 24.876 60.49 24.336C60.49 23.844 60.604 23.4 60.832 23.004C61.072 22.596 61.456 22.272 61.984 22.032C62.524 21.78 63.244 21.654 64.144 21.654H67.402V22.608H64.18C63.268 22.608 62.632 22.77 62.272 23.094C61.924 23.418 61.75 23.82 61.75 24.3C61.75 24.84 61.96 25.272 62.38 25.596C62.8 25.92 63.388 26.082 64.144 26.082C64.864 26.082 65.482 25.92 65.998 25.596C66.526 25.26 66.91 24.78 67.15 24.156L67.438 25.038C67.198 25.662 66.778 26.16 66.178 26.532C65.59 26.904 64.846 27.09 63.946 27.09ZM74.8872 27.09C73.9992 27.09 73.3152 26.85 72.8352 26.37C72.3552 25.89 72.1152 25.212 72.1152 24.336V15.462H73.3932V24.264C73.3932 24.816 73.5312 25.242 73.8072 25.542C74.0952 25.842 74.5032 25.992 75.0312 25.992C75.5952 25.992 76.0632 25.83 76.4352 25.506L76.8852 26.424C76.6332 26.652 76.3272 26.82 75.9672 26.928C75.6192 27.036 75.2592 27.09 74.8872 27.09ZM70.4232 18.612V17.55H76.2732V18.612H70.4232ZM85.1337 27V24.912L85.0797 24.57V21.078C85.0797 20.274 84.8517 19.656 84.3957 19.224C83.9517 18.792 83.2857 18.576 82.3977 18.576C81.7857 18.576 81.2037 18.678 80.6517 18.882C80.0997 19.086 79.6317 19.356 79.2477 19.692L78.6717 18.738C79.1517 18.33 79.7277 18.018 80.3997 17.802C81.0717 17.574 81.7797 17.46 82.5237 17.46C83.7477 17.46 84.6897 17.766 85.3497 18.378C86.0217 18.978 86.3577 19.896 86.3577 21.132V27H85.1337ZM81.8757 27.09C81.1677 27.09 80.5497 26.976 80.0217 26.748C79.5057 26.508 79.1097 26.184 78.8337 25.776C78.5577 25.356 78.4197 24.876 78.4197 24.336C78.4197 23.844 78.5337 23.4 78.7617 23.004C79.0017 22.596 79.3857 22.272 79.9137 22.032C80.4537 21.78 81.1737 21.654 82.0737 21.654H85.3317V22.608H82.1097C81.1977 22.608 80.5617 22.77 80.2017 23.094C79.8537 23.418 79.6797 23.82 79.6797 24.3C79.6797 24.84 79.8897 25.272 80.3097 25.596C80.7297 25.92 81.3177 26.082 82.0737 26.082C82.7937 26.082 83.4117 25.92 83.9277 25.596C84.4557 25.26 84.8397 24.78 85.0797 24.156L85.3677 25.038C85.1277 25.662 84.7077 26.16 84.1077 26.532C83.5197 26.904 82.7757 27.09 81.8757 27.09ZM89.1269 22.68V21.564H93.8429V22.68H89.1269ZM96.9719 27V14.4H102.102C103.446 14.4 104.622 14.67 105.63 15.21C106.65 15.738 107.442 16.476 108.006 17.424C108.57 18.372 108.852 19.464 108.852 20.7C108.852 21.936 108.57 23.028 108.006 23.976C107.442 24.924 106.65 25.668 105.63 26.208C104.622 26.736 103.446 27 102.102 27H96.9719ZM98.3039 25.848H102.03C103.146 25.848 104.112 25.632 104.928 25.2C105.756 24.756 106.398 24.15 106.854 23.382C107.31 22.602 107.538 21.708 107.538 20.7C107.538 19.68 107.31 18.786 106.854 18.018C106.398 17.25 105.756 16.65 104.928 16.218C104.112 15.774 103.146 15.552 102.03 15.552H98.3039V25.848ZM111.573 27V17.55H112.797V20.124L112.671 19.674C112.935 18.954 113.379 18.408 114.003 18.036C114.627 17.652 115.401 17.46 116.325 17.46V18.702C116.277 18.702 116.229 18.702 116.181 18.702C116.133 18.69 116.085 18.684 116.037 18.684C115.041 18.684 114.261 18.99 113.697 19.602C113.133 20.202 112.851 21.06 112.851 22.176V27H111.573ZM118.657 27V17.55H119.935V27H118.657ZM119.305 15.462C119.041 15.462 118.819 15.372 118.639 15.192C118.459 15.012 118.369 14.796 118.369 14.544C118.369 14.292 118.459 14.082 118.639 13.914C118.819 13.734 119.041 13.644 119.305 13.644C119.569 13.644 119.791 13.728 119.971 13.896C120.151 14.064 120.241 14.274 120.241 14.526C120.241 14.79 120.151 15.012 119.971 15.192C119.803 15.372 119.581 15.462 119.305 15.462ZM125.921 27L121.727 17.55H123.059L126.911 26.316H126.281L130.187 17.55H131.447L127.235 27H125.921ZM136.997 27.09C136.013 27.09 135.149 26.886 134.405 26.478C133.661 26.058 133.079 25.488 132.659 24.768C132.239 24.036 132.029 23.202 132.029 22.266C132.029 21.33 132.227 20.502 132.623 19.782C133.031 19.062 133.583 18.498 134.279 18.09C134.987 17.67 135.779 17.46 136.655 17.46C137.543 17.46 138.329 17.664 139.013 18.072C139.709 18.468 140.255 19.032 140.651 19.764C141.047 20.484 141.245 21.318 141.245 22.266C141.245 22.326 141.239 22.392 141.227 22.464C141.227 22.524 141.227 22.59 141.227 22.662H133.001V21.708H140.543L140.039 22.086C140.039 21.402 139.889 20.796 139.589 20.268C139.301 19.728 138.905 19.308 138.401 19.008C137.897 18.708 137.315 18.558 136.655 18.558C136.007 18.558 135.425 18.708 134.909 19.008C134.393 19.308 133.991 19.728 133.703 20.268C133.415 20.808 133.271 21.426 133.271 22.122V22.32C133.271 23.04 133.427 23.676 133.739 24.228C134.063 24.768 134.507 25.194 135.071 25.506C135.647 25.806 136.301 25.956 137.033 25.956C137.609 25.956 138.143 25.854 138.635 25.65C139.139 25.446 139.571 25.134 139.931 24.714L140.651 25.542C140.231 26.046 139.703 26.43 139.067 26.694C138.443 26.958 137.753 27.09 136.997 27.09ZM148.67 17.46C149.438 17.46 150.11 17.61 150.686 17.91C151.274 18.198 151.73 18.642 152.054 19.242C152.39 19.842 152.558 20.598 152.558 21.51V27H151.28V21.636C151.28 20.64 151.028 19.89 150.524 19.386C150.032 18.87 149.336 18.612 148.436 18.612C147.764 18.612 147.176 18.75 146.672 19.026C146.18 19.29 145.796 19.68 145.52 20.196C145.256 20.7 145.124 21.312 145.124 22.032V27H143.846V17.55H145.07V20.142L144.872 19.656C145.172 18.972 145.652 18.438 146.312 18.054C146.972 17.658 147.758 17.46 148.67 17.46ZM160.991 27V14.4H166.121C167.465 14.4 168.641 14.67 169.649 15.21C170.669 15.738 171.461 16.476 172.025 17.424C172.589 18.372 172.871 19.464 172.871 20.7C172.871 21.936 172.589 23.028 172.025 23.976C171.461 24.924 170.669 25.668 169.649 26.208C168.641 26.736 167.465 27 166.121 27H160.991ZM162.323 25.848H166.049C167.165 25.848 168.131 25.632 168.947 25.2C169.775 24.756 170.417 24.15 170.873 23.382C171.329 22.602 171.557 21.708 171.557 20.7C171.557 19.68 171.329 18.786 170.873 18.018C170.417 17.25 169.775 16.65 168.947 16.218C168.131 15.774 167.165 15.552 166.049 15.552H162.323V25.848ZM179.607 27.09C178.623 27.09 177.759 26.886 177.015 26.478C176.271 26.058 175.689 25.488 175.269 24.768C174.849 24.036 174.639 23.202 174.639 22.266C174.639 21.33 174.837 20.502 175.233 19.782C175.641 19.062 176.193 18.498 176.889 18.09C177.597 17.67 178.389 17.46 179.265 17.46C180.153 17.46 180.939 17.664 181.623 18.072C182.319 18.468 182.865 19.032 183.261 19.764C183.657 20.484 183.855 21.318 183.855 22.266C183.855 22.326 183.849 22.392 183.837 22.464C183.837 22.524 183.837 22.59 183.837 22.662H175.611V21.708H183.153L182.649 22.086C182.649 21.402 182.499 20.796 182.199 20.268C181.911 19.728 181.515 19.308 181.011 19.008C180.507 18.708 179.925 18.558 179.265 18.558C178.617 18.558 178.035 18.708 177.519 19.008C177.003 19.308 176.601 19.728 176.313 20.268C176.025 20.808 175.881 21.426 175.881 22.122V22.32C175.881 23.04 176.037 23.676 176.349 24.228C176.673 24.768 177.117 25.194 177.681 25.506C178.257 25.806 178.911 25.956 179.643 25.956C180.219 25.956 180.753 25.854 181.245 25.65C181.749 25.446 182.181 25.134 182.541 24.714L183.261 25.542C182.841 26.046 182.313 26.43 181.677 26.694C181.053 26.958 180.363 27.09 179.607 27.09ZM190.38 27.09C189.444 27.09 188.604 26.886 187.86 26.478C187.128 26.058 186.552 25.488 186.132 24.768C185.712 24.036 185.502 23.202 185.502 22.266C185.502 21.318 185.712 20.484 186.132 19.764C186.552 19.044 187.128 18.48 187.86 18.072C188.604 17.664 189.444 17.46 190.38 17.46C191.184 17.46 191.91 17.616 192.558 17.928C193.206 18.24 193.716 18.708 194.088 19.332L193.134 19.98C192.81 19.5 192.408 19.146 191.928 18.918C191.448 18.69 190.926 18.576 190.362 18.576C189.69 18.576 189.084 18.732 188.544 19.044C188.004 19.344 187.578 19.77 187.266 20.322C186.954 20.874 186.798 21.522 186.798 22.266C186.798 23.01 186.954 23.658 187.266 24.21C187.578 24.762 188.004 25.194 188.544 25.506C189.084 25.806 189.69 25.956 190.362 25.956C190.926 25.956 191.448 25.842 191.928 25.614C192.408 25.386 192.81 25.038 193.134 24.57L194.088 25.218C193.716 25.83 193.206 26.298 192.558 26.622C191.91 26.934 191.184 27.09 190.38 27.09ZM196.458 27V17.55H197.736V27H196.458ZM197.106 15.462C196.842 15.462 196.62 15.372 196.44 15.192C196.26 15.012 196.17 14.796 196.17 14.544C196.17 14.292 196.26 14.082 196.44 13.914C196.62 13.734 196.842 13.644 197.106 13.644C197.37 13.644 197.592 13.728 197.772 13.896C197.952 14.064 198.042 14.274 198.042 14.526C198.042 14.79 197.952 15.012 197.772 15.192C197.604 15.372 197.382 15.462 197.106 15.462ZM203.83 27.09C203.05 27.09 202.312 26.982 201.616 26.766C200.92 26.538 200.374 26.256 199.978 25.92L200.554 24.912C200.938 25.2 201.43 25.452 202.03 25.668C202.63 25.872 203.26 25.974 203.92 25.974C204.82 25.974 205.468 25.836 205.864 25.56C206.26 25.272 206.458 24.894 206.458 24.426C206.458 24.078 206.344 23.808 206.116 23.616C205.9 23.412 205.612 23.262 205.252 23.166C204.892 23.058 204.49 22.968 204.046 22.896C203.602 22.824 203.158 22.74 202.714 22.644C202.282 22.548 201.886 22.41 201.526 22.23C201.166 22.038 200.872 21.78 200.644 21.456C200.428 21.132 200.32 20.7 200.32 20.16C200.32 19.644 200.464 19.182 200.752 18.774C201.04 18.366 201.46 18.048 202.012 17.82C202.576 17.58 203.26 17.46 204.064 17.46C204.676 17.46 205.288 17.544 205.9 17.712C206.512 17.868 207.016 18.078 207.412 18.342L206.854 19.368C206.434 19.08 205.984 18.876 205.504 18.756C205.024 18.624 204.544 18.558 204.064 18.558C203.212 18.558 202.582 18.708 202.174 19.008C201.778 19.296 201.58 19.668 201.58 20.124C201.58 20.484 201.688 20.766 201.904 20.97C202.132 21.174 202.426 21.336 202.786 21.456C203.158 21.564 203.56 21.654 203.992 21.726C204.436 21.798 204.874 21.888 205.306 21.996C205.75 22.092 206.152 22.23 206.512 22.41C206.884 22.578 207.178 22.824 207.394 23.148C207.622 23.46 207.736 23.874 207.736 24.39C207.736 24.942 207.58 25.422 207.268 25.83C206.968 26.226 206.524 26.538 205.936 26.766C205.36 26.982 204.658 27.09 203.83 27.09ZM210.081 27V17.55H211.359V27H210.081ZM210.729 15.462C210.465 15.462 210.243 15.372 210.063 15.192C209.883 15.012 209.793 14.796 209.793 14.544C209.793 14.292 209.883 14.082 210.063 13.914C210.243 13.734 210.465 13.644 210.729 13.644C210.993 13.644 211.215 13.728 211.395 13.896C211.575 14.064 211.665 14.274 211.665 14.526C211.665 14.79 211.575 15.012 211.395 15.192C211.227 15.372 211.005 15.462 210.729 15.462ZM218.767 27.09C217.855 27.09 217.033 26.886 216.301 26.478C215.581 26.058 215.011 25.488 214.591 24.768C214.171 24.036 213.961 23.202 213.961 22.266C213.961 21.318 214.171 20.484 214.591 19.764C215.011 19.044 215.581 18.48 216.301 18.072C217.021 17.664 217.843 17.46 218.767 17.46C219.703 17.46 220.531 17.664 221.251 18.072C221.983 18.48 222.553 19.044 222.961 19.764C223.381 20.484 223.591 21.318 223.591 22.266C223.591 23.202 223.381 24.036 222.961 24.768C222.553 25.488 221.983 26.058 221.251 26.478C220.519 26.886 219.691 27.09 218.767 27.09ZM218.767 25.956C219.451 25.956 220.057 25.806 220.585 25.506C221.113 25.194 221.527 24.762 221.827 24.21C222.139 23.646 222.295 22.998 222.295 22.266C222.295 21.522 222.139 20.874 221.827 20.322C221.527 19.77 221.113 19.344 220.585 19.044C220.057 18.732 219.457 18.576 218.785 18.576C218.113 18.576 217.513 18.732 216.985 19.044C216.457 19.344 216.037 19.77 215.725 20.322C215.413 20.874 215.257 21.522 215.257 22.266C215.257 22.998 215.413 23.646 215.725 24.21C216.037 24.762 216.457 25.194 216.985 25.506C217.513 25.806 218.107 25.956 218.767 25.956ZM231.024 17.46C231.792 17.46 232.464 17.61 233.04 17.91C233.628 18.198 234.084 18.642 234.408 19.242C234.744 19.842 234.912 20.598 234.912 21.51V27H233.634V21.636C233.634 20.64 233.382 19.89 232.878 19.386C232.386 18.87 231.69 18.612 230.79 18.612C230.118 18.612 229.53 18.75 229.026 19.026C228.534 19.29 228.15 19.68 227.874 20.196C227.61 20.7 227.478 21.312 227.478 22.032V27H226.2V17.55H227.424V20.142L227.226 19.656C227.526 18.972 228.006 18.438 228.666 18.054C229.326 17.658 230.112 17.46 231.024 17.46ZM240.902 27.09C240.122 27.09 239.384 26.982 238.688 26.766C237.992 26.538 237.446 26.256 237.05 25.92L237.626 24.912C238.01 25.2 238.502 25.452 239.102 25.668C239.702 25.872 240.332 25.974 240.992 25.974C241.892 25.974 242.54 25.836 242.936 25.56C243.332 25.272 243.53 24.894 243.53 24.426C243.53 24.078 243.416 23.808 243.188 23.616C242.972 23.412 242.684 23.262 242.324 23.166C241.964 23.058 241.562 22.968 241.118 22.896C240.674 22.824 240.23 22.74 239.786 22.644C239.354 22.548 238.958 22.41 238.598 22.23C238.238 22.038 237.944 21.78 237.716 21.456C237.5 21.132 237.392 20.7 237.392 20.16C237.392 19.644 237.536 19.182 237.824 18.774C238.112 18.366 238.532 18.048 239.084 17.82C239.648 17.58 240.332 17.46 241.136 17.46C241.748 17.46 242.36 17.544 242.972 17.712C243.584 17.868 244.088 18.078 244.484 18.342L243.926 19.368C243.506 19.08 243.056 18.876 242.576 18.756C242.096 18.624 241.616 18.558 241.136 18.558C240.284 18.558 239.654 18.708 239.246 19.008C238.85 19.296 238.652 19.668 238.652 20.124C238.652 20.484 238.76 20.766 238.976 20.97C239.204 21.174 239.498 21.336 239.858 21.456C240.23 21.564 240.632 21.654 241.064 21.726C241.508 21.798 241.946 21.888 242.378 21.996C242.822 22.092 243.224 22.23 243.584 22.41C243.956 22.578 244.25 22.824 244.466 23.148C244.694 23.46 244.808 23.874 244.808 24.39C244.808 24.942 244.652 25.422 244.34 25.83C244.04 26.226 243.596 26.538 243.008 26.766C242.432 26.982 241.73 27.09 240.902 27.09Z" fill="white"/>
<defs>
<linearGradient id="paint0_linear_16296_3738" x1="15.4961" y1="25.794" x2="23.4994" y2="25.794" gradientUnits="userSpaceOnUse">
<stop stop-color="#A3DB21"/>
<stop offset="1" stop-color="#00A6B2"/>
</linearGradient>
<linearGradient id="paint1_linear_16296_3738" x1="15.4961" y1="25.794" x2="23.4994" y2="25.794" gradientUnits="userSpaceOnUse">
<stop stop-color="#A3DB21"/>
<stop offset="1" stop-color="#00A6B2"/>
</linearGradient>
<linearGradient id="paint2_linear_16296_3738" x1="25.5" y1="22.7927" x2="33.5033" y2="22.7927" gradientUnits="userSpaceOnUse">
<stop stop-color="#A3DB21"/>
<stop offset="1" stop-color="#00A6B2"/>
</linearGradient>
<linearGradient id="paint3_linear_16296_3738" x1="25.5" y1="22.7927" x2="33.5033" y2="22.7927" gradientUnits="userSpaceOnUse">
<stop stop-color="#A3DB21"/>
<stop offset="1" stop-color="#00A6B2"/>
</linearGradient>
<linearGradient id="paint4_linear_16296_3738" x1="19.4961" y1="15.7898" x2="27.4994" y2="15.7898" gradientUnits="userSpaceOnUse">
<stop stop-color="#A3DB21"/>
<stop offset="1" stop-color="#00A6B2"/>
</linearGradient>
<linearGradient id="paint5_linear_16296_3738" x1="19.4961" y1="15.7898" x2="27.4994" y2="15.7898" gradientUnits="userSpaceOnUse">
<stop stop-color="#A3DB21"/>
<stop offset="1" stop-color="#00A6B2"/>
</linearGradient>
</defs>
</svg>
