<svg width="60" height="60" viewBox="0 0 60 60" fill="none" xmlns="http://www.w3.org/2000/svg">
<g id="Group">
<path id="Vector" d="M30.0683 0H29.9317C13.4009 0 0 13.4009 0 29.9317V30.0683C0 46.5991 13.4009 60 29.9317 60H30.0683C46.5991 60 60 46.5991 60 30.0683V29.9317C60 13.4009 46.5991 0 30.0683 0Z" fill="url(#paint0_linear_16296_11546)"/>
<g id="Group_2">
<path id="Vector_2" d="M14.3085 19.9449C13.5181 19.2112 13.125 18.3031 13.125 17.2227C13.125 16.1422 13.5202 15.1942 14.3085 14.4584C15.0988 13.7248 16.1163 13.3569 17.3628 13.3569C18.6093 13.3569 19.5868 13.7248 20.3751 14.4584C21.1655 15.1921 21.5586 16.1149 21.5586 17.2227C21.5586 18.3305 21.1634 19.2112 20.3751 19.9449C19.5847 20.6785 18.582 21.0464 17.3628 21.0464C16.1436 21.0464 15.0988 20.6785 14.3085 19.9449ZM20.8943 24.1533V46.6456H13.7871V24.1533H20.8943Z" fill="white"/>
<path id="Vector_3" d="M44.5532 26.3732C46.1024 28.0549 46.876 30.363 46.876 33.3017V46.2464H40.1262V34.214C40.1262 32.732 39.7416 31.5801 38.9743 30.7603C38.207 29.9405 37.1728 29.5285 35.8779 29.5285C34.583 29.5285 33.5488 29.9384 32.7815 30.7603C32.0142 31.5801 31.6296 32.732 31.6296 34.214V46.2464H24.8398V24.0882H31.6296V27.027C32.3169 26.0474 33.244 25.2738 34.4086 24.7042C35.5731 24.1345 36.8827 23.8507 38.3395 23.8507C40.9334 23.8507 43.0061 24.6915 44.5532 26.3732Z" fill="white"/>
</g>
</g>
<defs>
<linearGradient id="paint0_linear_16296_11546" x1="0" y1="30" x2="60" y2="30" gradientUnits="userSpaceOnUse">
<stop stop-color="#A3DB21"/>
<stop offset="1" stop-color="#00A6B2"/>
</linearGradient>
</defs>
</svg>
