<svg width="162" height="78" viewBox="0 0 162 78" fill="none" xmlns="http://www.w3.org/2000/svg">
<g id="4 62">
<g id="Clip path group">
<mask id="mask0_16814_3014" style="mask-type:luminance" maskUnits="userSpaceOnUse" x="29" y="26" width="26" height="25">
<g id="58cc83a6f8">
<path id="Vector" d="M29.3333 26.0886H54.6666V50.875H29.3333V26.0886Z" fill="white"/>
</g>
</mask>
<g mask="url(#mask0_16814_3014)">
<g id="Group">
<path id="Vector_2" d="M30.5781 38.474C30.5781 30.25 35.776 26.125 42.1823 26.125C48.5885 26.125 53.7865 30.25 53.7865 38.474C53.7865 46.7188 48.5885 50.8281 42.1823 50.8281C35.776 50.8281 30.5781 46.7604 30.5781 38.474ZM42.1875 47.6927C45.3438 47.6927 47.9062 44.4271 47.9062 38.474C47.9062 32.5781 45.3438 29.2552 42.1875 29.2552C39.026 29.2552 36.4583 32.5781 36.4583 38.474C36.4531 44.3958 39.0208 47.6927 42.1875 47.6927Z" fill="white"/>
</g>
</g>
</g>
<g id="Clip path group_2">
<mask id="mask1_16814_3014" style="mask-type:luminance" maskUnits="userSpaceOnUse" x="8" y="26" width="20" height="25">
<g id="0d83b38fe6">
<path id="Vector_3" d="M8.08856 26.6667H28V50.6667H8.08856V26.6667Z" fill="white"/>
</g>
</mask>
<g mask="url(#mask1_16814_3014)">
<g id="Group_2">
<path id="Vector_4" d="M8.08856 27.0261V49.9219H12.1198V34.5365L24.5573 49.9219H27.9479V27.0261H24.1146V39.6459L13.7813 27.0261H8.08856Z" fill="white"/>
</g>
</g>
</g>
<g id="Clip path group_3">
<mask id="mask2_16814_3014" style="mask-type:luminance" maskUnits="userSpaceOnUse" x="128" y="26" width="25" height="25">
<g id="684a4a921b">
<path id="Vector_5" d="M128 26.6667H152.854V50.6667H128V26.6667Z" fill="white"/>
</g>
</mask>
<g mask="url(#mask2_16814_3014)">
<g id="Group_3">
<path id="Vector_6" d="M137.854 27.0261L128.453 49.9219H132.51L135.099 43.625H143.641L146.266 49.9219H152.849L143.354 27.0261H137.854ZM136.417 40.3386L139.354 33.1563L142.297 40.3386H136.417Z" fill="white"/>
</g>
</g>
</g>
<g id="Clip path group_4">
<mask id="mask3_16814_3014" style="mask-type:luminance" maskUnits="userSpaceOnUse" x="84" y="26" width="22" height="25">
<g id="07130b6178">
<path id="Vector_7" d="M84 26.6667H105.333V50.875H84V26.6667Z" fill="white"/>
</g>
</mask>
<g mask="url(#mask3_16814_3014)">
<g id="Group_4">
<path id="Vector_8" d="M100.026 42.0261C99.9115 44.125 99.75 46.198 97.4063 46.9792C96.3542 47.3177 94.4323 47.3125 93.3438 46.8855C92.8229 46.6719 92.5 46.4948 92.0938 46.099C91.3125 45.3334 91 43.7136 90.974 42.6511V27.0261H84.9323V42.0313C84.9844 44.099 85.3281 46.1875 86.6927 47.8542C89.0261 50.724 93.3177 51.125 96.7917 50.7032C98.9479 50.4375 100.839 49.7344 102.354 48.1667C103.406 47.0834 104.052 45.3802 104.24 43.9063C104.354 43.0573 104.37 42.9115 104.37 42.0261V27.0209H100.021V42.0261H100.026Z" fill="white"/>
</g>
</g>
</g>
<path id="Vector_9" d="M114.281 30.25C116.948 30.25 119.589 29.8021 120.745 32.5364C121.198 33.6198 121.229 36.0677 120.161 37.1094C118.896 38.3437 116.953 38.4687 115.271 38.6094L121.479 49.9219H127.839L122.214 39.8333C125.562 38.6719 127.141 36.7969 126.979 33.2135C126.802 29.3541 123.49 27.0208 119.719 27.0208H108.271V49.9219H114.281V30.25Z" fill="white"/>
<path id="Vector_10" d="M75.1458 49.9219L66.1979 27.0208H61.4896L52.7969 49.9219H57.0208L62.8698 34.4375L68.8125 49.9219H75.1458Z" fill="white"/>
<path id="Vector_11" d="M75.4323 27.0261H70.5104L69.0104 30.9375L71.1459 36.4167L71.9219 34.4427L77.7084 49.9219H84.3959L75.4323 27.0261Z" fill="white"/>
<path id="Vector_12" d="M64.5 41.9323L61.4896 49.9219H65.3333L66.4479 46.9167L64.5 41.9323Z" fill="white"/>
</g>
</svg>
