<svg width="262" height="36" viewBox="0 0 262 36" fill="none" xmlns="http://www.w3.org/2000/svg">
<rect x="1" y="0.5" width="260" height="35" rx="17.5" fill="#1B2B3A"/>
<rect x="1" y="0.5" width="260" height="35" rx="17.5" stroke="#F9F9F9"/>
<path fill-rule="evenodd" clip-rule="evenodd" d="M15.4962 22.794C17.7063 22.794 19.4979 24.5856 19.4979 26.7957C19.4979 24.5856 21.2895 22.794 23.4995 22.794C21.2895 22.794 19.4979 21.0024 19.4979 18.7923C19.4979 21.0024 17.7063 22.794 15.4962 22.794Z" fill="url(#paint0_linear_16124_2136)" stroke="url(#paint1_linear_16124_2136)" stroke-width="1.5" stroke-linecap="round" stroke-linejoin="round"/>
<path fill-rule="evenodd" clip-rule="evenodd" d="M25.5004 19.7927C27.7105 19.7927 29.5021 21.5844 29.5021 23.7944C29.5021 21.5844 31.2937 19.7927 33.5038 19.7927C31.2937 19.7927 29.5021 18.0011 29.5021 15.7911C29.5021 18.0011 27.7105 19.7927 25.5004 19.7927Z" fill="url(#paint2_linear_16124_2136)" stroke="url(#paint3_linear_16124_2136)" stroke-width="1.5" stroke-linecap="round" stroke-linejoin="round"/>
<path fill-rule="evenodd" clip-rule="evenodd" d="M19.4979 12.7898C21.708 12.7898 23.4996 14.5814 23.4996 16.7915C23.4996 14.5814 25.2912 12.7898 27.5013 12.7898C25.2912 12.7898 23.4996 10.9982 23.4996 8.78815C23.4996 10.9982 21.708 12.7898 19.4979 12.7898Z" fill="url(#paint4_linear_16124_2136)" stroke="url(#paint5_linear_16124_2136)" stroke-width="1.5" stroke-linecap="round" stroke-linejoin="round"/>
<path d="M52.3959 24.108C51.4479 24.108 50.5659 23.952 49.7499 23.64C48.9459 23.316 48.2439 22.866 47.6439 22.29C47.0559 21.702 46.5939 21.024 46.2579 20.256C45.9339 19.476 45.7719 18.624 45.7719 17.7C45.7719 16.776 45.9339 15.93 46.2579 15.162C46.5939 14.382 47.0559 13.704 47.6439 13.128C48.2439 12.54 48.9459 12.09 49.7499 11.778C50.5539 11.454 51.4359 11.292 52.3959 11.292C53.3439 11.292 54.2199 11.454 55.0239 11.778C55.8279 12.09 56.5239 12.534 57.1119 13.11C57.7119 13.686 58.1739 14.364 58.4979 15.144C58.8339 15.924 59.0019 16.776 59.0019 17.7C59.0019 18.624 58.8339 19.476 58.4979 20.256C58.1739 21.036 57.7119 21.714 57.1119 22.29C56.5239 22.866 55.8279 23.316 55.0239 23.64C54.2199 23.952 53.3439 24.108 52.3959 24.108ZM52.3959 22.92C53.1519 22.92 53.8479 22.794 54.4839 22.542C55.1319 22.278 55.6899 21.912 56.1579 21.444C56.6379 20.964 57.0099 20.412 57.2739 19.788C57.5379 19.152 57.6699 18.456 57.6699 17.7C57.6699 16.944 57.5379 16.254 57.2739 15.63C57.0099 14.994 56.6379 14.442 56.1579 13.974C55.6899 13.494 55.1319 13.128 54.4839 12.876C53.8479 12.612 53.1519 12.48 52.3959 12.48C51.6399 12.48 50.9379 12.612 50.2899 12.876C49.6419 13.128 49.0779 13.494 48.5979 13.974C48.1299 14.442 47.7579 14.994 47.4819 15.63C47.2179 16.254 47.0859 16.944 47.0859 17.7C47.0859 18.444 47.2179 19.134 47.4819 19.77C47.7579 20.406 48.1299 20.964 48.5979 21.444C49.0779 21.912 49.6419 22.278 50.2899 22.542C50.9379 22.794 51.6399 22.92 52.3959 22.92ZM66.5955 24.09C65.7795 24.09 65.0415 23.904 64.3815 23.532C63.7215 23.148 63.1935 22.602 62.7975 21.894C62.4135 21.174 62.2215 20.298 62.2215 19.266C62.2215 18.234 62.4135 17.364 62.7975 16.656C63.1815 15.936 63.7035 15.39 64.3635 15.018C65.0235 14.646 65.7675 14.46 66.5955 14.46C67.4955 14.46 68.2995 14.664 69.0075 15.072C69.7275 15.468 70.2915 16.032 70.6995 16.764C71.1075 17.484 71.3115 18.318 71.3115 19.266C71.3115 20.226 71.1075 21.066 70.6995 21.786C70.2915 22.506 69.7275 23.07 69.0075 23.478C68.2995 23.886 67.4955 24.09 66.5955 24.09ZM61.7175 27.492V14.55H62.9415V17.394L62.8155 19.284L62.9955 21.192V27.492H61.7175ZM66.5055 22.956C67.1775 22.956 67.7775 22.806 68.3055 22.506C68.8335 22.194 69.2535 21.762 69.5655 21.21C69.8775 20.646 70.0335 19.998 70.0335 19.266C70.0335 18.534 69.8775 17.892 69.5655 17.34C69.2535 16.788 68.8335 16.356 68.3055 16.044C67.7775 15.732 67.1775 15.576 66.5055 15.576C65.8335 15.576 65.2275 15.732 64.6875 16.044C64.1595 16.356 63.7395 16.788 63.4275 17.34C63.1275 17.892 62.9775 18.534 62.9775 19.266C62.9775 19.998 63.1275 20.646 63.4275 21.21C63.7395 21.762 64.1595 22.194 64.6875 22.506C65.2275 22.806 65.8335 22.956 66.5055 22.956ZM76.9048 24.09C76.0168 24.09 75.3328 23.85 74.8528 23.37C74.3728 22.89 74.1328 22.212 74.1328 21.336V12.462H75.4108V21.264C75.4108 21.816 75.5488 22.242 75.8248 22.542C76.1128 22.842 76.5208 22.992 77.0488 22.992C77.6128 22.992 78.0808 22.83 78.4528 22.506L78.9028 23.424C78.6508 23.652 78.3448 23.82 77.9848 23.928C77.6368 24.036 77.2768 24.09 76.9048 24.09ZM72.4408 15.612V14.55H78.2908V15.612H72.4408ZM81.2293 24V14.55H82.5073V24H81.2293ZM81.8773 12.462C81.6133 12.462 81.3913 12.372 81.2113 12.192C81.0313 12.012 80.9413 11.796 80.9413 11.544C80.9413 11.292 81.0313 11.082 81.2113 10.914C81.3913 10.734 81.6133 10.644 81.8773 10.644C82.1413 10.644 82.3633 10.728 82.5433 10.896C82.7233 11.064 82.8133 11.274 82.8133 11.526C82.8133 11.79 82.7233 12.012 82.5433 12.192C82.3753 12.372 82.1533 12.462 81.8773 12.462ZM97.8713 14.46C98.6393 14.46 99.3053 14.61 99.8693 14.91C100.445 15.198 100.889 15.642 101.201 16.242C101.525 16.842 101.687 17.598 101.687 18.51V24H100.409V18.636C100.409 17.64 100.169 16.89 99.6893 16.386C99.2213 15.87 98.5553 15.612 97.6913 15.612C97.0433 15.612 96.4793 15.75 95.9993 16.026C95.5313 16.29 95.1653 16.68 94.9013 17.196C94.6493 17.7 94.5233 18.312 94.5233 19.032V24H93.2453V18.636C93.2453 17.64 93.0053 16.89 92.5253 16.386C92.0453 15.87 91.3733 15.612 90.5093 15.612C89.8733 15.612 89.3153 15.75 88.8353 16.026C88.3553 16.29 87.9833 16.68 87.7193 17.196C87.4673 17.7 87.3413 18.312 87.3413 19.032V24H86.0633V14.55H87.2873V17.106L87.0893 16.656C87.3773 15.972 87.8393 15.438 88.4753 15.054C89.1233 14.658 89.8853 14.46 90.7613 14.46C91.6853 14.46 92.4713 14.694 93.1193 15.162C93.7673 15.618 94.1873 16.308 94.3793 17.232L93.8753 17.034C94.1513 16.266 94.6373 15.648 95.3333 15.18C96.0413 14.7 96.8873 14.46 97.8713 14.46ZM105.153 24V14.55H106.431V24H105.153ZM105.801 12.462C105.537 12.462 105.315 12.372 105.135 12.192C104.955 12.012 104.865 11.796 104.865 11.544C104.865 11.292 104.955 11.082 105.135 10.914C105.315 10.734 105.537 10.644 105.801 10.644C106.065 10.644 106.287 10.728 106.467 10.896C106.647 11.064 106.737 11.274 106.737 11.526C106.737 11.79 106.647 12.012 106.467 12.192C106.299 12.372 106.077 12.462 105.801 12.462ZM108.961 24V23.154L115.261 15.18L115.531 15.612H109.069V14.55H116.539V15.378L110.257 23.37L109.933 22.938H116.665V24H108.961ZM123.036 24.09C122.052 24.09 121.188 23.886 120.444 23.478C119.7 23.058 119.118 22.488 118.698 21.768C118.278 21.036 118.068 20.202 118.068 19.266C118.068 18.33 118.266 17.502 118.662 16.782C119.07 16.062 119.622 15.498 120.318 15.09C121.026 14.67 121.818 14.46 122.694 14.46C123.582 14.46 124.368 14.664 125.052 15.072C125.748 15.468 126.294 16.032 126.69 16.764C127.086 17.484 127.284 18.318 127.284 19.266C127.284 19.326 127.278 19.392 127.266 19.464C127.266 19.524 127.266 19.59 127.266 19.662H119.04V18.708H126.582L126.078 19.086C126.078 18.402 125.928 17.796 125.628 17.268C125.34 16.728 124.944 16.308 124.44 16.008C123.936 15.708 123.354 15.558 122.694 15.558C122.046 15.558 121.464 15.708 120.948 16.008C120.432 16.308 120.03 16.728 119.742 17.268C119.454 17.808 119.31 18.426 119.31 19.122V19.32C119.31 20.04 119.466 20.676 119.778 21.228C120.102 21.768 120.546 22.194 121.11 22.506C121.686 22.806 122.34 22.956 123.072 22.956C123.648 22.956 124.182 22.854 124.674 22.65C125.178 22.446 125.61 22.134 125.97 21.714L126.69 22.542C126.27 23.046 125.742 23.43 125.106 23.694C124.482 23.958 123.792 24.09 123.036 24.09ZM133.648 24.09C132.748 24.09 131.938 23.886 131.218 23.478C130.51 23.07 129.952 22.506 129.544 21.786C129.136 21.054 128.932 20.214 128.932 19.266C128.932 18.306 129.136 17.466 129.544 16.746C129.952 16.026 130.51 15.468 131.218 15.072C131.938 14.664 132.748 14.46 133.648 14.46C134.476 14.46 135.214 14.646 135.862 15.018C136.522 15.39 137.044 15.936 137.428 16.656C137.824 17.364 138.022 18.234 138.022 19.266C138.022 20.286 137.83 21.156 137.446 21.876C137.062 22.596 136.54 23.148 135.88 23.532C135.232 23.904 134.488 24.09 133.648 24.09ZM133.738 22.956C134.41 22.956 135.01 22.806 135.538 22.506C136.078 22.194 136.498 21.762 136.798 21.21C137.11 20.646 137.266 19.998 137.266 19.266C137.266 18.522 137.11 17.874 136.798 17.322C136.498 16.77 136.078 16.344 135.538 16.044C135.01 15.732 134.41 15.576 133.738 15.576C133.078 15.576 132.484 15.732 131.956 16.044C131.428 16.344 131.008 16.77 130.696 17.322C130.384 17.874 130.228 18.522 130.228 19.266C130.228 19.998 130.384 20.646 130.696 21.21C131.008 21.762 131.428 22.194 131.956 22.506C132.484 22.806 133.078 22.956 133.738 22.956ZM137.302 24V21.156L137.428 19.248L137.248 17.34V10.644H138.526V24H137.302ZM147.066 24V11.4H148.398V24H147.066ZM154.945 24V12.552H150.517V11.4H160.705V12.552H156.277V24H154.945ZM171.018 24.108C170.082 24.108 169.182 23.958 168.318 23.658C167.466 23.346 166.806 22.95 166.338 22.47L166.86 21.444C167.304 21.876 167.898 22.242 168.642 22.542C169.398 22.83 170.19 22.974 171.018 22.974C171.81 22.974 172.452 22.878 172.944 22.686C173.448 22.482 173.814 22.212 174.042 21.876C174.282 21.54 174.402 21.168 174.402 20.76C174.402 20.268 174.258 19.872 173.97 19.572C173.694 19.272 173.328 19.038 172.872 18.87C172.416 18.69 171.912 18.534 171.36 18.402C170.808 18.27 170.256 18.132 169.704 17.988C169.152 17.832 168.642 17.628 168.174 17.376C167.718 17.124 167.346 16.794 167.058 16.386C166.782 15.966 166.644 15.42 166.644 14.748C166.644 14.124 166.806 13.554 167.13 13.038C167.466 12.51 167.976 12.09 168.66 11.778C169.344 11.454 170.22 11.292 171.288 11.292C171.996 11.292 172.698 11.394 173.394 11.598C174.09 11.79 174.69 12.06 175.194 12.408L174.744 13.47C174.204 13.11 173.628 12.846 173.016 12.678C172.416 12.51 171.834 12.426 171.27 12.426C170.514 12.426 169.89 12.528 169.398 12.732C168.906 12.936 168.54 13.212 168.3 13.56C168.072 13.896 167.958 14.28 167.958 14.712C167.958 15.204 168.096 15.6 168.372 15.9C168.66 16.2 169.032 16.434 169.488 16.602C169.956 16.77 170.466 16.92 171.018 17.052C171.57 17.184 172.116 17.328 172.656 17.484C173.208 17.64 173.712 17.844 174.168 18.096C174.636 18.336 175.008 18.66 175.284 19.068C175.572 19.476 175.716 20.01 175.716 20.67C175.716 21.282 175.548 21.852 175.212 22.38C174.876 22.896 174.36 23.316 173.664 23.64C172.98 23.952 172.098 24.108 171.018 24.108ZM182.2 24.09C181.288 24.09 180.466 23.886 179.734 23.478C179.014 23.058 178.444 22.488 178.024 21.768C177.604 21.036 177.394 20.202 177.394 19.266C177.394 18.318 177.604 17.484 178.024 16.764C178.444 16.044 179.014 15.48 179.734 15.072C180.454 14.664 181.276 14.46 182.2 14.46C183.136 14.46 183.964 14.664 184.684 15.072C185.416 15.48 185.986 16.044 186.394 16.764C186.814 17.484 187.024 18.318 187.024 19.266C187.024 20.202 186.814 21.036 186.394 21.768C185.986 22.488 185.416 23.058 184.684 23.478C183.952 23.886 183.124 24.09 182.2 24.09ZM182.2 22.956C182.884 22.956 183.49 22.806 184.018 22.506C184.546 22.194 184.96 21.762 185.26 21.21C185.572 20.646 185.728 19.998 185.728 19.266C185.728 18.522 185.572 17.874 185.26 17.322C184.96 16.77 184.546 16.344 184.018 16.044C183.49 15.732 182.89 15.576 182.218 15.576C181.546 15.576 180.946 15.732 180.418 16.044C179.89 16.344 179.47 16.77 179.158 17.322C178.846 17.874 178.69 18.522 178.69 19.266C178.69 19.998 178.846 20.646 179.158 21.21C179.47 21.762 179.89 22.194 180.418 22.506C180.946 22.806 181.54 22.956 182.2 22.956ZM189.634 24V10.644H190.912V24H189.634ZM198.374 24.09C197.57 24.09 196.868 23.94 196.268 23.64C195.668 23.34 195.2 22.89 194.864 22.29C194.54 21.69 194.378 20.94 194.378 20.04V14.55H195.656V19.896C195.656 20.904 195.902 21.666 196.394 22.182C196.898 22.686 197.6 22.938 198.5 22.938C199.16 22.938 199.73 22.806 200.21 22.542C200.702 22.266 201.074 21.87 201.326 21.354C201.59 20.838 201.722 20.22 201.722 19.5V14.55H203V24H201.776V21.408L201.974 21.876C201.674 22.572 201.206 23.118 200.57 23.514C199.946 23.898 199.214 24.09 198.374 24.09ZM209.549 24.09C208.661 24.09 207.977 23.85 207.497 23.37C207.017 22.89 206.777 22.212 206.777 21.336V12.462H208.055V21.264C208.055 21.816 208.193 22.242 208.469 22.542C208.757 22.842 209.165 22.992 209.693 22.992C210.257 22.992 210.725 22.83 211.097 22.506L211.547 23.424C211.295 23.652 210.989 23.82 210.629 23.928C210.281 24.036 209.921 24.09 209.549 24.09ZM205.085 15.612V14.55H210.935V15.612H205.085ZM213.874 24V14.55H215.152V24H213.874ZM214.522 12.462C214.258 12.462 214.036 12.372 213.856 12.192C213.676 12.012 213.586 11.796 213.586 11.544C213.586 11.292 213.676 11.082 213.856 10.914C214.036 10.734 214.258 10.644 214.522 10.644C214.786 10.644 215.008 10.728 215.188 10.896C215.368 11.064 215.458 11.274 215.458 11.526C215.458 11.79 215.368 12.012 215.188 12.192C215.02 12.372 214.798 12.462 214.522 12.462ZM222.56 24.09C221.648 24.09 220.826 23.886 220.094 23.478C219.374 23.058 218.804 22.488 218.384 21.768C217.964 21.036 217.754 20.202 217.754 19.266C217.754 18.318 217.964 17.484 218.384 16.764C218.804 16.044 219.374 15.48 220.094 15.072C220.814 14.664 221.636 14.46 222.56 14.46C223.496 14.46 224.324 14.664 225.044 15.072C225.776 15.48 226.346 16.044 226.754 16.764C227.174 17.484 227.384 18.318 227.384 19.266C227.384 20.202 227.174 21.036 226.754 21.768C226.346 22.488 225.776 23.058 225.044 23.478C224.312 23.886 223.484 24.09 222.56 24.09ZM222.56 22.956C223.244 22.956 223.85 22.806 224.378 22.506C224.906 22.194 225.32 21.762 225.62 21.21C225.932 20.646 226.088 19.998 226.088 19.266C226.088 18.522 225.932 17.874 225.62 17.322C225.32 16.77 224.906 16.344 224.378 16.044C223.85 15.732 223.25 15.576 222.578 15.576C221.906 15.576 221.306 15.732 220.778 16.044C220.25 16.344 219.83 16.77 219.518 17.322C219.206 17.874 219.05 18.522 219.05 19.266C219.05 19.998 219.206 20.646 219.518 21.21C219.83 21.762 220.25 22.194 220.778 22.506C221.306 22.806 221.9 22.956 222.56 22.956ZM234.817 14.46C235.585 14.46 236.257 14.61 236.833 14.91C237.421 15.198 237.877 15.642 238.201 16.242C238.537 16.842 238.705 17.598 238.705 18.51V24H237.427V18.636C237.427 17.64 237.175 16.89 236.671 16.386C236.179 15.87 235.483 15.612 234.583 15.612C233.911 15.612 233.323 15.75 232.819 16.026C232.327 16.29 231.943 16.68 231.667 17.196C231.403 17.7 231.271 18.312 231.271 19.032V24H229.993V14.55H231.217V17.142L231.019 16.656C231.319 15.972 231.799 15.438 232.459 15.054C233.119 14.658 233.905 14.46 234.817 14.46ZM244.695 24.09C243.915 24.09 243.177 23.982 242.481 23.766C241.785 23.538 241.239 23.256 240.843 22.92L241.419 21.912C241.803 22.2 242.295 22.452 242.895 22.668C243.495 22.872 244.125 22.974 244.785 22.974C245.685 22.974 246.333 22.836 246.729 22.56C247.125 22.272 247.323 21.894 247.323 21.426C247.323 21.078 247.209 20.808 246.981 20.616C246.765 20.412 246.477 20.262 246.117 20.166C245.757 20.058 245.355 19.968 244.911 19.896C244.467 19.824 244.023 19.74 243.579 19.644C243.147 19.548 242.751 19.41 242.391 19.23C242.031 19.038 241.737 18.78 241.509 18.456C241.293 18.132 241.185 17.7 241.185 17.16C241.185 16.644 241.329 16.182 241.617 15.774C241.905 15.366 242.325 15.048 242.877 14.82C243.441 14.58 244.125 14.46 244.929 14.46C245.541 14.46 246.153 14.544 246.765 14.712C247.377 14.868 247.881 15.078 248.277 15.342L247.719 16.368C247.299 16.08 246.849 15.876 246.369 15.756C245.889 15.624 245.409 15.558 244.929 15.558C244.077 15.558 243.447 15.708 243.039 16.008C242.643 16.296 242.445 16.668 242.445 17.124C242.445 17.484 242.553 17.766 242.769 17.97C242.997 18.174 243.291 18.336 243.651 18.456C244.023 18.564 244.425 18.654 244.857 18.726C245.301 18.798 245.739 18.888 246.171 18.996C246.615 19.092 247.017 19.23 247.377 19.41C247.749 19.578 248.043 19.824 248.259 20.148C248.487 20.46 248.601 20.874 248.601 21.39C248.601 21.942 248.445 22.422 248.133 22.83C247.833 23.226 247.389 23.538 246.801 23.766C246.225 23.982 245.523 24.09 244.695 24.09Z" fill="white"/>
<defs>
<linearGradient id="paint0_linear_16124_2136" x1="15.4962" y1="22.794" x2="23.4995" y2="22.794" gradientUnits="userSpaceOnUse">
<stop stop-color="#A3DB21"/>
<stop offset="1" stop-color="#00A6B2"/>
</linearGradient>
<linearGradient id="paint1_linear_16124_2136" x1="15.4962" y1="22.794" x2="23.4995" y2="22.794" gradientUnits="userSpaceOnUse">
<stop stop-color="#A3DB21"/>
<stop offset="1" stop-color="#00A6B2"/>
</linearGradient>
<linearGradient id="paint2_linear_16124_2136" x1="25.5004" y1="19.7927" x2="33.5038" y2="19.7927" gradientUnits="userSpaceOnUse">
<stop stop-color="#A3DB21"/>
<stop offset="1" stop-color="#00A6B2"/>
</linearGradient>
<linearGradient id="paint3_linear_16124_2136" x1="25.5004" y1="19.7927" x2="33.5038" y2="19.7927" gradientUnits="userSpaceOnUse">
<stop stop-color="#A3DB21"/>
<stop offset="1" stop-color="#00A6B2"/>
</linearGradient>
<linearGradient id="paint4_linear_16124_2136" x1="19.4979" y1="12.7898" x2="27.5013" y2="12.7898" gradientUnits="userSpaceOnUse">
<stop stop-color="#A3DB21"/>
<stop offset="1" stop-color="#00A6B2"/>
</linearGradient>
<linearGradient id="paint5_linear_16124_2136" x1="19.4979" y1="12.7898" x2="27.5013" y2="12.7898" gradientUnits="userSpaceOnUse">
<stop stop-color="#A3DB21"/>
<stop offset="1" stop-color="#00A6B2"/>
</linearGradient>
</defs>
</svg>
