<svg width="551" height="62" viewBox="0 0 551 62" fill="none" xmlns="http://www.w3.org/2000/svg">
<path d="M0.148 48V3.2H21.716C25.8973 3.2 29.5027 3.88266 32.532 5.248C35.604 6.61333 37.972 8.576 39.636 11.136C41.3 13.6533 42.132 16.64 42.132 20.096C42.132 23.552 41.3 26.5387 39.636 29.056C37.972 31.5733 35.604 33.536 32.532 34.944C29.5027 36.3093 25.8973 36.992 21.716 36.992H8.532L15.252 30.528V48H0.148ZM15.252 32.192L8.532 25.344H20.756C22.8467 25.344 24.3827 24.8747 25.364 23.936C26.388 22.9973 26.9 21.7173 26.9 20.096C26.9 18.4747 26.388 17.1947 25.364 16.256C24.3827 15.3173 22.8467 14.848 20.756 14.848H8.532L15.252 8V32.192ZM67.509 48V41.792L66.485 40.128V28.352C66.485 26.6453 65.9517 25.344 64.885 24.448C63.861 23.552 62.1757 23.104 59.829 23.104C58.2503 23.104 56.6503 23.36 55.029 23.872C53.4077 24.3413 52.021 25.0027 50.869 25.856L46.261 16.32C48.309 15.04 50.7623 14.0587 53.621 13.376C56.4797 12.6933 59.2743 12.352 62.005 12.352C68.021 12.352 72.6717 13.696 75.957 16.384C79.285 19.072 80.949 23.3387 80.949 29.184V48H67.509ZM57.589 48.64C54.7303 48.64 52.341 48.1493 50.421 47.168C48.501 46.1867 47.0503 44.8853 46.069 43.264C45.0877 41.6 44.597 39.7653 44.597 37.76C44.597 35.4987 45.173 33.5787 46.325 32C47.477 30.4213 49.2263 29.2267 51.573 28.416C53.9623 27.6053 56.9703 27.2 60.597 27.2H67.893V34.176H62.901C61.365 34.176 60.2343 34.432 59.509 34.944C58.8263 35.4133 58.485 36.1387 58.485 37.12C58.485 37.9307 58.7837 38.6133 59.381 39.168C60.021 39.68 60.8743 39.936 61.941 39.936C62.9223 39.936 63.8183 39.68 64.629 39.168C65.4823 38.6133 66.101 37.76 66.485 36.608L68.341 40.896C67.7863 43.4987 66.613 45.44 64.821 46.72C63.029 48 60.6183 48.64 57.589 48.64ZM105.617 61.056C102.161 61.056 98.9183 60.6933 95.889 59.968C92.8597 59.2427 90.257 58.1547 88.081 56.704L92.945 46.848C94.3103 47.9147 96.0383 48.7467 98.129 49.344C100.262 49.984 102.268 50.304 104.145 50.304C107.132 50.304 109.265 49.664 110.545 48.384C111.825 47.1467 112.465 45.3547 112.465 43.008V40.064L113.105 29.184L113.169 18.304V12.992H126.929V41.024C126.929 47.808 125.052 52.8427 121.297 56.128C117.542 59.4133 112.316 61.056 105.617 61.056ZM102.801 46.08C99.857 46.08 97.105 45.3973 94.545 44.032C91.985 42.624 89.9157 40.6613 88.337 38.144C86.7583 35.6267 85.969 32.64 85.969 29.184C85.969 25.728 86.7583 22.7413 88.337 20.224C89.9157 17.7067 91.985 15.7653 94.545 14.4C97.105 13.0347 99.857 12.352 102.801 12.352C105.83 12.352 108.305 12.9493 110.225 14.144C112.188 15.3387 113.638 17.1947 114.577 19.712C115.516 22.1867 115.985 25.344 115.985 29.184C115.985 33.024 115.516 36.2027 114.577 38.72C113.638 41.1947 112.188 43.0507 110.225 44.288C108.305 45.4827 105.83 46.08 102.801 46.08ZM106.641 34.816C107.793 34.816 108.817 34.5813 109.713 34.112C110.609 33.6427 111.313 32.9813 111.825 32.128C112.337 31.2747 112.593 30.2933 112.593 29.184C112.593 28.032 112.337 27.0507 111.825 26.24C111.313 25.3867 110.609 24.7467 109.713 24.32C108.817 23.8507 107.793 23.616 106.641 23.616C105.532 23.616 104.508 23.8507 103.569 24.32C102.673 24.7467 101.948 25.3867 101.393 26.24C100.881 27.0507 100.625 28.032 100.625 29.184C100.625 30.2933 100.881 31.2747 101.393 32.128C101.948 32.9813 102.673 33.6427 103.569 34.112C104.508 34.5813 105.532 34.816 106.641 34.816ZM152.653 48.64C148.386 48.64 144.653 47.8507 141.453 46.272C138.296 44.6933 135.842 42.5387 134.093 39.808C132.344 37.0347 131.469 33.92 131.469 30.464C131.469 26.9227 132.322 23.7867 134.029 21.056C135.778 18.3253 138.146 16.192 141.133 14.656C144.162 13.12 147.554 12.352 151.309 12.352C154.765 12.352 157.944 13.0347 160.845 14.4C163.789 15.7653 166.136 17.792 167.885 20.48C169.677 23.168 170.573 26.496 170.573 30.464C170.573 30.976 170.552 31.552 170.509 32.192C170.466 32.7893 170.424 33.344 170.381 33.856H143.437V26.88H162.701L157.261 28.736C157.261 27.3707 157.005 26.2187 156.493 25.28C156.024 24.2987 155.362 23.552 154.509 23.04C153.656 22.4853 152.632 22.208 151.437 22.208C150.242 22.208 149.197 22.4853 148.301 23.04C147.448 23.552 146.786 24.2987 146.317 25.28C145.848 26.2187 145.613 27.3707 145.613 28.736V30.912C145.613 32.4053 145.912 33.6853 146.509 34.752C147.106 35.8187 147.96 36.6293 149.069 37.184C150.178 37.696 151.522 37.952 153.101 37.952C154.722 37.952 156.045 37.7387 157.069 37.312C158.136 36.8853 159.245 36.2453 160.397 35.392L167.949 43.008C166.242 44.8427 164.13 46.2507 161.613 47.232C159.138 48.1707 156.152 48.64 152.653 48.64ZM194.773 48V3.2H207.189L229.973 30.464H224.213V3.2H238.933V48H226.517L203.733 20.736H209.493V48H194.773ZM264.259 48.64C260.291 48.64 256.771 47.872 253.699 46.336C250.669 44.7573 248.28 42.6027 246.531 39.872C244.781 37.1413 243.907 34.0053 243.907 30.464C243.907 26.9227 244.781 23.7867 246.531 21.056C248.28 18.3253 250.669 16.192 253.699 14.656C256.771 13.12 260.291 12.352 264.259 12.352C268.227 12.352 271.747 13.12 274.819 14.656C277.891 16.192 280.28 18.3253 281.987 21.056C283.736 23.7867 284.611 26.9227 284.611 30.464C284.611 34.0053 283.736 37.1413 281.987 39.872C280.28 42.6027 277.891 44.7573 274.819 46.336C271.747 47.872 268.227 48.64 264.259 48.64ZM264.259 37.376C265.325 37.376 266.285 37.12 267.139 36.608C267.992 36.096 268.675 35.328 269.187 34.304C269.699 33.2373 269.955 31.9573 269.955 30.464C269.955 28.928 269.699 27.6693 269.187 26.688C268.675 25.664 267.992 24.896 267.139 24.384C266.285 23.872 265.325 23.616 264.259 23.616C263.192 23.616 262.232 23.872 261.378 24.384C260.525 24.896 259.843 25.664 259.331 26.688C258.819 27.6693 258.562 28.928 258.562 30.464C258.562 31.9573 258.819 33.2373 259.331 34.304C259.843 35.328 260.525 36.096 261.378 36.608C262.232 37.12 263.192 37.376 264.259 37.376ZM306.034 48.64C301.212 48.64 297.458 47.488 294.77 45.184C292.082 42.8373 290.738 39.2533 290.738 34.432V5.12H305.202V34.304C305.202 35.3707 305.479 36.2027 306.034 36.8C306.631 37.3973 307.356 37.696 308.21 37.696C309.447 37.696 310.535 37.376 311.474 36.736L314.93 46.784C313.82 47.424 312.476 47.8933 310.898 48.192C309.362 48.4907 307.74 48.64 306.034 48.64ZM285.938 25.472V14.912H312.37V25.472H285.938ZM352.291 22.272H372.003V33.664H352.291V22.272ZM353.315 48H338.211V3.2H374.627V14.592H353.315V48ZM396.821 48.64C392.853 48.64 389.333 47.872 386.261 46.336C383.232 44.7573 380.842 42.6027 379.093 39.872C377.344 37.1413 376.469 34.0053 376.469 30.464C376.469 26.9227 377.344 23.7867 379.093 21.056C380.842 18.3253 383.232 16.192 386.261 14.656C389.333 13.12 392.853 12.352 396.821 12.352C400.789 12.352 404.309 13.12 407.381 14.656C410.453 16.192 412.842 18.3253 414.549 21.056C416.298 23.7867 417.173 26.9227 417.173 30.464C417.173 34.0053 416.298 37.1413 414.549 39.872C412.842 42.6027 410.453 44.7573 407.381 46.336C404.309 47.872 400.789 48.64 396.821 48.64ZM396.821 37.376C397.888 37.376 398.848 37.12 399.701 36.608C400.554 36.096 401.237 35.328 401.749 34.304C402.261 33.2373 402.517 31.9573 402.517 30.464C402.517 28.928 402.261 27.6693 401.749 26.688C401.237 25.664 400.554 24.896 399.701 24.384C398.848 23.872 397.888 23.616 396.821 23.616C395.754 23.616 394.794 23.872 393.941 24.384C393.088 24.896 392.405 25.664 391.893 26.688C391.381 27.6693 391.125 28.928 391.125 30.464C391.125 31.9573 391.381 33.2373 391.893 34.304C392.405 35.328 393.088 36.096 393.941 36.608C394.794 37.12 395.754 37.376 396.821 37.376ZM436.292 48.64C433.519 48.64 431.001 48.0853 428.74 46.976C426.521 45.824 424.772 44.0533 423.492 41.664C422.212 39.232 421.572 36.1173 421.572 32.32V12.992H436.036V29.824C436.036 32.2987 436.441 34.0267 437.252 35.008C438.063 35.9893 439.172 36.48 440.58 36.48C441.433 36.48 442.223 36.2667 442.948 35.84C443.716 35.3707 444.335 34.624 444.804 33.6C445.273 32.5333 445.508 31.1467 445.508 29.44V12.992H459.972V48H446.212V37.888L448.964 40.64C447.727 43.3707 445.956 45.3973 443.652 46.72C441.391 48 438.937 48.64 436.292 48.64ZM490.708 12.352C493.396 12.352 495.828 12.9067 498.004 14.016C500.18 15.0827 501.886 16.768 503.124 19.072C504.404 21.376 505.044 24.3627 505.044 28.032V48H490.58V30.528C490.58 28.352 490.196 26.816 489.428 25.92C488.66 24.9813 487.614 24.512 486.292 24.512C485.31 24.512 484.393 24.7467 483.54 25.216C482.729 25.6427 482.068 26.368 481.556 27.392C481.086 28.416 480.852 29.8027 480.852 31.552V48H466.388V12.992H480.148V23.232L477.396 20.288C478.761 17.6427 480.596 15.6587 482.9 14.336C485.246 13.0133 487.849 12.352 490.708 12.352ZM527.31 48.64C524.281 48.64 521.465 47.9147 518.862 46.464C516.302 44.9707 514.254 42.88 512.718 40.192C511.182 37.4613 510.414 34.2187 510.414 30.464C510.414 26.7093 511.182 23.488 512.718 20.8C514.254 18.0693 516.302 15.9787 518.862 14.528C521.465 13.0773 524.281 12.352 527.31 12.352C530.382 12.352 532.899 13.0133 534.862 14.336C536.825 15.616 538.275 17.6 539.214 20.288C540.153 22.9333 540.622 26.3253 540.622 30.464C540.622 34.6453 540.174 38.08 539.278 40.768C538.425 43.456 537.017 45.44 535.054 46.72C533.134 48 530.553 48.64 527.31 48.64ZM530.766 37.376C531.833 37.376 532.793 37.12 533.646 36.608C534.499 36.096 535.182 35.328 535.694 34.304C536.206 33.2373 536.462 31.9573 536.462 30.464C536.462 28.928 536.206 27.6693 535.694 26.688C535.182 25.664 534.499 24.896 533.646 24.384C532.793 23.872 531.833 23.616 530.766 23.616C529.699 23.616 528.739 23.872 527.886 24.384C527.033 24.896 526.35 25.664 525.838 26.688C525.326 27.6693 525.07 28.928 525.07 30.464C525.07 31.9573 525.326 33.2373 525.838 34.304C526.35 35.328 527.033 36.096 527.886 36.608C528.739 37.12 529.699 37.376 530.766 37.376ZM536.91 48V43.264L536.846 30.464L536.206 17.664V0.511997H550.67V48H536.91Z" fill="white"/>
</svg>
