<svg width="163" height="78" viewBox="0 0 163 78" fill="none" xmlns="http://www.w3.org/2000/svg">
<mask id="mask0_16815_376" style="mask-type:luminance" maskUnits="userSpaceOnUse" x="8" y="7" width="146" height="63">
<path d="M8.44434 7.94269H153.21V69.4166H8.44434V7.94269Z" fill="white"/>
</mask>
<g mask="url(#mask0_16815_376)">
<path d="M67.6267 22.3541C67.6267 22.3541 68.1892 21.5104 68.6528 20.8541C69.4965 19.7343 70.9861 18.1406 72.1997 17.1145C72.5747 16.8333 72.9445 16.4583 72.9445 16.4583C72.9445 16.4583 72.2934 16.552 71.9184 16.6458C71.0799 16.8333 69.7726 17.677 69.1215 18.2343C68.0955 19.1718 66.882 20.5781 67.4445 21.9791C67.5382 22.0729 67.6267 22.3541 67.6267 22.3541ZM73.507 23.9427C75.184 23.8489 76.7674 23.3854 78.1684 22.5416C79.5695 21.6979 81.7153 20.2031 81.5278 18.3281C81.434 17.7708 81.059 17.302 80.5955 17.1145C79.9392 16.8333 79.6632 16.927 78.8195 17.1145C78.2622 17.302 77.9809 17.3958 77.4236 17.677C75.7413 18.6093 73.4132 20.6718 72.1997 22.2604C71.9184 22.6354 71.6424 23.1041 71.3611 23.3854C71.1736 23.5677 71.0799 23.7552 71.0799 23.7552C71.1736 23.9427 72.8507 23.9427 73.507 23.9427ZM69.2153 27.0312C69.0278 27.2187 68.8403 27.6875 68.6528 27.9687C68.5642 28.1562 68.3767 28.3437 68.283 28.4375C67.8142 28.7187 67.4445 28.8073 67.0695 28.4375C66.5122 27.875 66.1372 27.125 66.1372 26.2812V25.2552C66.0434 24.7864 65.5747 24.2239 65.2986 23.7552C65.0174 23.1979 64.7361 22.2604 64.7361 21.6041C64.6424 19.6406 65.6684 17.8645 66.9757 16.4583C68.283 15.0573 70.0538 13.8385 71.9184 13.0885C73.6892 12.3437 76.3038 11.7812 78.2622 12.5312C78.9132 12.7135 79.757 13.276 80.2205 13.8385C80.3142 13.9323 80.408 14.1198 80.5017 14.1198C80.5955 14.2135 80.783 14.2135 80.9653 14.2135C81.6215 14.3073 82.4601 14.776 82.8299 15.151C83.5799 15.802 83.9497 16.3645 84.1372 17.302C84.5122 19.0781 83.4861 21.0416 82.3663 22.2604C80.408 24.3177 78.3559 25.7239 75.8351 26.75C74.7153 27.2187 72.9445 27.5937 71.7309 27.5C71.3611 27.5 70.8924 27.4062 70.5226 27.3125C70.3351 27.3125 69.5903 27.125 69.4965 27.0312C69.4028 27.125 69.309 27.0312 69.2153 27.0312ZM71.5486 30.9635C71.6424 30.9635 71.7309 31.0573 71.8247 31.0573C72.757 31.4323 73.132 32.2708 73.3195 33.1145C73.8767 35.2656 74.0642 39.9427 74.158 41.7239C74.2517 43.125 74.2517 44.4375 74.3455 45.8385C74.4392 46.9635 74.4392 48.552 74.2517 49.5833C74.158 49.9583 73.8767 50.4218 73.507 50.7031C73.0382 50.9843 72.1059 50.9843 71.5486 50.8906C70.2413 50.6093 69.7726 49.7708 69.5903 48.4583C69.1215 45.3698 69.4028 39.2916 69.5903 36.6718C69.6788 35.8281 69.9601 33.1145 70.4288 31.9895C70.6163 31.7083 70.9861 30.8698 71.5486 30.9635ZM31.158 35.6406C31.158 35.6406 29.1997 35.7343 27.8976 35.9218C26.2153 36.1093 23.0434 36.6718 21.1788 37.3229C20.6215 37.5104 19.5017 37.9791 19.408 38.5416C19.3142 39.1041 19.6892 39.5677 20.059 40.0364C20.3403 40.3177 21.6476 41.6302 22.0174 41.9114C23.6059 43.2187 26.7778 45.276 29.1059 46.2135C29.9497 46.5885 31.2517 47.0573 31.2517 47.0573C31.2517 47.0573 31.158 43.2187 31.158 39.4791C31.0642 37.6041 31.158 35.6406 31.158 35.6406ZM66.6945 37.1354C66.7882 38.1666 66.5122 40.1302 66.5122 40.3177C66.4184 40.8802 65.9497 42.2812 65.9497 42.375C65.5747 43.2187 65.2049 43.875 64.8299 44.5312C64.1788 45.651 62.684 47.526 61.7517 48.2708C58.3976 51.1718 53.2674 52.8593 48.7882 53.3229C45.8038 53.6979 42.3507 53.6041 39.0903 53.0416C37.9705 52.8593 36.382 52.4843 36.382 52.4843C36.382 52.4843 36.382 53.1354 36.2882 53.6041C36.2882 53.7916 36.1007 54.3541 36.0122 54.5416C35.8247 55.0104 35.3559 55.2916 34.8924 55.3854C34.2361 55.4791 33.4913 55.5729 32.934 55.2916C31.908 54.8229 31.533 53.8854 31.3455 52.8593C31.158 52.0156 31.0642 50.4218 31.0642 50.4218C31.0642 50.4218 30.3195 50.052 29.6684 49.7708C27.7101 48.8333 25.8455 47.6198 24.257 46.401C23.7934 46.026 21.9236 44.4375 21.4601 44.0625C20.2465 42.9375 19.2205 41.8177 18.382 40.3177C17.7309 39.1979 17.5434 38.1666 18.007 36.9479C18.6632 35.2656 21.0851 34.052 22.6736 33.302C23.8872 32.7395 27.6163 31.5208 29.1059 31.3385C29.8559 31.2448 30.9757 31.0573 31.0642 30.9635C31.0642 30.9635 31.158 30.9635 31.158 30.8698C31.158 30.776 31.2517 29.1823 31.2517 28.5312C31.2517 27.9687 31.7205 24.0364 31.8142 23.1979C31.908 22.7291 32.184 21.0416 32.559 20.5781C32.7465 20.2968 33.2101 20.2968 33.4913 20.4843C35.2622 21.6041 35.8247 25.4427 35.9184 27.4062C36.0122 28.625 36.0122 30.401 36.0122 30.401C36.0122 30.401 38.0642 30.3073 39.2726 30.401C40.4861 30.401 41.7934 30.5885 43.1007 30.8698C44.684 31.151 47.8559 31.802 49.6267 32.7395C51.1215 33.4895 52.5174 34.7968 52.9861 36.1093C53.3611 37.3229 53.3611 38.1666 52.7049 39.2916C51.9601 40.5052 50.6528 41.4427 49.257 41.5364C48.882 41.5364 47.2934 41.3489 46.8299 40.9739C46.6424 40.7864 46.6424 40.5989 46.8299 40.4114C46.9236 40.3177 47.5747 39.9427 48.0434 39.7552C48.2309 39.6614 48.4132 39.4791 48.6007 39.3854C48.9757 39.1041 49.257 38.7291 49.257 38.3541C49.1632 37.7916 48.6945 37.5104 48.1372 37.3229C45.7101 36.3906 40.7674 35.5468 38.3403 35.3593C37.408 35.2656 36.1007 35.2656 36.1007 35.2656L36.382 48.4583C36.382 48.4583 37.5017 48.6458 38.3403 48.8333C38.809 48.927 40.9549 49.1145 41.5122 49.1145C45.8038 49.2083 50.4653 48.8333 54.382 46.9635C56.0642 46.1198 57.6476 45.1823 58.8611 43.7812C60.4497 42.0052 61.2882 39.4791 61.007 36.9479C60.7257 34.1458 58.7674 30.776 57.184 28.7187C52.9861 23.3854 45.8976 18.8906 39.5538 16.3645C33.1163 13.7448 26.7778 12.1562 19.9653 11.9687C18.1945 11.875 14.3715 11.9687 12.4132 12.5312C12.132 12.625 11.8507 12.7135 11.5747 12.7135C11.3872 12.7135 11.0122 12.901 10.9184 12.9948C10.8247 12.9948 10.8247 13.0885 10.8247 13.0885C10.8247 13.0885 10.9184 13.1823 11.0122 13.1823C11.1997 13.276 12.0382 13.3698 12.507 13.3698C12.8767 13.4635 13.3455 13.651 13.4392 13.9323C13.6267 14.2135 13.6267 14.401 13.4392 14.6823C12.9705 15.2448 11.3872 15.151 10.6424 15.0573C9.89237 14.9635 8.96008 14.6823 8.77258 14.026C8.59028 13.276 8.96008 12.5312 9.33508 11.7812C10.1736 10.375 11.2934 9.63017 12.9705 9.16142C15.3038 8.50517 18.382 8.03642 20.6215 7.94267C25.658 7.75517 30.507 8.59892 35.4497 10.0937C38.2465 10.9375 41.9809 12.3437 44.684 13.651C46.6424 14.5885 49.7205 16.2708 51.3976 17.4895C51.9601 17.8645 55.132 20.2031 55.5955 20.5781C56.6215 21.4166 57.9288 22.6354 58.9549 23.5677C60.8195 25.4427 63.1528 28.3437 64.2726 30.5885C64.5486 31.151 64.7361 31.7083 65.1111 32.2708C65.2049 32.4583 65.7622 33.7708 65.8559 34.1458C65.9497 34.5156 66.0434 35.0781 66.0434 35.0781C66.5122 35.6406 66.6945 36.7656 66.6945 37.1354ZM88.6163 38.1666H88.8038C90.3872 38.3541 91.882 38.6354 93.0903 39.1979C94.2101 39.6614 94.7726 40.3177 95.4236 41.3489C96.2622 43.0312 96.3559 45.276 95.6111 47.0573C95.0486 48.3645 93.7465 49.3958 92.533 50.052C91.3195 50.6093 90.1059 50.8906 88.7101 51.0781C86.283 51.3593 83.5799 50.8906 81.434 49.7708C80.1267 49.1145 78.5434 47.9895 77.7049 46.5885C77.1424 45.5573 77.1424 44.1562 77.8872 43.2187C79.007 41.6302 81.5278 41.3489 83.2986 41.3489C84.6997 41.4427 87.2153 41.8177 88.6163 42.2812C88.9861 42.375 90.3872 42.9375 90.5747 43.2187C90.7622 43.4062 90.8559 43.5937 90.7622 43.875C90.4809 44.8125 88.1476 45.276 87.4965 45.3698C85.7257 45.651 84.7934 44.9948 82.8299 44.1562C82.3663 43.9687 81.7153 43.7812 81.1528 43.6875C80.2205 43.5937 79.1945 43.875 79.007 44.8125C78.9132 45.276 79.4757 45.8385 79.9392 46.026C80.9653 46.4948 81.8976 46.6823 82.9236 46.6823C86.0017 46.776 89.5486 46.2135 92.0642 44.4375C92.4392 44.1562 92.7205 43.7812 92.7205 43.4062C92.7205 43.3125 92.6267 42.8437 92.4392 42.75H92.3455C92.2517 42.75 92.158 42.5625 92.0642 42.4687C91.882 42.2812 91.132 41.9114 91.0382 41.9114C89.3611 41.1614 86.1892 40.8802 84.5122 40.6927C82.8299 40.5052 80.1267 40.3177 79.4757 40.2239C78.8195 40.1302 78.0747 40.0364 77.5174 39.7552C76.9549 39.4791 76.3976 38.9166 76.2101 38.2604C75.9288 37.0416 76.3038 35.6406 76.9549 34.7031C78.6372 32.2708 82.6476 31.3385 85.632 30.9635C88.5226 30.5885 93.184 30.5885 95.9861 32.0833C96.4497 32.2708 96.6372 32.552 96.5434 33.0208C96.3559 33.8645 95.7049 34.4218 94.8663 34.7031C94.0226 34.9843 92.2517 35.0781 91.507 35.0781C88.0538 35.2656 83.9497 35.1718 80.6892 36.0156C80.408 36.1093 80.033 36.2031 79.8455 36.3906C79.382 36.9479 80.783 37.1354 81.059 37.1354H81.2465L88.6163 38.1666ZM99.2465 50.8906C97.8507 50.4218 97.5695 48.177 97.4757 47.0573C97.2882 43.4062 98.2205 38.2604 99.434 34.7968C99.809 33.7708 100.273 32.177 101.392 32.2708C102.137 32.3645 102.7 32.927 103.075 33.4895C104.189 34.9843 105.59 37.0416 106.523 38.5416C107.549 40.1302 108.575 41.8177 109.601 43.2187C109.694 43.4062 109.882 43.5937 109.976 43.6875C110.163 43.875 110.345 43.875 110.345 43.6875C110.345 43.5937 110.345 41.8177 110.257 41.4427C110.163 40.8802 110.163 40.4114 110.069 39.8489C109.882 38.3541 109.413 36.2968 109.043 34.8906C108.668 33.302 108.111 31.7083 107.736 30.1198C107.642 29.651 107.549 29.0885 107.549 28.625C107.549 27.9687 108.017 27.5937 108.668 27.7812C110.069 28.25 111.934 31.3385 112.491 32.3645C112.679 32.7395 113.424 34.5156 113.611 35.0781C114.174 36.8593 114.543 38.4479 114.731 40.4114C114.918 42.2812 114.731 44.9948 113.986 46.776C113.705 47.4323 113.148 48.3645 112.585 48.8333C111.84 49.5833 110.257 50.1458 109.231 49.4895C108.111 48.8333 106.153 45.5573 105.872 44.9948C104.752 43.0312 102.887 39.2916 102.606 38.9166C102.512 38.8229 102.418 38.7291 102.325 38.7291C102.231 38.7291 102.137 38.9166 102.137 39.1041C101.955 40.2239 101.861 45.276 101.861 45.4635C101.861 46.3073 101.767 48.4583 101.58 49.4895C101.392 50.1458 101.299 50.7031 100.648 50.9843C100.09 51.1718 99.809 51.0781 99.2465 50.8906ZM118.184 50.6093C117.997 50.5156 117.809 50.2395 117.622 50.052C117.622 50.052 117.064 49.302 116.97 49.0208C116.877 48.8333 116.783 48.6458 116.783 48.552C116.319 47.3385 116.319 46.2135 116.595 44.9948C116.877 43.7812 117.064 43.7812 117.622 42.1927C117.622 42.0989 117.715 42.0052 117.715 41.9114C117.715 41.7239 117.345 40.2239 117.345 39.7552C117.345 39.0104 117.903 38.5416 118.835 38.4479H119.023C119.398 38.3541 119.674 37.6041 119.861 37.0416C120.142 36.2031 120.606 34.9843 120.606 34.9843C120.606 34.9843 119.398 34.7031 118.741 34.5156C117.997 34.2343 117.528 33.8645 117.158 33.2083C116.783 32.4583 117.064 31.9895 117.809 31.802C118.09 31.7083 120.424 31.2448 121.168 31.151C122.101 31.0573 122.939 30.8698 123.778 30.776C124.523 30.6823 127.976 30.3073 129.095 30.3073C130.773 30.401 131.892 31.0573 132.825 32.4583C133.387 33.2083 133.663 34.1458 132.918 34.6093C131.705 35.3593 127.788 35.4531 127.043 35.4531H124.34L123.497 38.1666H127.882C128.257 38.1666 128.627 38.1666 128.908 38.2604C129.747 38.4479 130.028 39.1041 130.028 39.9427C130.028 40.9739 129.84 41.5364 129.002 41.6302C128.538 41.7239 123.684 41.7239 123.033 41.8177C122.658 41.9114 122.194 41.9114 122.194 41.9114C122.194 41.9114 121.819 42.8437 121.538 43.7812C121.262 44.7187 120.981 45.7448 120.981 45.7448H121.444C121.819 45.7448 122.101 45.7448 122.382 45.651C123.872 45.3698 126.111 45.0885 127.882 44.8125C128.814 44.625 129.377 44.625 129.84 45.276C130.309 45.8385 130.497 46.3073 130.585 47.0573C130.585 47.7083 130.122 48.177 129.47 48.6458C127.601 50.1458 124.247 51.7343 121.819 52.0156C120.7 52.1093 120.424 52.0156 119.398 51.7343C119.21 51.6406 118.554 51.3593 118.554 51.3593C118.741 50.9843 118.372 50.7031 118.184 50.6093ZM148.96 37.0416C147.752 38.0729 146.069 40.2239 145.325 41.3489C144.299 42.8437 143.366 44.5312 142.434 45.8385C142.247 46.1198 141.595 47.151 141.689 47.2448C141.689 47.3385 142.34 47.3385 142.991 47.151C144.299 46.9635 146.069 46.026 147.095 45.1823C148.59 43.9687 149.616 42.375 150.08 40.5052C150.267 39.6614 150.361 37.8854 149.804 37.0416C149.523 36.9479 149.148 36.8593 148.96 37.0416ZM138.981 52.4843C138.981 52.4843 138.611 53.6979 138.33 54.5416C137.861 56.1302 136.741 60.3437 136.465 61.7448C136.09 63.7135 134.97 68.8593 134.97 68.9531C134.877 69.1354 134.877 69.1354 134.689 69.2291C134.226 69.5104 134.038 69.4166 133.481 69.1354C132.731 68.7656 132.174 68.3906 131.611 67.6406C130.585 66.2396 130.773 63.6198 131.054 62.1198C131.799 56.6927 132.549 54.3541 134.601 49.0208V48.8333C133.944 47.4323 133.575 45.8385 133.575 44.5312C133.575 40.3177 135.997 36.2031 138.705 32.8333C138.887 32.552 140.194 30.9635 140.845 31.0573C141.408 31.0573 141.595 31.802 141.502 32.3645C141.22 34.3281 139.819 36.2968 138.887 37.8854C137.861 39.7552 137.585 40.5052 137.116 42.1927C137.023 42.4687 136.835 43.6875 136.835 43.875C136.835 44.3437 136.929 44.9062 136.929 44.9062C136.929 44.9062 138.611 42.4687 139.726 41.0677C140.382 40.2239 140.752 39.7552 141.314 39.1041C141.872 38.5416 143.83 36.3906 144.392 35.9218C145.606 34.7968 146.163 34.3281 147.47 33.5833C148.497 33.0208 149.429 32.927 150.455 33.5833C152.038 34.6093 152.788 36.8593 152.97 38.6354C153.158 40.7864 152.788 43.2187 151.762 45.0885C150.642 47.3385 149.054 48.927 147.002 50.2395C144.856 51.6406 142.34 52.6718 139.913 52.5781C139.356 52.4843 138.981 52.4843 138.981 52.4843Z" fill="white"/>
</g>
</svg>
