<svg width="163" height="78" viewBox="0 0 163 78" fill="none" xmlns="http://www.w3.org/2000/svg">
<mask id="mask0_16815_382" style="mask-type:luminance" maskUnits="userSpaceOnUse" x="44" y="2" width="74" height="73">
<path d="M44.6836 2.32812H117.069V74.7135H44.6836V2.32812Z" fill="white"/>
</mask>
<g mask="url(#mask0_16815_382)">
<path d="M117.361 38.6667C117.361 18.5781 101.074 2.32812 81.0221 2.32812C60.9336 2.32812 44.6836 18.6198 44.6836 38.6667C44.6836 58.7552 60.9753 75.0052 81.0221 75.0052C101.074 75.0052 117.361 58.7188 117.361 38.6667ZM52.2357 22.8333H69.9284L55.3398 58.9219H106.819C100.814 66.5677 91.4857 71.4635 80.9961 71.4635C62.8555 71.4635 48.1628 56.7708 48.1628 38.6406C48.1888 32.9219 49.6471 27.5365 52.2357 22.8333ZM102.053 38.5417V34.0938H93.1471V22.8594H109.746C112.335 27.5469 113.793 32.9323 113.793 38.6823C113.793 44.4271 112.335 49.8125 109.746 54.5052H67.7357L82.3138 18.4115H55.1888C61.194 10.7708 70.5221 5.875 81.0117 5.875C91.4753 5.875 100.814 10.7708 106.835 18.4115H83.3815V51.2448H93.1732V38.526H102.053V38.5417Z" fill="white"/>
</g>
</svg>
