<svg width="163" height="78" viewBox="0 0 163 78" fill="none" xmlns="http://www.w3.org/2000/svg">
<mask id="mask0_16815_338" style="mask-type:luminance" maskUnits="userSpaceOnUse" x="29" y="26" width="27" height="25">
<path d="M29.6885 26.0886H55.0218V50.875H29.6885V26.0886Z" fill="white"/>
</mask>
<g mask="url(#mask0_16815_338)">
<path d="M30.9336 38.474C30.9336 30.25 36.1315 26.125 42.5378 26.125C48.944 26.125 54.1419 30.25 54.1419 38.474C54.1419 46.7188 48.944 50.8281 42.5378 50.8281C36.1315 50.8281 30.9336 46.7604 30.9336 38.474ZM42.543 47.6927C45.6992 47.6927 48.2617 44.4271 48.2617 38.474C48.2617 32.5781 45.6992 29.2552 42.543 29.2552C39.3815 29.2552 36.8138 32.5781 36.8138 38.474C36.8086 44.3958 39.3763 47.6927 42.543 47.6927Z" fill="white"/>
</g>
<mask id="mask1_16815_338" style="mask-type:luminance" maskUnits="userSpaceOnUse" x="8" y="26" width="21" height="25">
<path d="M8.44434 26.6667H28.3558V50.6667H8.44434V26.6667Z" fill="white"/>
</mask>
<g mask="url(#mask1_16815_338)">
<path d="M8.44434 27.0261V49.9219H12.4756V34.5365L24.9131 49.9219H28.3037V27.0261H24.4704V39.6459L14.137 27.0261H8.44434Z" fill="white"/>
</g>
<mask id="mask2_16815_338" style="mask-type:luminance" maskUnits="userSpaceOnUse" x="128" y="26" width="26" height="25">
<path d="M128.355 26.6667H153.21V50.6667H128.355V26.6667Z" fill="white"/>
</mask>
<g mask="url(#mask2_16815_338)">
<path d="M138.21 27.0261L128.809 49.9219H132.866L135.454 43.625H143.996L146.621 49.9219H153.204L143.71 27.0261H138.21ZM136.772 40.3386L139.71 33.1563L142.652 40.3386H136.772Z" fill="white"/>
</g>
<mask id="mask3_16815_338" style="mask-type:luminance" maskUnits="userSpaceOnUse" x="84" y="26" width="22" height="25">
<path d="M84.3555 26.6667H105.689V50.875H84.3555V26.6667Z" fill="white"/>
</mask>
<g mask="url(#mask3_16815_338)">
<path d="M100.382 42.0261C100.267 44.125 100.106 46.198 97.762 46.9792C96.71 47.3177 94.7881 47.3125 93.6995 46.8855C93.1787 46.6719 92.8558 46.4948 92.4495 46.099C91.6683 45.3334 91.3558 43.7136 91.3298 42.6511V27.0261H85.2881V42.0313C85.3402 44.099 85.6839 46.1875 87.0485 47.8542C89.3818 50.724 93.6735 51.125 97.1475 50.7032C99.3037 50.4375 101.194 49.7344 102.71 48.1667C103.762 47.0834 104.408 45.3802 104.595 43.9063C104.71 43.0573 104.726 42.9115 104.726 42.0261V27.0209H100.377V42.0261H100.382Z" fill="white"/>
</g>
<path d="M114.636 30.25C117.303 30.25 119.944 29.8021 121.1 32.5364C121.553 33.6198 121.584 36.0677 120.517 37.1094C119.251 38.3437 117.308 38.4687 115.626 38.6094L121.834 49.9219H128.194L122.569 39.8333C125.918 38.6719 127.496 36.7969 127.334 33.2135C127.157 29.3541 123.845 27.0208 120.074 27.0208H108.626V49.9219H114.636V30.25Z" fill="white"/>
<path d="M75.5013 49.9219L66.5534 27.0208H61.8451L53.1523 49.9219H57.3763L63.2253 34.4375L69.168 49.9219H75.5013Z" fill="white"/>
<path d="M75.7881 27.0261H70.8662L69.3662 30.9375L71.5016 36.4167L72.2777 34.4427L78.0641 49.9219H84.7516L75.7881 27.0261Z" fill="white"/>
<path d="M64.8551 41.9323L61.8447 49.9219H65.6885L66.8031 46.9167L64.8551 41.9323Z" fill="white"/>
</svg>
