<svg width="163" height="78" viewBox="0 0 163 78" fill="none" xmlns="http://www.w3.org/2000/svg">
<mask id="mask0_16815_301" style="mask-type:luminance" maskUnits="userSpaceOnUse" x="8" y="24" width="17" height="22">
<path d="M8.44434 24.3958H24.3558V45.3333H8.44434V24.3958Z" fill="white"/>
</mask>
<g mask="url(#mask0_16815_301)">
<path d="M19.236 38.6823C19.111 34.9219 18.0016 34.901 15.46 34.901H14.1891V44.2916H16.7673V44.8958H8.44434V44.2916H11.0225V25.0937H8.44434V24.4896H23.0016L23.3506 30.2708H22.8662C22.736 28.5781 22.0798 27.1302 20.887 25.9323C19.9131 25.0729 18.9964 25.0937 16.9183 25.0937H14.1891V34.2344H15.4027C17.6631 34.2344 18.512 34.1771 18.9183 32.9323C19.111 32.0781 19.2048 31.2083 19.1995 30.3281H19.7568V38.6562L19.236 38.6823Z" fill="white"/>
</g>
<mask id="mask1_16815_301" style="mask-type:luminance" maskUnits="userSpaceOnUse" x="23" y="24" width="9" height="22">
<path d="M23.0225 24.3958H31.0225V45.3333H23.0225V24.3958Z" fill="white"/>
</mask>
<g mask="url(#mask1_16815_301)">
<path d="M23.8711 32.9895H28.5065V44.2916H30.3607V44.8958H23.8398V44.2916H25.819V33.6302H23.8711V32.9895ZM27.0482 24.9948C27.2721 24.9895 27.4909 25.0312 27.6992 25.1198C27.9076 25.2083 28.0898 25.3333 28.2461 25.4895C28.4076 25.651 28.5273 25.8385 28.6107 26.052C28.6992 26.2604 28.7357 26.4791 28.7357 26.7083C28.7357 26.9323 28.694 27.151 28.6055 27.3645C28.5169 27.5729 28.3971 27.7604 28.2357 27.9166C28.0794 28.0781 27.8971 28.2031 27.6888 28.2916C27.4805 28.375 27.2617 28.4218 27.0378 28.4218C26.8138 28.4218 26.5951 28.375 26.3867 28.2916C26.1836 28.2031 25.9961 28.0781 25.8398 27.9166C25.6784 27.7604 25.5586 27.5729 25.4701 27.3645C25.3867 27.151 25.3398 26.9323 25.3398 26.7083C25.3346 26.4739 25.3711 26.25 25.4544 26.0312C25.5378 25.8177 25.6628 25.625 25.8242 25.4583C25.9857 25.2916 26.1732 25.1614 26.3867 25.0729C26.5951 24.9843 26.819 24.9427 27.0482 24.9479V24.9948Z" fill="white"/>
</g>
<path d="M38.3818 33.6302H35.3193V42.1979C35.3193 43.1041 35.3193 44.3125 36.7204 44.3125C36.9391 44.3229 37.1579 44.2812 37.3662 44.2031C37.5693 44.125 37.7568 44.0052 37.9183 43.8489C38.0798 43.6979 38.2048 43.5156 38.2933 43.3125C38.387 43.1094 38.4339 42.8906 38.4391 42.6666H39.0745C39.0277 43.0521 38.9131 43.4166 38.7256 43.7552C38.5381 44.0937 38.2933 44.3854 37.9912 44.625C37.6943 44.8698 37.3558 45.0416 36.986 45.1458C36.6162 45.2552 36.2412 45.2864 35.861 45.2396C35.236 45.3125 34.6475 45.1927 34.1006 44.875C33.5485 44.5625 33.1475 44.1146 32.887 43.5364C32.6475 42.6614 32.5693 41.776 32.6579 40.875V33.6302H30.8037V33.1875C31.8558 32.6823 32.7308 31.9635 33.4287 31.026C34.1735 30.2135 34.6579 29.2708 34.887 28.1927H35.3193V32.9896H38.3818V33.6302Z" fill="white"/>
<path d="M50.4802 41.0261C50.3916 41.625 50.1989 42.1875 49.902 42.7136C49.6104 43.2448 49.2302 43.7031 48.7666 44.0886C48.3083 44.4792 47.7927 44.7709 47.2249 44.9688C46.6572 45.1667 46.0739 45.2604 45.4749 45.2396C45.0791 45.2344 44.6885 45.1927 44.2979 45.1094C43.9124 45.0261 43.5374 44.9063 43.1781 44.7448C42.8135 44.5886 42.4697 44.3959 42.1416 44.1667C41.8187 43.9427 41.5218 43.6823 41.2458 43.3959C40.9697 43.1094 40.7302 42.7969 40.5166 42.4584C40.3031 42.125 40.126 41.7656 39.9802 41.3959C39.8395 41.0261 39.7354 40.6406 39.6677 40.2448C39.5999 39.8542 39.5687 39.4584 39.5791 39.0573C39.5687 38.6406 39.6052 38.2292 39.6781 37.8177C39.7458 37.4063 39.8604 37.0052 40.0114 36.6198C40.1624 36.2292 40.3499 35.8594 40.5739 35.5104C40.7979 35.1615 41.0531 34.8386 41.3395 34.5365C41.6312 34.2396 41.9437 33.974 42.2822 33.7344C42.626 33.5 42.9854 33.3021 43.3656 33.1354C43.7458 32.974 44.1364 32.849 44.5427 32.7656C44.9437 32.6823 45.3552 32.6406 45.7666 32.6354C48.4333 32.6354 50.0635 34.3177 50.0635 35.7552C50.0791 35.9636 50.0531 36.1615 49.9854 36.3594C49.9177 36.5521 49.8135 36.7292 49.6781 36.8802C49.5374 37.0365 49.376 37.1563 49.1937 37.2396C49.0062 37.3281 48.8083 37.375 48.6052 37.3802C48.4124 37.3698 48.2354 37.3229 48.0635 37.2396C47.8864 37.1563 47.7406 37.0469 47.6104 36.9011C47.4854 36.7552 47.3916 36.5938 47.3291 36.4115C47.2666 36.2292 47.2458 36.0417 47.2614 35.849C47.2614 35.3177 47.4541 34.8646 47.8239 34.4896C47.9177 34.375 47.9697 34.3177 47.9697 34.2031C47.9697 34.0886 47.2614 33.2188 45.7093 33.2188C45.152 33.1771 44.6364 33.3021 44.1624 33.599C43.6885 33.8959 43.3499 34.3073 43.1416 34.8281C42.7406 36.5052 42.5791 38.2031 42.6572 39.9271C42.6208 40.8906 42.7302 41.8386 42.9854 42.7709C43.1572 43.3334 43.4854 43.7865 43.9645 44.1198C44.4489 44.4531 44.9802 44.5938 45.5635 44.5521C46.0635 44.5469 46.5479 44.4531 47.0166 44.2761C47.4854 44.099 47.9072 43.849 48.2927 43.5209C48.6729 43.1927 48.9906 42.8125 49.2406 42.375C49.4958 41.9427 49.6677 41.474 49.7614 40.9792L50.4802 41.0261Z" fill="white"/>
<mask id="mask2_16815_301" style="mask-type:luminance" maskUnits="userSpaceOnUse" x="49" y="24" width="19" height="22">
<path d="M49.6885 24.3958H67.0218V45.3333H49.6885V24.3958Z" fill="white"/>
</mask>
<g mask="url(#mask2_16815_301)">
<path d="M51.0482 24.4896H55.5742V34.6927C56.0898 34.0208 56.7305 33.5 57.5013 33.1354C58.2669 32.776 59.069 32.6094 59.9128 32.6354C61.1523 32.5469 62.2201 32.9271 63.1263 33.7812C63.6732 34.6041 63.9023 35.5104 63.8034 36.5V44.2812H65.694V44.8854H59.2044V44.2812H61.0221V36.2812C61.0221 35.0729 61.0221 33.4479 59.1107 33.4479C58.6107 33.4531 58.1367 33.5729 57.694 33.8073C57.2513 34.0364 56.8815 34.3594 56.5898 34.776C55.7096 35.9166 55.6523 37.0573 55.5951 39.4219V44.3125H57.4284V44.9219H50.9023V44.3125H52.8242V25.0937H51.0482V24.4896Z" fill="white"/>
</g>
<mask id="mask3_16815_301" style="mask-type:luminance" maskUnits="userSpaceOnUse" x="67" y="24" width="19" height="22">
<path d="M67.0225 24.3958H85.6891V45.3333H67.0225V24.3958Z" fill="white"/>
</mask>
<g mask="url(#mask3_16815_301)">
<path d="M84.9548 44.5208C84.2829 44.8698 83.5641 45.0416 82.8037 45.0364C81.762 45.0521 80.8454 44.7187 80.0589 44.026C78.6891 42.8177 78.6318 41.0781 78.6006 39.4583L78.5641 38.2031C78.5641 37.0573 78.3975 35.401 76.71 34.7031C75.5016 34.3333 74.2725 34.2344 73.0225 34.3958V44.2812H75.5693V44.8854H67.2568V44.2812H69.8245V25.0937H67.1318V24.4896H75.0485C77.3089 24.4896 79.4235 24.4896 81.0745 25.7344C81.6266 26.125 82.0589 26.625 82.3714 27.2291C82.6787 27.8385 82.835 28.4791 82.8298 29.1614C82.8298 32.0885 80.1735 33.8802 76.6423 34.1094C78.0537 34.2604 79.2985 34.8021 80.3766 35.7344C81.0589 36.3854 81.5641 37.1614 81.8818 38.0573C82.1995 38.9531 82.3037 39.875 82.1839 40.8177V41.6302C82.1423 42.151 82.1683 42.6666 82.262 43.1823C82.3193 43.5052 82.4652 43.7708 82.7048 43.9844C82.9495 44.2031 83.2308 44.3125 83.5537 44.3281C83.9704 44.2864 84.3714 44.1823 84.7516 44.0052L84.9548 44.5208ZM72.9652 25.1302V33.7083H74.0433C75.4391 33.8489 76.7673 33.5989 78.0225 32.9583C78.5068 32.526 78.8714 32.0104 79.111 31.4062C79.3506 30.8021 79.4443 30.1771 79.3923 29.5312C79.4027 28.4531 79.1266 27.4583 78.5641 26.5469C77.5693 25.0937 75.6787 25.1302 73.9391 25.1302H72.9652Z" fill="white"/>
</g>
<path d="M95.5273 42.7709C95.5273 43.7552 95.5273 44.4532 96.1836 44.4532C96.5586 44.4532 96.8763 44.099 97.0794 43.9271L97.418 44.3386C96.8398 44.974 96.1263 45.2917 95.2669 45.2865C94.6576 45.2917 94.1055 45.1094 93.6159 44.7396C93.0742 44.2448 92.8034 43.625 92.8138 42.8854C92.4648 43.6302 91.9388 44.2188 91.2461 44.6563C90.5534 45.0886 89.7982 45.2969 88.9805 45.2865C87.1732 45.2865 85.7461 44.2448 85.7461 42.4532C85.7461 40.6563 87.0586 39.4479 88.9805 38.8438C90.2565 38.5052 91.5534 38.3386 92.8711 38.349V35.4115C92.8711 34.5782 92.7565 33.2188 90.8711 33.2188C89.5794 33.2188 88.5169 33.9948 88.5169 34.4323C88.5169 34.8646 89.1159 35.1511 89.1159 35.8125C89.1107 35.9896 89.069 36.1563 88.9961 36.3177C88.9232 36.4792 88.819 36.6198 88.6888 36.7396C88.5638 36.8594 88.4128 36.9479 88.2513 37.0052C88.0846 37.0677 87.918 37.0938 87.7409 37.0886C87.569 37.0782 87.4023 37.0365 87.2409 36.9636C87.0846 36.8907 86.944 36.7865 86.8294 36.6563C86.7096 36.5261 86.6211 36.3802 86.5586 36.2136C86.5013 36.0469 86.4753 35.875 86.4805 35.6979C86.4805 34.2813 88.3346 32.6354 91.2305 32.6354C92.5013 32.6042 93.6315 32.9844 94.6263 33.7813C95.3555 34.6094 95.6576 35.5782 95.5273 36.6823V42.7709ZM92.8711 38.8646C90.6107 38.8646 88.4388 39.5625 88.4388 41.9375C88.4128 42.1927 88.4388 42.4375 88.5169 42.6823C88.5951 42.9219 88.7201 43.1354 88.8919 43.3282C89.0586 43.5157 89.2565 43.6615 89.4909 43.7604C89.7201 43.8646 89.9596 43.9167 90.2148 43.9167C90.8346 43.9011 91.3711 43.6771 91.819 43.2396C92.7357 42.349 92.793 41.3438 92.8503 39.8698L92.8711 38.8646Z" fill="white"/>
<path d="M104.757 33.6302H101.694V42.1979C101.694 43.1041 101.694 44.3125 103.095 44.3125C103.319 44.3229 103.533 44.2812 103.741 44.2031C103.95 44.125 104.132 44.0052 104.293 43.8489C104.455 43.6979 104.58 43.5156 104.668 43.3125C104.762 43.1094 104.809 42.8906 104.814 42.6666H105.45C105.272 43.3333 104.929 43.8906 104.418 44.3489C103.908 44.8021 103.314 45.0781 102.637 45.1719C101.965 45.2656 101.319 45.1666 100.705 44.8698C100.095 44.5729 99.611 44.125 99.262 43.5364C99.0225 42.6614 98.9495 41.776 99.0329 40.875V33.6302H97.1787V33.1875C98.2308 32.6823 99.1058 31.9635 99.8037 31.026C100.549 30.2135 101.033 29.2708 101.262 28.1927H101.694V32.9896H104.757V33.6302Z" fill="white"/>
<mask id="mask4_16815_301" style="mask-type:luminance" maskUnits="userSpaceOnUse" x="105" y="24" width="9" height="22">
<path d="M105.688 24.3958H113.688V45.3333H105.688V24.3958Z" fill="white"/>
</mask>
<g mask="url(#mask4_16815_301)">
<path d="M106.454 32.9895H111.09V44.2916H112.944V44.8958H106.434V44.2916H108.397V33.6302H106.454V32.9895ZM109.632 24.9948C109.855 24.9843 110.074 25.0208 110.283 25.1041C110.496 25.1823 110.684 25.302 110.845 25.4583C111.007 25.6145 111.132 25.7968 111.225 26.0052C111.314 26.2135 111.361 26.4323 111.361 26.6614C111.361 26.8906 111.319 27.1093 111.236 27.3177C111.147 27.526 111.022 27.7135 110.866 27.875C110.704 28.0312 110.522 28.1562 110.314 28.2448C110.105 28.3333 109.892 28.375 109.668 28.375C109.439 28.375 109.225 28.3333 109.017 28.2448C108.809 28.1562 108.626 28.0312 108.465 27.875C108.309 27.7135 108.184 27.526 108.1 27.3177C108.012 27.1093 107.97 26.8906 107.97 26.6614C107.965 26.4375 108.007 26.2187 108.09 26.0104C108.173 25.802 108.293 25.6145 108.449 25.4531C108.605 25.2916 108.783 25.1666 108.991 25.0833C109.194 24.9948 109.408 24.9479 109.632 24.9479V24.9948Z" fill="white"/>
</g>
<path d="M120.694 44.8958H114.199V44.2916H116.069V33.6302H114.199V32.9896H118.725V34.776C119.158 34.0989 119.725 33.5729 120.428 33.1927C121.126 32.8177 121.876 32.6302 122.673 32.6354C123.809 32.6146 124.793 32.9948 125.626 33.7812C126.408 34.6666 126.72 35.6979 126.564 36.875V44.2448H128.449V44.8489H122.048V44.2448H123.803V36.5104C123.819 35.9375 123.783 35.3698 123.689 34.8073C123.611 34.4062 123.413 34.0781 123.095 33.8281C122.772 33.5729 122.408 33.4583 122.007 33.4844C121.319 33.5 120.704 33.7291 120.173 34.1666C118.829 35.3125 118.793 37.0364 118.772 39.2291V44.2916H120.684L120.694 44.8958Z" fill="white"/>
<mask id="mask5_16815_301" style="mask-type:luminance" maskUnits="userSpaceOnUse" x="128" y="32" width="16" height="22">
<path d="M128.355 32H143.022V53.151H128.355V32Z" fill="white"/>
</mask>
<g mask="url(#mask5_16815_301)">
<path d="M137.486 44.3125C139.002 44.3125 141.345 44.3125 141.345 47.526C141.345 50.7344 138.835 53.3073 135.022 53.3073C131.934 53.3073 129.538 51.625 129.538 49.6042C129.58 48.9323 129.819 48.3438 130.252 47.8385C130.689 47.3281 131.231 47.0052 131.877 46.8646C131.564 46.8021 131.272 46.6875 130.996 46.526C130.726 46.3646 130.486 46.1615 130.278 45.9167C130.075 45.6719 129.913 45.3958 129.799 45.099C129.684 44.7969 129.627 44.4844 129.616 44.1667C129.674 43.0521 130.121 42.1406 130.96 41.4219C131.382 41.0573 131.83 40.7292 132.309 40.4427C131.705 40.0677 131.236 39.5677 130.897 38.9375C130.559 38.3073 130.403 37.6354 130.418 36.9219C130.418 34.1667 132.762 32.6719 135.283 32.6719C136.595 32.6042 137.726 33.026 138.674 33.9375C139.236 33.2656 139.955 32.8854 140.825 32.7969C141.007 32.7813 141.184 32.8021 141.356 32.8594C141.528 32.9167 141.684 33.0052 141.819 33.125C141.96 33.2448 142.069 33.3906 142.147 33.5521C142.231 33.7188 142.272 33.8906 142.283 34.0781C142.283 34.3906 142.174 34.6615 141.95 34.8854C141.731 35.1094 141.465 35.2188 141.153 35.2188C140.908 35.2292 140.694 35.1615 140.507 35.0104C140.314 34.8594 140.2 34.6615 140.158 34.4219V34.1563C140.158 34.0417 140.064 33.8385 139.819 33.8385C139.569 33.8385 139.33 34.1198 139.127 34.3281C139.772 35.125 140.095 36.0417 140.101 37.0677C140.101 39.6771 137.84 41.2656 135.236 41.2656C134.439 41.276 133.689 41.099 132.976 40.7396C131.845 41.6406 130.976 42.3385 130.976 43.2292C130.976 44.3698 132.262 44.3698 133.351 44.3698L137.486 44.3125ZM135.564 47.0313C134.512 47.0313 133.226 47.0313 132.397 46.974C131.72 47.6094 131.387 48.3854 131.392 49.3177C131.403 49.7813 131.502 50.224 131.694 50.6458C131.887 51.0677 132.158 51.4271 132.502 51.7344C132.851 52.0365 133.241 52.2604 133.679 52.3958C134.121 52.5313 134.564 52.5729 135.022 52.5156C139.174 52.5156 140.408 49.6615 140.408 48.2448C140.408 46.8281 139.601 46.9219 137.976 46.9427L135.564 47.0313ZM137.022 34.2604C136.799 33.6198 136.288 33.2188 135.246 33.2188C133.429 33.2188 133.371 34.5469 133.314 35.6198C133.257 36.6927 133.314 36.7604 133.314 38.3281C133.314 39.1979 133.314 40.6719 135.205 40.6719C135.772 40.7135 136.262 40.5313 136.663 40.1198C137.09 39.6875 137.147 39.3073 137.174 36.6927C137.205 35.875 137.158 35.0677 137.022 34.2604Z" fill="white"/>
</g>
<path d="M143.506 44.8959H143.11V40.3281H143.626L144.048 41.7084C144.147 42.1042 144.308 42.4688 144.527 42.8125C144.746 43.1511 145.017 43.4479 145.334 43.6979C145.652 43.9531 145.996 44.1459 146.376 44.2761C146.756 44.4115 147.152 44.4844 147.553 44.4844C147.881 44.5104 148.204 44.4688 148.517 44.3698C148.829 44.2656 149.116 44.1094 149.366 43.8959C149.621 43.6823 149.824 43.4323 149.98 43.1354C150.136 42.8438 150.23 42.5313 150.267 42.1979C150.267 40.7813 148.897 40.5 147.892 40.2917L147.011 40.1563C146.256 40.0729 145.537 39.8594 144.86 39.5156C144.329 39.1927 143.918 38.75 143.626 38.1979C143.334 37.6459 143.204 37.0573 143.23 36.4323C143.215 35.9323 143.287 35.4531 143.465 34.9896C143.636 34.5261 143.897 34.1146 144.235 33.7552C144.574 33.3959 144.975 33.1198 145.423 32.9271C145.876 32.7344 146.35 32.6354 146.84 32.6354C147.954 32.6563 148.923 33.0365 149.756 33.7813L150.267 32.8177H150.751V36.4063H150.209C150.162 35.9896 150.043 35.5886 149.85 35.2136C149.657 34.8386 149.402 34.5104 149.09 34.2292C148.777 33.9479 148.423 33.7344 148.032 33.5886C147.642 33.4375 147.235 33.3646 146.819 33.3698C146.517 33.349 146.22 33.3854 145.928 33.4792C145.642 33.5729 145.376 33.7188 145.142 33.9115C144.907 34.1042 144.715 34.3334 144.563 34.6042C144.412 34.8698 144.319 35.1563 144.272 35.4584C144.272 36.8073 146.017 36.9011 146.704 37.1042L147.735 37.2969C148.866 37.5365 151.397 37.9948 151.397 41.1719C151.418 41.7084 151.334 42.224 151.147 42.724C150.959 43.2188 150.678 43.6615 150.313 44.0469C149.944 44.4323 149.517 44.7292 149.032 44.9375C148.543 45.1459 148.037 45.25 147.506 45.25C146.246 45.224 145.152 44.7761 144.23 43.9167L143.506 44.8959Z" fill="white"/>
</svg>
