<svg width="98" height="41" viewBox="0 0 98 41" fill="none" xmlns="http://www.w3.org/2000/svg">
<mask id="mask0_16262_586" style="mask-type:alpha" maskUnits="userSpaceOnUse" x="4" y="4" width="33" height="33">
<path d="M19.7799 23.4276L33.5832 36.3898H5.97668L19.7799 23.4276Z" fill="#97179F"/>
<path d="M22.0824 17.6669L8.27909 4.41668H35.8856L22.0824 17.6669Z" fill="#97179F"/>
<path d="M18.4351 21.8917L4.60877 35.1961V8.58737L18.4351 21.8917Z" fill="#97179F"/>
<path fill-rule="evenodd" clip-rule="evenodd" d="M36.104 33.03V36.4865L21.1973 22.307L23.0019 20.4383L36.104 33.03ZM21.3404 18.8415L6.53116 4.60925L4.61084 6.52957L19.5276 20.7187L21.3404 18.8415Z" fill="#97179F"/>
</mask>
<g mask="url(#mask0_16262_586)">
<rect x="-3.80322" y="3.80164" width="47.828" height="33.4196" fill="url(#paint0_linear_16262_586)"/>
</g>
<path d="M50.9597 17.9224H45.0387V5.62606H50.9597V8.10719H47.9656V10.3276H50.7411V12.8087H47.9656V15.4076H50.9597V17.9224ZM55.7033 17.9224V5.62606H58.6302V15.4076H61.8347V17.9224H55.7033ZM66.1156 17.9224V5.62606H69.0425V17.9224H66.1156ZM78.5129 17.9224H75.6028V8.15765H73.3824V5.62606H80.7165V8.15765H78.5129V17.9224ZM90.9774 17.9224H85.0563V5.62606H90.9774V8.10719H87.9832V10.3276H90.7587V12.8087H87.9832V15.4076H90.9774V17.9224Z" fill="#00A6B2"/>
<path d="M50.4215 33.9224H45.4172V21.6261H50.4215V22.3914H46.2498V27.0845H50.1776V27.8583H46.2498V33.157H50.4215V33.9224ZM57.9405 33.9224H57.0322L54.7613 28.2873L52.2886 33.9224H51.4055L54.2988 27.5051L51.784 21.6261H52.6755L54.795 26.7565L56.9565 21.6261H57.848L55.266 27.5387L57.9405 33.9224ZM61.5571 21.6261C62.7682 21.6261 63.6682 21.8952 64.2569 22.4335C64.8456 22.9718 65.14 23.8549 65.14 25.0828C65.14 25.722 65.0643 26.2771 64.9129 26.7481C64.7671 27.2191 64.5429 27.6088 64.2401 27.9172C63.9429 28.2256 63.5644 28.4555 63.1047 28.6069C62.6505 28.7583 62.115 28.8339 61.4982 28.8339H60.2955V33.9224H59.4629V21.6261H61.5571ZM61.515 22.3746H60.2955V28.0854H61.4898C62.1178 28.0854 62.6365 27.9845 63.0458 27.7826C63.4607 27.5808 63.7719 27.2612 63.9794 26.8238C64.1868 26.3865 64.2905 25.8089 64.2905 25.0912C64.2905 24.11 64.0635 23.4119 63.6093 22.997C63.1551 22.5821 62.457 22.3746 61.515 22.3746ZM72.1713 33.9224H67.167V21.6261H72.1713V22.3914H67.9996V27.0845H71.9274V27.8583H67.9996V33.157H72.1713V33.9224ZM76.4607 21.6261C77.2625 21.6261 77.9353 21.7354 78.4792 21.9541C79.0287 22.1728 79.4408 22.526 79.7156 23.0138C79.9903 23.5016 80.1277 24.1492 80.1277 24.9567C80.1277 25.5622 80.0436 26.0921 79.8754 26.5463C79.7072 26.9948 79.4605 27.3649 79.1353 27.6565C78.81 27.948 78.4035 28.1695 77.9157 28.3209L80.6323 33.9224H79.6904L77.1419 28.5396H75.2664V33.9224H74.4337V21.6261H76.4607ZM76.427 22.383H75.2664V27.791H76.7635C77.5372 27.791 78.1484 27.5668 78.597 27.1182C79.0512 26.664 79.2782 25.9491 79.2782 24.9735C79.2782 24.0427 79.054 23.3783 78.6054 22.9802C78.1568 22.5821 77.4307 22.383 76.427 22.383ZM82.3397 33.9224V21.6261H83.1639V33.9224H82.3397ZM91.1792 30.6843C91.1792 31.402 91.0419 32.016 90.7671 32.5262C90.498 33.0308 90.1167 33.4177 89.6233 33.6869C89.1299 33.956 88.5439 34.0906 87.8655 34.0906C87.5627 34.0906 87.2571 34.071 86.9487 34.0317C86.6459 33.9981 86.3544 33.9448 86.074 33.8719C85.7993 33.799 85.5441 33.7121 85.3086 33.6112V32.7365C85.6619 32.9103 86.0656 33.0505 86.5198 33.157C86.9795 33.2579 87.4253 33.3084 87.8571 33.3084C88.3897 33.3084 88.8383 33.2047 89.2027 32.9972C89.5728 32.7841 89.8532 32.4842 90.0438 32.0973C90.2344 31.7048 90.3298 31.2506 90.3298 30.7347C90.3298 30.2357 90.2457 29.832 90.0775 29.5236C89.9148 29.2096 89.6625 28.9377 89.3205 28.7078C88.9785 28.4723 88.5383 28.2284 88 27.9761C87.63 27.7854 87.2851 27.5948 86.9655 27.4041C86.6459 27.2135 86.3684 26.9948 86.1329 26.7481C85.8974 26.5014 85.7152 26.2042 85.5862 25.8566C85.4628 25.5034 85.4012 25.08 85.4012 24.5866C85.3955 23.9194 85.5301 23.353 85.8049 22.8877C86.0796 22.4167 86.4609 22.0606 86.9487 21.8195C87.4365 21.5728 87.9916 21.4494 88.614 21.4494C89.0626 21.4494 89.4971 21.5027 89.9177 21.6092C90.3382 21.7102 90.7026 21.8419 91.011 22.0045L90.7167 22.7447C90.3466 22.5596 89.9793 22.4279 89.6149 22.3494C89.2504 22.2709 88.9168 22.2316 88.614 22.2316C88.1206 22.2316 87.6973 22.3269 87.344 22.5176C86.9908 22.7026 86.7188 22.969 86.5282 23.3166C86.3431 23.6642 86.2506 24.082 86.2506 24.5698C86.2506 25.08 86.3403 25.4977 86.5198 25.823C86.7048 26.1426 86.9655 26.4173 87.302 26.6472C87.644 26.8715 88.0477 27.093 88.5131 27.3116C89.0794 27.592 89.5616 27.8723 89.9597 28.1527C90.3578 28.4274 90.6606 28.7639 90.868 29.162C91.0755 29.5545 91.1792 30.0619 91.1792 30.6843Z" fill="white"/>
<defs>
<linearGradient id="paint0_linear_16262_586" x1="33.6924" y1="11.3466" x2="3.00077" y2="32.8187" gradientUnits="userSpaceOnUse">
<stop offset="0.1" stop-color="#00A6B2"/>
<stop offset="0.954956" stop-color="#A3DB21"/>
</linearGradient>
</defs>
</svg>
