<svg width="265" height="48" viewBox="0 0 265 48" fill="none" xmlns="http://www.w3.org/2000/svg">
<rect width="265" height="48" rx="24" fill="#00A6B2"/>
<path d="M23.528 22.836H30.008V24.366H23.528V22.836ZM23.69 28.434H31.034V30H21.89V17.4H30.782V18.966H23.69V28.434ZM32.0997 30L36.2037 24.672L36.1857 25.554L32.2797 20.46H34.2057L37.1937 24.384H36.4557L39.4437 20.46H41.3337L37.3737 25.59L37.3917 24.672L41.5317 30H39.5697L36.4197 25.824L37.1217 25.932L34.0257 30H32.0997ZM48.4753 30.108C47.6833 30.108 46.9573 29.928 46.2973 29.568C45.6493 29.196 45.1273 28.65 44.7313 27.93C44.3473 27.21 44.1553 26.31 44.1553 25.23C44.1553 24.15 44.3413 23.25 44.7133 22.53C45.0973 21.81 45.6133 21.27 46.2613 20.91C46.9213 20.55 47.6593 20.37 48.4753 20.37C49.4113 20.37 50.2393 20.574 50.9593 20.982C51.6793 21.39 52.2493 21.96 52.6693 22.692C53.0893 23.412 53.2993 24.258 53.2993 25.23C53.2993 26.202 53.0893 27.054 52.6693 27.786C52.2493 28.518 51.6793 29.088 50.9593 29.496C50.2393 29.904 49.4113 30.108 48.4753 30.108ZM43.4173 33.492V20.46H45.0733V23.034L44.9653 25.248L45.1453 27.462V33.492H43.4173ZM48.3313 28.596C48.9433 28.596 49.4893 28.458 49.9693 28.182C50.4613 27.906 50.8453 27.516 51.1213 27.012C51.4093 26.496 51.5533 25.902 51.5533 25.23C51.5533 24.546 51.4093 23.958 51.1213 23.466C50.8453 22.962 50.4613 22.572 49.9693 22.296C49.4893 22.02 48.9433 21.882 48.3313 21.882C47.7313 21.882 47.1853 22.02 46.6933 22.296C46.2133 22.572 45.8293 22.962 45.5413 23.466C45.2653 23.958 45.1273 24.546 45.1273 25.23C45.1273 25.902 45.2653 26.496 45.5413 27.012C45.8293 27.516 46.2133 27.906 46.6933 28.182C47.1853 28.458 47.7313 28.596 48.3313 28.596ZM55.6868 30V16.644H57.4148V30H55.6868ZM64.8002 30.108C63.8402 30.108 62.9882 29.898 62.2442 29.478C61.5002 29.058 60.9122 28.482 60.4802 27.75C60.0482 27.006 59.8322 26.166 59.8322 25.23C59.8322 24.282 60.0482 23.442 60.4802 22.71C60.9122 21.978 61.5002 21.408 62.2442 21C62.9882 20.58 63.8402 20.37 64.8002 20.37C65.7482 20.37 66.5942 20.58 67.3382 21C68.0942 21.408 68.6822 21.978 69.1022 22.71C69.5342 23.43 69.7502 24.27 69.7502 25.23C69.7502 26.178 69.5342 27.018 69.1022 27.75C68.6822 28.482 68.0942 29.058 67.3382 29.478C66.5942 29.898 65.7482 30.108 64.8002 30.108ZM64.8002 28.596C65.4122 28.596 65.9582 28.458 66.4382 28.182C66.9302 27.906 67.3142 27.516 67.5902 27.012C67.8662 26.496 68.0042 25.902 68.0042 25.23C68.0042 24.546 67.8662 23.958 67.5902 23.466C67.3142 22.962 66.9302 22.572 66.4382 22.296C65.9582 22.02 65.4122 21.882 64.8002 21.882C64.1882 21.882 63.6422 22.02 63.1622 22.296C62.6822 22.572 62.2982 22.962 62.0102 23.466C61.7222 23.958 61.5782 24.546 61.5782 25.23C61.5782 25.902 61.7222 26.496 62.0102 27.012C62.2982 27.516 62.6822 27.906 63.1622 28.182C63.6422 28.458 64.1882 28.596 64.8002 28.596ZM72.14 30V20.46H73.796V23.052L73.634 22.404C73.898 21.744 74.342 21.24 74.966 20.892C75.59 20.544 76.358 20.37 77.27 20.37V22.044C77.198 22.032 77.126 22.026 77.054 22.026C76.994 22.026 76.934 22.026 76.874 22.026C75.95 22.026 75.218 22.302 74.678 22.854C74.138 23.406 73.868 24.204 73.868 25.248V30H72.14ZM83.5598 30.108C82.5398 30.108 81.6398 29.898 80.8598 29.478C80.0918 29.058 79.4918 28.482 79.0598 27.75C78.6398 27.018 78.4298 26.178 78.4298 25.23C78.4298 24.282 78.6338 23.442 79.0418 22.71C79.4618 21.978 80.0318 21.408 80.7518 21C81.4838 20.58 82.3058 20.37 83.2178 20.37C84.1418 20.37 84.9578 20.574 85.6658 20.982C86.3738 21.39 86.9258 21.966 87.3218 22.71C87.7298 23.442 87.9338 24.3 87.9338 25.284C87.9338 25.356 87.9278 25.44 87.9158 25.536C87.9158 25.632 87.9098 25.722 87.8978 25.806H79.7798V24.564H86.9978L86.2958 24.996C86.3078 24.384 86.1818 23.838 85.9178 23.358C85.6538 22.878 85.2878 22.506 84.8198 22.242C84.3638 21.966 83.8298 21.828 83.2178 21.828C82.6178 21.828 82.0838 21.966 81.6158 22.242C81.1478 22.506 80.7818 22.884 80.5178 23.376C80.2538 23.856 80.1218 24.408 80.1218 25.032V25.32C80.1218 25.956 80.2658 26.526 80.5538 27.03C80.8538 27.522 81.2678 27.906 81.7958 28.182C82.3238 28.458 82.9298 28.596 83.6138 28.596C84.1778 28.596 84.6878 28.5 85.1438 28.308C85.6118 28.116 86.0198 27.828 86.3678 27.444L87.3218 28.56C86.8898 29.064 86.3498 29.448 85.7018 29.712C85.0658 29.976 84.3518 30.108 83.5598 30.108ZM101.107 30.144C100.147 30.144 99.2533 29.982 98.4253 29.658C97.6093 29.334 96.9013 28.884 96.3013 28.308C95.7013 27.72 95.2333 27.036 94.8973 26.256C94.5613 25.476 94.3933 24.624 94.3933 23.7C94.3933 22.776 94.5613 21.924 94.8973 21.144C95.2333 20.364 95.7013 19.686 96.3013 19.11C96.9013 18.522 97.6093 18.066 98.4253 17.742C99.2413 17.418 100.135 17.256 101.107 17.256C102.067 17.256 102.949 17.418 103.753 17.742C104.569 18.054 105.277 18.504 105.877 19.092C106.489 19.668 106.957 20.346 107.281 21.126C107.617 21.906 107.785 22.764 107.785 23.7C107.785 24.636 107.617 25.494 107.281 26.274C106.957 27.054 106.489 27.738 105.877 28.326C105.277 28.902 104.569 29.352 103.753 29.676C102.949 29.988 102.067 30.144 101.107 30.144ZM101.107 28.542C101.803 28.542 102.445 28.422 103.033 28.182C103.633 27.942 104.149 27.606 104.581 27.174C105.025 26.73 105.367 26.214 105.607 25.626C105.859 25.038 105.985 24.396 105.985 23.7C105.985 23.004 105.859 22.362 105.607 21.774C105.367 21.186 105.025 20.676 104.581 20.244C104.149 19.8 103.633 19.458 103.033 19.218C102.445 18.978 101.803 18.858 101.107 18.858C100.399 18.858 99.7453 18.978 99.1453 19.218C98.5573 19.458 98.0413 19.8 97.5973 20.244C97.1533 20.676 96.8053 21.186 96.5533 21.774C96.3133 22.362 96.1933 23.004 96.1933 23.7C96.1933 24.396 96.3133 25.038 96.5533 25.626C96.8053 26.214 97.1533 26.73 97.5973 27.174C98.0413 27.606 98.5573 27.942 99.1453 28.182C99.7453 28.422 100.399 28.542 101.107 28.542ZM114.298 30.108C113.482 30.108 112.762 29.958 112.138 29.658C111.526 29.358 111.046 28.902 110.698 28.29C110.362 27.666 110.194 26.886 110.194 25.95V20.46H111.922V25.752C111.922 26.688 112.144 27.39 112.588 27.858C113.044 28.326 113.68 28.56 114.496 28.56C115.096 28.56 115.618 28.44 116.062 28.2C116.506 27.948 116.848 27.588 117.088 27.12C117.328 26.64 117.448 26.064 117.448 25.392V20.46H119.176V30H117.538V27.426L117.808 28.11C117.496 28.746 117.028 29.238 116.404 29.586C115.78 29.934 115.078 30.108 114.298 30.108ZM122.466 30V20.46H124.122V23.052L123.96 22.404C124.224 21.744 124.668 21.24 125.292 20.892C125.916 20.544 126.684 20.37 127.596 20.37V22.044C127.524 22.032 127.452 22.026 127.38 22.026C127.32 22.026 127.26 22.026 127.2 22.026C126.276 22.026 125.544 22.302 125.004 22.854C124.464 23.406 124.194 24.204 124.194 25.248V30H122.466ZM138.607 30.144C137.647 30.144 136.729 30 135.853 29.712C134.977 29.412 134.287 29.028 133.783 28.56L134.449 27.156C134.929 27.576 135.541 27.924 136.285 28.2C137.029 28.476 137.803 28.614 138.607 28.614C139.339 28.614 139.933 28.53 140.389 28.362C140.845 28.194 141.181 27.966 141.397 27.678C141.613 27.378 141.721 27.042 141.721 26.67C141.721 26.238 141.577 25.89 141.289 25.626C141.013 25.362 140.647 25.152 140.191 24.996C139.747 24.828 139.255 24.684 138.715 24.564C138.175 24.444 137.629 24.306 137.077 24.15C136.537 23.982 136.039 23.772 135.583 23.52C135.139 23.268 134.779 22.932 134.503 22.512C134.227 22.08 134.089 21.528 134.089 20.856C134.089 20.208 134.257 19.614 134.593 19.074C134.941 18.522 135.469 18.084 136.177 17.76C136.897 17.424 137.809 17.256 138.913 17.256C139.645 17.256 140.371 17.352 141.091 17.544C141.811 17.736 142.435 18.012 142.963 18.372L142.369 19.812C141.829 19.452 141.259 19.194 140.659 19.038C140.059 18.87 139.477 18.786 138.913 18.786C138.205 18.786 137.623 18.876 137.167 19.056C136.711 19.236 136.375 19.476 136.159 19.776C135.955 20.076 135.853 20.412 135.853 20.784C135.853 21.228 135.991 21.582 136.267 21.846C136.555 22.11 136.921 22.32 137.365 22.476C137.821 22.632 138.319 22.776 138.859 22.908C139.399 23.028 139.939 23.166 140.479 23.322C141.031 23.478 141.529 23.682 141.973 23.934C142.429 24.186 142.795 24.522 143.071 24.942C143.347 25.362 143.485 25.902 143.485 26.562C143.485 27.198 143.311 27.792 142.963 28.344C142.615 28.884 142.075 29.322 141.343 29.658C140.623 29.982 139.711 30.144 138.607 30.144ZM150.111 30.108C149.091 30.108 148.191 29.898 147.411 29.478C146.643 29.058 146.043 28.482 145.611 27.75C145.191 27.018 144.981 26.178 144.981 25.23C144.981 24.282 145.185 23.442 145.593 22.71C146.013 21.978 146.583 21.408 147.303 21C148.035 20.58 148.857 20.37 149.769 20.37C150.693 20.37 151.509 20.574 152.217 20.982C152.925 21.39 153.477 21.966 153.873 22.71C154.281 23.442 154.485 24.3 154.485 25.284C154.485 25.356 154.479 25.44 154.467 25.536C154.467 25.632 154.461 25.722 154.449 25.806H146.331V24.564H153.549L152.847 24.996C152.859 24.384 152.733 23.838 152.469 23.358C152.205 22.878 151.839 22.506 151.371 22.242C150.915 21.966 150.381 21.828 149.769 21.828C149.169 21.828 148.635 21.966 148.167 22.242C147.699 22.506 147.333 22.884 147.069 23.376C146.805 23.856 146.673 24.408 146.673 25.032V25.32C146.673 25.956 146.817 26.526 147.105 27.03C147.405 27.522 147.819 27.906 148.347 28.182C148.875 28.458 149.481 28.596 150.165 28.596C150.729 28.596 151.239 28.5 151.695 28.308C152.163 28.116 152.571 27.828 152.919 27.444L153.873 28.56C153.441 29.064 152.901 29.448 152.253 29.712C151.617 29.976 150.903 30.108 150.111 30.108ZM156.884 30V20.46H158.54V23.052L158.378 22.404C158.642 21.744 159.086 21.24 159.71 20.892C160.334 20.544 161.102 20.37 162.014 20.37V22.044C161.942 22.032 161.87 22.026 161.798 22.026C161.738 22.026 161.678 22.026 161.618 22.026C160.694 22.026 159.962 22.302 159.422 22.854C158.882 23.406 158.612 24.204 158.612 25.248V30H156.884ZM167.033 30L162.857 20.46H164.657L168.365 29.1H167.501L171.281 20.46H172.973L168.797 30H167.033ZM174.585 30V20.46H176.313V30H174.585ZM175.449 18.624C175.113 18.624 174.831 18.516 174.603 18.3C174.387 18.084 174.279 17.82 174.279 17.508C174.279 17.184 174.387 16.914 174.603 16.698C174.831 16.482 175.113 16.374 175.449 16.374C175.785 16.374 176.061 16.482 176.277 16.698C176.505 16.902 176.619 17.16 176.619 17.472C176.619 17.796 176.511 18.072 176.295 18.3C176.079 18.516 175.797 18.624 175.449 18.624ZM183.771 30.108C182.799 30.108 181.929 29.898 181.161 29.478C180.405 29.058 179.811 28.482 179.379 27.75C178.947 27.018 178.731 26.178 178.731 25.23C178.731 24.282 178.947 23.442 179.379 22.71C179.811 21.978 180.405 21.408 181.161 21C181.929 20.58 182.799 20.37 183.771 20.37C184.635 20.37 185.403 20.544 186.075 20.892C186.759 21.228 187.287 21.732 187.659 22.404L186.345 23.25C186.033 22.782 185.649 22.44 185.193 22.224C184.749 21.996 184.269 21.882 183.753 21.882C183.129 21.882 182.571 22.02 182.079 22.296C181.587 22.572 181.197 22.962 180.909 23.466C180.621 23.958 180.477 24.546 180.477 25.23C180.477 25.914 180.621 26.508 180.909 27.012C181.197 27.516 181.587 27.906 182.079 28.182C182.571 28.458 183.129 28.596 183.753 28.596C184.269 28.596 184.749 28.488 185.193 28.272C185.649 28.044 186.033 27.696 186.345 27.228L187.659 28.056C187.287 28.716 186.759 29.226 186.075 29.586C185.403 29.934 184.635 30.108 183.771 30.108ZM194.003 30.108C192.983 30.108 192.083 29.898 191.303 29.478C190.535 29.058 189.935 28.482 189.503 27.75C189.083 27.018 188.873 26.178 188.873 25.23C188.873 24.282 189.077 23.442 189.485 22.71C189.905 21.978 190.475 21.408 191.195 21C191.927 20.58 192.749 20.37 193.661 20.37C194.585 20.37 195.401 20.574 196.109 20.982C196.817 21.39 197.369 21.966 197.765 22.71C198.173 23.442 198.377 24.3 198.377 25.284C198.377 25.356 198.371 25.44 198.359 25.536C198.359 25.632 198.353 25.722 198.341 25.806H190.223V24.564H197.441L196.739 24.996C196.751 24.384 196.625 23.838 196.361 23.358C196.097 22.878 195.731 22.506 195.263 22.242C194.807 21.966 194.273 21.828 193.661 21.828C193.061 21.828 192.527 21.966 192.059 22.242C191.591 22.506 191.225 22.884 190.961 23.376C190.697 23.856 190.565 24.408 190.565 25.032V25.32C190.565 25.956 190.709 26.526 190.997 27.03C191.297 27.522 191.711 27.906 192.239 28.182C192.767 28.458 193.373 28.596 194.057 28.596C194.621 28.596 195.131 28.5 195.587 28.308C196.055 28.116 196.463 27.828 196.811 27.444L197.765 28.56C197.333 29.064 196.793 29.448 196.145 29.712C195.509 29.976 194.795 30.108 194.003 30.108ZM203.513 30.108C202.721 30.108 201.965 30 201.245 29.784C200.537 29.568 199.979 29.304 199.571 28.992L200.291 27.624C200.699 27.9 201.203 28.134 201.803 28.326C202.403 28.518 203.015 28.614 203.639 28.614C204.443 28.614 205.019 28.5 205.367 28.272C205.727 28.044 205.907 27.726 205.907 27.318C205.907 27.018 205.799 26.784 205.583 26.616C205.367 26.448 205.079 26.322 204.719 26.238C204.371 26.154 203.981 26.082 203.549 26.022C203.117 25.95 202.685 25.866 202.253 25.77C201.821 25.662 201.425 25.518 201.065 25.338C200.705 25.146 200.417 24.888 200.201 24.564C199.985 24.228 199.877 23.784 199.877 23.232C199.877 22.656 200.039 22.152 200.363 21.72C200.687 21.288 201.143 20.958 201.731 20.73C202.331 20.49 203.039 20.37 203.855 20.37C204.479 20.37 205.109 20.448 205.745 20.604C206.393 20.748 206.921 20.958 207.329 21.234L206.591 22.602C206.159 22.314 205.709 22.116 205.241 22.008C204.773 21.9 204.305 21.846 203.837 21.846C203.081 21.846 202.517 21.972 202.145 22.224C201.773 22.464 201.587 22.776 201.587 23.16C201.587 23.484 201.695 23.736 201.911 23.916C202.139 24.084 202.427 24.216 202.775 24.312C203.135 24.408 203.531 24.492 203.963 24.564C204.395 24.624 204.827 24.708 205.259 24.816C205.691 24.912 206.081 25.05 206.429 25.23C206.789 25.41 207.077 25.662 207.293 25.986C207.521 26.31 207.635 26.742 207.635 27.282C207.635 27.858 207.467 28.356 207.131 28.776C206.795 29.196 206.321 29.526 205.709 29.766C205.097 29.994 204.365 30.108 203.513 30.108Z" fill="white"/>
<path d="M240 24H226" stroke="white" stroke-width="1.5" stroke-linecap="round" stroke-linejoin="round"/>
<path d="M235 29L240 24" stroke="white" stroke-width="1.5" stroke-linecap="round" stroke-linejoin="round"/>
<path d="M235 19L240 24" stroke="white" stroke-width="1.5" stroke-linecap="round" stroke-linejoin="round"/>
</svg>
