<svg width="93" height="70" viewBox="0 0 93 70" fill="none" xmlns="http://www.w3.org/2000/svg">
<path d="M74.4151 69.2963C66.7991 69.2963 61.3591 66.8483 58.0951 61.9523C54.8311 56.875 53.1991 51.5256 53.1991 45.9043C53.1991 41.1896 53.9244 36.2936 55.3751 31.2163C56.8257 25.9576 59.0924 20.971 62.1751 16.2563C65.2577 11.5416 69.2471 7.73364 74.1431 4.8323C79.2204 1.93097 85.2951 0.480305 92.3671 0.480305C92.5484 0.480305 92.5484 1.20564 92.3671 2.65631C92.3671 4.10697 92.3671 5.6483 92.3671 7.2803C92.3671 8.73097 92.3671 9.4563 92.3671 9.4563C92.3671 9.4563 91.3697 9.81897 89.3751 10.5443C87.3804 11.0883 85.0231 12.267 82.3031 14.0803C79.5831 15.7123 77.2257 18.0696 75.2311 21.1523C73.2364 24.235 72.2391 28.2243 72.2391 33.1203C72.6017 32.939 73.0551 32.8483 73.5991 32.8483C74.1431 32.8483 74.5964 32.8483 74.9591 32.8483C80.2177 32.8483 84.3884 34.4803 87.4711 37.7443C90.7351 41.0083 92.3671 45.179 92.3671 50.2563C92.3671 55.8776 90.6444 60.5016 87.1991 64.1283C83.9351 67.5736 79.6737 69.2963 74.4151 69.2963ZM21.9191 69.2963C14.3031 69.2963 8.86307 66.8483 5.59907 61.9523C2.33507 56.875 0.703074 51.5256 0.703074 45.9043C0.703074 41.1896 1.42841 36.2936 2.87907 31.2163C4.32974 25.9576 6.59641 20.971 9.67907 16.2563C12.7617 11.5416 16.7511 7.73364 21.6471 4.8323C26.7244 1.93097 32.7991 0.480305 39.8711 0.480305C40.0524 0.480305 40.0524 1.20564 39.8711 2.65631C39.8711 4.10697 39.8711 5.6483 39.8711 7.2803C39.8711 8.73097 39.8711 9.4563 39.8711 9.4563C39.8711 9.4563 38.8737 9.81897 36.8791 10.5443C34.8844 11.0883 32.5271 12.267 29.8071 14.0803C27.0871 15.7123 24.7297 18.0696 22.7351 21.1523C20.7404 24.235 19.7431 28.2243 19.7431 33.1203C20.1057 32.939 20.5591 32.8483 21.1031 32.8483C21.6471 32.8483 22.1004 32.8483 22.4631 32.8483C27.7217 32.8483 31.8924 34.4803 34.9751 37.7443C38.2391 41.0083 39.8711 45.179 39.8711 50.2563C39.8711 55.8776 38.1484 60.5016 34.7031 64.1283C31.4391 67.5736 27.1777 69.2963 21.9191 69.2963Z" fill="white"/>
</svg>
