<svg width="225" height="37" viewBox="0 0 225 37" fill="none" xmlns="http://www.w3.org/2000/svg">
<rect x="0.5" y="1" width="224" height="35" rx="17.5" fill="#1B2B3A"/>
<rect x="0.5" y="1" width="224" height="35" rx="17.5" stroke="#F9F9F9"/>
<path d="M14.1809 24.5V11.9H19.3109C20.6549 11.9 21.8309 12.17 22.8389 12.71C23.8589 13.238 24.6509 13.976 25.2149 14.924C25.7789 15.872 26.0609 16.964 26.0609 18.2C26.0609 19.436 25.7789 20.528 25.2149 21.476C24.6509 22.424 23.8589 23.168 22.8389 23.708C21.8309 24.236 20.6549 24.5 19.3109 24.5H14.1809ZM15.5129 23.348H19.2389C20.3549 23.348 21.3209 23.132 22.1369 22.7C22.9649 22.256 23.6069 21.65 24.0629 20.882C24.5189 20.102 24.7469 19.208 24.7469 18.2C24.7469 17.18 24.5189 16.286 24.0629 15.518C23.6069 14.75 22.9649 14.15 22.1369 13.718C21.3209 13.274 20.3549 13.052 19.2389 13.052H15.5129V23.348ZM34.704 24.5V22.412L34.65 22.07V18.578C34.65 17.774 34.422 17.156 33.966 16.724C33.522 16.292 32.856 16.076 31.968 16.076C31.356 16.076 30.774 16.178 30.222 16.382C29.67 16.586 29.202 16.856 28.818 17.192L28.242 16.238C28.722 15.83 29.298 15.518 29.97 15.302C30.642 15.074 31.35 14.96 32.094 14.96C33.318 14.96 34.26 15.266 34.92 15.878C35.592 16.478 35.928 17.396 35.928 18.632V24.5H34.704ZM31.446 24.59C30.738 24.59 30.12 24.476 29.592 24.248C29.076 24.008 28.68 23.684 28.404 23.276C28.128 22.856 27.99 22.376 27.99 21.836C27.99 21.344 28.104 20.9 28.332 20.504C28.572 20.096 28.956 19.772 29.484 19.532C30.024 19.28 30.744 19.154 31.644 19.154H34.902V20.108H31.68C30.768 20.108 30.132 20.27 29.772 20.594C29.424 20.918 29.25 21.32 29.25 21.8C29.25 22.34 29.46 22.772 29.88 23.096C30.3 23.42 30.888 23.582 31.644 23.582C32.364 23.582 32.982 23.42 33.498 23.096C34.026 22.76 34.41 22.28 34.65 21.656L34.938 22.538C34.698 23.162 34.278 23.66 33.678 24.032C33.09 24.404 32.346 24.59 31.446 24.59ZM42.3872 24.59C41.4992 24.59 40.8152 24.35 40.3352 23.87C39.8552 23.39 39.6152 22.712 39.6152 21.836V12.962H40.8932V21.764C40.8932 22.316 41.0312 22.742 41.3072 23.042C41.5952 23.342 42.0032 23.492 42.5312 23.492C43.0952 23.492 43.5632 23.33 43.9352 23.006L44.3852 23.924C44.1332 24.152 43.8272 24.32 43.4672 24.428C43.1192 24.536 42.7592 24.59 42.3872 24.59ZM37.9232 16.112V15.05H43.7732V16.112H37.9232ZM52.6337 24.5V22.412L52.5797 22.07V18.578C52.5797 17.774 52.3517 17.156 51.8957 16.724C51.4517 16.292 50.7857 16.076 49.8977 16.076C49.2857 16.076 48.7037 16.178 48.1517 16.382C47.5997 16.586 47.1317 16.856 46.7477 17.192L46.1717 16.238C46.6517 15.83 47.2277 15.518 47.8997 15.302C48.5717 15.074 49.2797 14.96 50.0237 14.96C51.2477 14.96 52.1897 15.266 52.8497 15.878C53.5217 16.478 53.8577 17.396 53.8577 18.632V24.5H52.6337ZM49.3757 24.59C48.6677 24.59 48.0497 24.476 47.5217 24.248C47.0057 24.008 46.6097 23.684 46.3337 23.276C46.0577 22.856 45.9197 22.376 45.9197 21.836C45.9197 21.344 46.0337 20.9 46.2617 20.504C46.5017 20.096 46.8857 19.772 47.4137 19.532C47.9537 19.28 48.6737 19.154 49.5737 19.154H52.8317V20.108H49.6097C48.6977 20.108 48.0617 20.27 47.7017 20.594C47.3537 20.918 47.1797 21.32 47.1797 21.8C47.1797 22.34 47.3897 22.772 47.8097 23.096C48.2297 23.42 48.8177 23.582 49.5737 23.582C50.2937 23.582 50.9117 23.42 51.4277 23.096C51.9557 22.76 52.3397 22.28 52.5797 21.656L52.8677 22.538C52.6277 23.162 52.2077 23.66 51.6077 24.032C51.0197 24.404 50.2757 24.59 49.3757 24.59ZM56.6269 20.18V19.064H61.3429V20.18H56.6269ZM64.4719 24.5V11.9H69.6019C70.9459 11.9 72.1219 12.17 73.1299 12.71C74.1499 13.238 74.9419 13.976 75.5059 14.924C76.0699 15.872 76.3519 16.964 76.3519 18.2C76.3519 19.436 76.0699 20.528 75.5059 21.476C74.9419 22.424 74.1499 23.168 73.1299 23.708C72.1219 24.236 70.9459 24.5 69.6019 24.5H64.4719ZM65.8039 23.348H69.5299C70.6459 23.348 71.6119 23.132 72.4279 22.7C73.2559 22.256 73.8979 21.65 74.3539 20.882C74.8099 20.102 75.0379 19.208 75.0379 18.2C75.0379 17.18 74.8099 16.286 74.3539 15.518C73.8979 14.75 73.2559 14.15 72.4279 13.718C71.6119 13.274 70.6459 13.052 69.5299 13.052H65.8039V23.348ZM79.073 24.5V15.05H80.297V17.624L80.171 17.174C80.435 16.454 80.879 15.908 81.503 15.536C82.127 15.152 82.901 14.96 83.825 14.96V16.202C83.777 16.202 83.729 16.202 83.681 16.202C83.633 16.19 83.585 16.184 83.537 16.184C82.541 16.184 81.761 16.49 81.197 17.102C80.633 17.702 80.351 18.56 80.351 19.676V24.5H79.073ZM86.157 24.5V15.05H87.435V24.5H86.157ZM86.805 12.962C86.541 12.962 86.319 12.872 86.139 12.692C85.959 12.512 85.869 12.296 85.869 12.044C85.869 11.792 85.959 11.582 86.139 11.414C86.319 11.234 86.541 11.144 86.805 11.144C87.069 11.144 87.291 11.228 87.471 11.396C87.651 11.564 87.741 11.774 87.741 12.026C87.741 12.29 87.651 12.512 87.471 12.692C87.303 12.872 87.081 12.962 86.805 12.962ZM93.421 24.5L89.227 15.05H90.559L94.411 23.816H93.781L97.687 15.05H98.947L94.735 24.5H93.421ZM104.497 24.59C103.513 24.59 102.649 24.386 101.905 23.978C101.161 23.558 100.579 22.988 100.159 22.268C99.7392 21.536 99.5292 20.702 99.5292 19.766C99.5292 18.83 99.7272 18.002 100.123 17.282C100.531 16.562 101.083 15.998 101.779 15.59C102.487 15.17 103.279 14.96 104.155 14.96C105.043 14.96 105.829 15.164 106.513 15.572C107.209 15.968 107.755 16.532 108.151 17.264C108.547 17.984 108.745 18.818 108.745 19.766C108.745 19.826 108.739 19.892 108.727 19.964C108.727 20.024 108.727 20.09 108.727 20.162H100.501V19.208H108.043L107.539 19.586C107.539 18.902 107.389 18.296 107.089 17.768C106.801 17.228 106.405 16.808 105.901 16.508C105.397 16.208 104.815 16.058 104.155 16.058C103.507 16.058 102.925 16.208 102.409 16.508C101.893 16.808 101.491 17.228 101.203 17.768C100.915 18.308 100.771 18.926 100.771 19.622V19.82C100.771 20.54 100.927 21.176 101.239 21.728C101.563 22.268 102.007 22.694 102.571 23.006C103.147 23.306 103.801 23.456 104.533 23.456C105.109 23.456 105.643 23.354 106.135 23.15C106.639 22.946 107.071 22.634 107.431 22.214L108.151 23.042C107.731 23.546 107.203 23.93 106.567 24.194C105.943 24.458 105.253 24.59 104.497 24.59ZM116.17 14.96C116.938 14.96 117.61 15.11 118.186 15.41C118.774 15.698 119.23 16.142 119.554 16.742C119.89 17.342 120.058 18.098 120.058 19.01V24.5H118.78V19.136C118.78 18.14 118.528 17.39 118.024 16.886C117.532 16.37 116.836 16.112 115.936 16.112C115.264 16.112 114.676 16.25 114.172 16.526C113.68 16.79 113.296 17.18 113.02 17.696C112.756 18.2 112.624 18.812 112.624 19.532V24.5H111.346V15.05H112.57V17.642L112.372 17.156C112.672 16.472 113.152 15.938 113.812 15.554C114.472 15.158 115.258 14.96 116.17 14.96ZM128.491 24.5V11.9H133.621C134.965 11.9 136.141 12.17 137.149 12.71C138.169 13.238 138.961 13.976 139.525 14.924C140.089 15.872 140.371 16.964 140.371 18.2C140.371 19.436 140.089 20.528 139.525 21.476C138.961 22.424 138.169 23.168 137.149 23.708C136.141 24.236 134.965 24.5 133.621 24.5H128.491ZM129.823 23.348H133.549C134.665 23.348 135.631 23.132 136.447 22.7C137.275 22.256 137.917 21.65 138.373 20.882C138.829 20.102 139.057 19.208 139.057 18.2C139.057 17.18 138.829 16.286 138.373 15.518C137.917 14.75 137.275 14.15 136.447 13.718C135.631 13.274 134.665 13.052 133.549 13.052H129.823V23.348ZM147.107 24.59C146.123 24.59 145.259 24.386 144.515 23.978C143.771 23.558 143.189 22.988 142.769 22.268C142.349 21.536 142.139 20.702 142.139 19.766C142.139 18.83 142.337 18.002 142.733 17.282C143.141 16.562 143.693 15.998 144.389 15.59C145.097 15.17 145.889 14.96 146.765 14.96C147.653 14.96 148.439 15.164 149.123 15.572C149.819 15.968 150.365 16.532 150.761 17.264C151.157 17.984 151.355 18.818 151.355 19.766C151.355 19.826 151.349 19.892 151.337 19.964C151.337 20.024 151.337 20.09 151.337 20.162H143.111V19.208H150.653L150.149 19.586C150.149 18.902 149.999 18.296 149.699 17.768C149.411 17.228 149.015 16.808 148.511 16.508C148.007 16.208 147.425 16.058 146.765 16.058C146.117 16.058 145.535 16.208 145.019 16.508C144.503 16.808 144.101 17.228 143.813 17.768C143.525 18.308 143.381 18.926 143.381 19.622V19.82C143.381 20.54 143.537 21.176 143.849 21.728C144.173 22.268 144.617 22.694 145.181 23.006C145.757 23.306 146.411 23.456 147.143 23.456C147.719 23.456 148.253 23.354 148.745 23.15C149.249 22.946 149.681 22.634 150.041 22.214L150.761 23.042C150.341 23.546 149.813 23.93 149.177 24.194C148.553 24.458 147.863 24.59 147.107 24.59ZM157.88 24.59C156.944 24.59 156.104 24.386 155.36 23.978C154.628 23.558 154.052 22.988 153.632 22.268C153.212 21.536 153.002 20.702 153.002 19.766C153.002 18.818 153.212 17.984 153.632 17.264C154.052 16.544 154.628 15.98 155.36 15.572C156.104 15.164 156.944 14.96 157.88 14.96C158.684 14.96 159.41 15.116 160.058 15.428C160.706 15.74 161.216 16.208 161.588 16.832L160.634 17.48C160.31 17 159.908 16.646 159.428 16.418C158.948 16.19 158.426 16.076 157.862 16.076C157.19 16.076 156.584 16.232 156.044 16.544C155.504 16.844 155.078 17.27 154.766 17.822C154.454 18.374 154.298 19.022 154.298 19.766C154.298 20.51 154.454 21.158 154.766 21.71C155.078 22.262 155.504 22.694 156.044 23.006C156.584 23.306 157.19 23.456 157.862 23.456C158.426 23.456 158.948 23.342 159.428 23.114C159.908 22.886 160.31 22.538 160.634 22.07L161.588 22.718C161.216 23.33 160.706 23.798 160.058 24.122C159.41 24.434 158.684 24.59 157.88 24.59ZM163.958 24.5V15.05H165.236V24.5H163.958ZM164.606 12.962C164.342 12.962 164.12 12.872 163.94 12.692C163.76 12.512 163.67 12.296 163.67 12.044C163.67 11.792 163.76 11.582 163.94 11.414C164.12 11.234 164.342 11.144 164.606 11.144C164.87 11.144 165.092 11.228 165.272 11.396C165.452 11.564 165.542 11.774 165.542 12.026C165.542 12.29 165.452 12.512 165.272 12.692C165.104 12.872 164.882 12.962 164.606 12.962ZM171.33 24.59C170.55 24.59 169.812 24.482 169.116 24.266C168.42 24.038 167.874 23.756 167.478 23.42L168.054 22.412C168.438 22.7 168.93 22.952 169.53 23.168C170.13 23.372 170.76 23.474 171.42 23.474C172.32 23.474 172.968 23.336 173.364 23.06C173.76 22.772 173.958 22.394 173.958 21.926C173.958 21.578 173.844 21.308 173.616 21.116C173.4 20.912 173.112 20.762 172.752 20.666C172.392 20.558 171.99 20.468 171.546 20.396C171.102 20.324 170.658 20.24 170.214 20.144C169.782 20.048 169.386 19.91 169.026 19.73C168.666 19.538 168.372 19.28 168.144 18.956C167.928 18.632 167.82 18.2 167.82 17.66C167.82 17.144 167.964 16.682 168.252 16.274C168.54 15.866 168.96 15.548 169.512 15.32C170.076 15.08 170.76 14.96 171.564 14.96C172.176 14.96 172.788 15.044 173.4 15.212C174.012 15.368 174.516 15.578 174.912 15.842L174.354 16.868C173.934 16.58 173.484 16.376 173.004 16.256C172.524 16.124 172.044 16.058 171.564 16.058C170.712 16.058 170.082 16.208 169.674 16.508C169.278 16.796 169.08 17.168 169.08 17.624C169.08 17.984 169.188 18.266 169.404 18.47C169.632 18.674 169.926 18.836 170.286 18.956C170.658 19.064 171.06 19.154 171.492 19.226C171.936 19.298 172.374 19.388 172.806 19.496C173.25 19.592 173.652 19.73 174.012 19.91C174.384 20.078 174.678 20.324 174.894 20.648C175.122 20.96 175.236 21.374 175.236 21.89C175.236 22.442 175.08 22.922 174.768 23.33C174.468 23.726 174.024 24.038 173.436 24.266C172.86 24.482 172.158 24.59 171.33 24.59ZM177.581 24.5V15.05H178.859V24.5H177.581ZM178.229 12.962C177.965 12.962 177.743 12.872 177.563 12.692C177.383 12.512 177.293 12.296 177.293 12.044C177.293 11.792 177.383 11.582 177.563 11.414C177.743 11.234 177.965 11.144 178.229 11.144C178.493 11.144 178.715 11.228 178.895 11.396C179.075 11.564 179.165 11.774 179.165 12.026C179.165 12.29 179.075 12.512 178.895 12.692C178.727 12.872 178.505 12.962 178.229 12.962ZM186.267 24.59C185.355 24.59 184.533 24.386 183.801 23.978C183.081 23.558 182.511 22.988 182.091 22.268C181.671 21.536 181.461 20.702 181.461 19.766C181.461 18.818 181.671 17.984 182.091 17.264C182.511 16.544 183.081 15.98 183.801 15.572C184.521 15.164 185.343 14.96 186.267 14.96C187.203 14.96 188.031 15.164 188.751 15.572C189.483 15.98 190.053 16.544 190.461 17.264C190.881 17.984 191.091 18.818 191.091 19.766C191.091 20.702 190.881 21.536 190.461 22.268C190.053 22.988 189.483 23.558 188.751 23.978C188.019 24.386 187.191 24.59 186.267 24.59ZM186.267 23.456C186.951 23.456 187.557 23.306 188.085 23.006C188.613 22.694 189.027 22.262 189.327 21.71C189.639 21.146 189.795 20.498 189.795 19.766C189.795 19.022 189.639 18.374 189.327 17.822C189.027 17.27 188.613 16.844 188.085 16.544C187.557 16.232 186.957 16.076 186.285 16.076C185.613 16.076 185.013 16.232 184.485 16.544C183.957 16.844 183.537 17.27 183.225 17.822C182.913 18.374 182.757 19.022 182.757 19.766C182.757 20.498 182.913 21.146 183.225 21.71C183.537 22.262 183.957 22.694 184.485 23.006C185.013 23.306 185.607 23.456 186.267 23.456ZM198.524 14.96C199.292 14.96 199.964 15.11 200.54 15.41C201.128 15.698 201.584 16.142 201.908 16.742C202.244 17.342 202.412 18.098 202.412 19.01V24.5H201.134V19.136C201.134 18.14 200.882 17.39 200.378 16.886C199.886 16.37 199.19 16.112 198.29 16.112C197.618 16.112 197.03 16.25 196.526 16.526C196.034 16.79 195.65 17.18 195.374 17.696C195.11 18.2 194.978 18.812 194.978 19.532V24.5H193.7V15.05H194.924V17.642L194.726 17.156C195.026 16.472 195.506 15.938 196.166 15.554C196.826 15.158 197.612 14.96 198.524 14.96ZM208.402 24.59C207.622 24.59 206.884 24.482 206.188 24.266C205.492 24.038 204.946 23.756 204.55 23.42L205.126 22.412C205.51 22.7 206.002 22.952 206.602 23.168C207.202 23.372 207.832 23.474 208.492 23.474C209.392 23.474 210.04 23.336 210.436 23.06C210.832 22.772 211.03 22.394 211.03 21.926C211.03 21.578 210.916 21.308 210.688 21.116C210.472 20.912 210.184 20.762 209.824 20.666C209.464 20.558 209.062 20.468 208.618 20.396C208.174 20.324 207.73 20.24 207.286 20.144C206.854 20.048 206.458 19.91 206.098 19.73C205.738 19.538 205.444 19.28 205.216 18.956C205 18.632 204.892 18.2 204.892 17.66C204.892 17.144 205.036 16.682 205.324 16.274C205.612 15.866 206.032 15.548 206.584 15.32C207.148 15.08 207.832 14.96 208.636 14.96C209.248 14.96 209.86 15.044 210.472 15.212C211.084 15.368 211.588 15.578 211.984 15.842L211.426 16.868C211.006 16.58 210.556 16.376 210.076 16.256C209.596 16.124 209.116 16.058 208.636 16.058C207.784 16.058 207.154 16.208 206.746 16.508C206.35 16.796 206.152 17.168 206.152 17.624C206.152 17.984 206.26 18.266 206.476 18.47C206.704 18.674 206.998 18.836 207.358 18.956C207.73 19.064 208.132 19.154 208.564 19.226C209.008 19.298 209.446 19.388 209.878 19.496C210.322 19.592 210.724 19.73 211.084 19.91C211.456 20.078 211.75 20.324 211.966 20.648C212.194 20.96 212.308 21.374 212.308 21.89C212.308 22.442 212.152 22.922 211.84 23.33C211.54 23.726 211.096 24.038 210.508 24.266C209.932 24.482 209.23 24.59 208.402 24.59Z" fill="white"/>
</svg>
