<svg width="137" height="36" viewBox="0 0 137 36" fill="none" xmlns="http://www.w3.org/2000/svg">
<rect x="1" y="0.5" width="135" height="35" rx="17.5" fill="#1B2B3A"/>
<rect x="1" y="0.5" width="135" height="35" rx="17.5" stroke="#F9F9F9"/>
<path d="M15.0227 24V11.4H20.4587C21.8627 11.4 22.9487 11.682 23.7167 12.246C24.4967 12.81 24.8867 13.608 24.8867 14.64C24.8867 15.324 24.7247 15.9 24.4007 16.368C24.0887 16.836 23.6567 17.19 23.1047 17.43C22.5647 17.67 21.9707 17.79 21.3227 17.79L21.6287 17.358C22.4327 17.358 23.1227 17.484 23.6987 17.736C24.2867 17.976 24.7427 18.342 25.0667 18.834C25.3907 19.314 25.5527 19.914 25.5527 20.634C25.5527 21.702 25.1567 22.53 24.3647 23.118C23.5847 23.706 22.4027 24 20.8187 24H15.0227ZM16.3547 22.902H20.8007C21.9047 22.902 22.7507 22.716 23.3387 22.344C23.9267 21.96 24.2207 21.354 24.2207 20.526C24.2207 19.71 23.9267 19.116 23.3387 18.744C22.7507 18.36 21.9047 18.168 20.8007 18.168H16.2107V17.07H20.3687C21.3767 17.07 22.1567 16.878 22.7087 16.494C23.2727 16.11 23.5547 15.54 23.5547 14.784C23.5547 14.016 23.2727 13.446 22.7087 13.074C22.1567 12.69 21.3767 12.498 20.3687 12.498H16.3547V22.902ZM28.323 24V10.644H29.601V24H28.323ZM37.009 24.09C36.097 24.09 35.275 23.886 34.543 23.478C33.823 23.058 33.253 22.488 32.833 21.768C32.413 21.036 32.203 20.202 32.203 19.266C32.203 18.318 32.413 17.484 32.833 16.764C33.253 16.044 33.823 15.48 34.543 15.072C35.263 14.664 36.085 14.46 37.009 14.46C37.945 14.46 38.773 14.664 39.493 15.072C40.225 15.48 40.795 16.044 41.203 16.764C41.623 17.484 41.833 18.318 41.833 19.266C41.833 20.202 41.623 21.036 41.203 21.768C40.795 22.488 40.225 23.058 39.493 23.478C38.761 23.886 37.933 24.09 37.009 24.09ZM37.009 22.956C37.693 22.956 38.299 22.806 38.827 22.506C39.355 22.194 39.769 21.762 40.069 21.21C40.381 20.646 40.537 19.998 40.537 19.266C40.537 18.522 40.381 17.874 40.069 17.322C39.769 16.77 39.355 16.344 38.827 16.044C38.299 15.732 37.699 15.576 37.027 15.576C36.355 15.576 35.755 15.732 35.227 16.044C34.699 16.344 34.279 16.77 33.967 17.322C33.655 17.874 33.499 18.522 33.499 19.266C33.499 19.998 33.655 20.646 33.967 21.21C34.279 21.762 34.699 22.194 35.227 22.506C35.755 22.806 36.349 22.956 37.009 22.956ZM48.4742 27.582C47.6102 27.582 46.7822 27.456 45.9902 27.204C45.1982 26.952 44.5562 26.592 44.0642 26.124L44.7122 25.152C45.1562 25.548 45.7022 25.86 46.3502 26.088C47.0102 26.328 47.7062 26.448 48.4382 26.448C49.6382 26.448 50.5202 26.166 51.0842 25.602C51.6482 25.05 51.9302 24.186 51.9302 23.01V20.652L52.1102 19.032L51.9842 17.412V14.55H53.2082V22.848C53.2082 24.48 52.8062 25.674 52.0022 26.43C51.2102 27.198 50.0342 27.582 48.4742 27.582ZM48.2402 23.64C47.3402 23.64 46.5302 23.448 45.8102 23.064C45.0902 22.668 44.5202 22.122 44.1002 21.426C43.6922 20.73 43.4882 19.932 43.4882 19.032C43.4882 18.132 43.6922 17.34 44.1002 16.656C44.5202 15.96 45.0902 15.42 45.8102 15.036C46.5302 14.652 47.3402 14.46 48.2402 14.46C49.0802 14.46 49.8362 14.634 50.5082 14.982C51.1802 15.33 51.7142 15.846 52.1102 16.53C52.5062 17.214 52.7042 18.048 52.7042 19.032C52.7042 20.016 52.5062 20.85 52.1102 21.534C51.7142 22.218 51.1802 22.74 50.5082 23.1C49.8362 23.46 49.0802 23.64 48.2402 23.64ZM48.3662 22.506C49.0622 22.506 49.6802 22.362 50.2202 22.074C50.7602 21.774 51.1862 21.366 51.4982 20.85C51.8102 20.322 51.9662 19.716 51.9662 19.032C51.9662 18.348 51.8102 17.748 51.4982 17.232C51.1862 16.716 50.7602 16.314 50.2202 16.026C49.6802 15.726 49.0622 15.576 48.3662 15.576C47.6822 15.576 47.0642 15.726 46.5122 16.026C45.9722 16.314 45.5462 16.716 45.2342 17.232C44.9342 17.748 44.7842 18.348 44.7842 19.032C44.7842 19.716 44.9342 20.322 45.2342 20.85C45.5462 21.366 45.9722 21.774 46.5122 22.074C47.0642 22.362 47.6822 22.506 48.3662 22.506ZM54.5324 25.8L60.4724 8.844H61.6424L55.7024 25.8H54.5324ZM63.0637 24V11.4H64.3957V24H63.0637ZM73.0494 14.46C73.8174 14.46 74.4894 14.61 75.0654 14.91C75.6534 15.198 76.1094 15.642 76.4334 16.242C76.7694 16.842 76.9374 17.598 76.9374 18.51V24H75.6594V18.636C75.6594 17.64 75.4074 16.89 74.9034 16.386C74.4114 15.87 73.7154 15.612 72.8154 15.612C72.1434 15.612 71.5554 15.75 71.0514 16.026C70.5594 16.29 70.1754 16.68 69.8994 17.196C69.6354 17.7 69.5034 18.312 69.5034 19.032V24H68.2254V14.55H69.4494V17.142L69.2514 16.656C69.5514 15.972 70.0314 15.438 70.6914 15.054C71.3514 14.658 72.1374 14.46 73.0494 14.46ZM82.9274 24.09C82.1474 24.09 81.4094 23.982 80.7134 23.766C80.0174 23.538 79.4714 23.256 79.0754 22.92L79.6514 21.912C80.0354 22.2 80.5274 22.452 81.1274 22.668C81.7274 22.872 82.3574 22.974 83.0174 22.974C83.9174 22.974 84.5654 22.836 84.9614 22.56C85.3574 22.272 85.5554 21.894 85.5554 21.426C85.5554 21.078 85.4414 20.808 85.2134 20.616C84.9974 20.412 84.7094 20.262 84.3494 20.166C83.9894 20.058 83.5874 19.968 83.1434 19.896C82.6994 19.824 82.2554 19.74 81.8114 19.644C81.3794 19.548 80.9834 19.41 80.6234 19.23C80.2634 19.038 79.9694 18.78 79.7414 18.456C79.5254 18.132 79.4174 17.7 79.4174 17.16C79.4174 16.644 79.5614 16.182 79.8494 15.774C80.1374 15.366 80.5574 15.048 81.1094 14.82C81.6734 14.58 82.3574 14.46 83.1614 14.46C83.7734 14.46 84.3854 14.544 84.9974 14.712C85.6094 14.868 86.1134 15.078 86.5094 15.342L85.9514 16.368C85.5314 16.08 85.0814 15.876 84.6014 15.756C84.1214 15.624 83.6414 15.558 83.1614 15.558C82.3094 15.558 81.6794 15.708 81.2714 16.008C80.8754 16.296 80.6774 16.668 80.6774 17.124C80.6774 17.484 80.7854 17.766 81.0014 17.97C81.2294 18.174 81.5234 18.336 81.8834 18.456C82.2554 18.564 82.6574 18.654 83.0894 18.726C83.5334 18.798 83.9714 18.888 84.4034 18.996C84.8474 19.092 85.2494 19.23 85.6094 19.41C85.9814 19.578 86.2754 19.824 86.4914 20.148C86.7194 20.46 86.8334 20.874 86.8334 21.39C86.8334 21.942 86.6774 22.422 86.3654 22.83C86.0654 23.226 85.6214 23.538 85.0334 23.766C84.4574 23.982 83.7554 24.09 82.9274 24.09ZM89.1785 24V14.55H90.4565V24H89.1785ZM89.8265 12.462C89.5625 12.462 89.3405 12.372 89.1605 12.192C88.9805 12.012 88.8905 11.796 88.8905 11.544C88.8905 11.292 88.9805 11.082 89.1605 10.914C89.3405 10.734 89.5625 10.644 89.8265 10.644C90.0905 10.644 90.3125 10.728 90.4925 10.896C90.6725 11.064 90.7625 11.274 90.7625 11.526C90.7625 11.79 90.6725 12.012 90.4925 12.192C90.3245 12.372 90.1025 12.462 89.8265 12.462ZM98.0445 27.582C97.1805 27.582 96.3525 27.456 95.5605 27.204C94.7685 26.952 94.1265 26.592 93.6345 26.124L94.2825 25.152C94.7265 25.548 95.2725 25.86 95.9205 26.088C96.5805 26.328 97.2765 26.448 98.0085 26.448C99.2085 26.448 100.09 26.166 100.654 25.602C101.218 25.05 101.5 24.186 101.5 23.01V20.652L101.68 19.032L101.554 17.412V14.55H102.778V22.848C102.778 24.48 102.376 25.674 101.572 26.43C100.78 27.198 99.6045 27.582 98.0445 27.582ZM97.8105 23.64C96.9105 23.64 96.1005 23.448 95.3805 23.064C94.6605 22.668 94.0905 22.122 93.6705 21.426C93.2625 20.73 93.0585 19.932 93.0585 19.032C93.0585 18.132 93.2625 17.34 93.6705 16.656C94.0905 15.96 94.6605 15.42 95.3805 15.036C96.1005 14.652 96.9105 14.46 97.8105 14.46C98.6505 14.46 99.4065 14.634 100.078 14.982C100.75 15.33 101.284 15.846 101.68 16.53C102.076 17.214 102.274 18.048 102.274 19.032C102.274 20.016 102.076 20.85 101.68 21.534C101.284 22.218 100.75 22.74 100.078 23.1C99.4065 23.46 98.6505 23.64 97.8105 23.64ZM97.9365 22.506C98.6325 22.506 99.2505 22.362 99.7905 22.074C100.33 21.774 100.756 21.366 101.068 20.85C101.38 20.322 101.536 19.716 101.536 19.032C101.536 18.348 101.38 17.748 101.068 17.232C100.756 16.716 100.33 16.314 99.7905 16.026C99.2505 15.726 98.6325 15.576 97.9365 15.576C97.2525 15.576 96.6345 15.726 96.0825 16.026C95.5425 16.314 95.1165 16.716 94.8045 17.232C94.5045 17.748 94.3545 18.348 94.3545 19.032C94.3545 19.716 94.5045 20.322 94.8045 20.85C95.1165 21.366 95.5425 21.774 96.0825 22.074C96.6345 22.362 97.2525 22.506 97.9365 22.506ZM111.159 14.46C111.927 14.46 112.599 14.61 113.175 14.91C113.763 15.198 114.219 15.642 114.543 16.242C114.879 16.842 115.047 17.598 115.047 18.51V24H113.769V18.636C113.769 17.64 113.517 16.89 113.013 16.386C112.521 15.87 111.825 15.612 110.925 15.612C110.253 15.612 109.665 15.75 109.161 16.026C108.669 16.29 108.285 16.68 108.009 17.196C107.745 17.7 107.613 18.312 107.613 19.032V24H106.335V10.644H107.613V17.142L107.361 16.656C107.661 15.972 108.141 15.438 108.801 15.054C109.461 14.658 110.247 14.46 111.159 14.46ZM121.487 24.09C120.599 24.09 119.915 23.85 119.435 23.37C118.955 22.89 118.715 22.212 118.715 21.336V12.462H119.993V21.264C119.993 21.816 120.131 22.242 120.407 22.542C120.695 22.842 121.103 22.992 121.631 22.992C122.195 22.992 122.663 22.83 123.035 22.506L123.485 23.424C123.233 23.652 122.927 23.82 122.567 23.928C122.219 24.036 121.859 24.09 121.487 24.09ZM117.023 15.612V14.55H122.873V15.612H117.023Z" fill="white"/>
</svg>
