<svg width="216" height="37" viewBox="0 0 216 37" fill="none" xmlns="http://www.w3.org/2000/svg">
<rect x="0.5" y="1" width="215" height="35" rx="17.5" fill="#1B2B3A"/>
<rect x="0.5" y="1" width="215" height="35" rx="17.5" stroke="#F9F9F9"/>
<path d="M17.0869 24.5L12.8389 11.9H14.2069L18.1849 23.762H17.5009L21.6049 11.9H22.8289L26.8789 23.762H26.2309L30.2449 11.9H31.5229L27.2749 24.5H25.8709L22.0009 13.25H22.3609L18.4729 24.5H17.0869ZM38.7828 14.96C39.5508 14.96 40.2228 15.11 40.7988 15.41C41.3868 15.698 41.8428 16.142 42.1668 16.742C42.5028 17.342 42.6708 18.098 42.6708 19.01V24.5H41.3928V19.136C41.3928 18.14 41.1408 17.39 40.6368 16.886C40.1448 16.37 39.4488 16.112 38.5488 16.112C37.8768 16.112 37.2888 16.25 36.7848 16.526C36.2928 16.79 35.9088 17.18 35.6328 17.696C35.3688 18.2 35.2368 18.812 35.2368 19.532V24.5H33.9588V11.144H35.2368V17.642L34.9848 17.156C35.2848 16.472 35.7648 15.938 36.4248 15.554C37.0848 15.158 37.8708 14.96 38.7828 14.96ZM52.0448 24.5V22.412L51.9908 22.07V18.578C51.9908 17.774 51.7628 17.156 51.3068 16.724C50.8628 16.292 50.1968 16.076 49.3088 16.076C48.6968 16.076 48.1148 16.178 47.5628 16.382C47.0108 16.586 46.5428 16.856 46.1588 17.192L45.5828 16.238C46.0628 15.83 46.6388 15.518 47.3108 15.302C47.9828 15.074 48.6908 14.96 49.4348 14.96C50.6588 14.96 51.6008 15.266 52.2608 15.878C52.9328 16.478 53.2688 17.396 53.2688 18.632V24.5H52.0448ZM48.7868 24.59C48.0788 24.59 47.4608 24.476 46.9328 24.248C46.4168 24.008 46.0208 23.684 45.7448 23.276C45.4688 22.856 45.3308 22.376 45.3308 21.836C45.3308 21.344 45.4448 20.9 45.6728 20.504C45.9128 20.096 46.2968 19.772 46.8248 19.532C47.3648 19.28 48.0848 19.154 48.9848 19.154H52.2428V20.108H49.0208C48.1088 20.108 47.4728 20.27 47.1128 20.594C46.7648 20.918 46.5908 21.32 46.5908 21.8C46.5908 22.34 46.8008 22.772 47.2208 23.096C47.6408 23.42 48.2288 23.582 48.9848 23.582C49.7048 23.582 50.3228 23.42 50.8388 23.096C51.3668 22.76 51.7508 22.28 51.9908 21.656L52.2788 22.538C52.0388 23.162 51.6188 23.66 51.0188 24.032C50.4308 24.404 49.6868 24.59 48.7868 24.59ZM59.728 24.59C58.84 24.59 58.156 24.35 57.676 23.87C57.196 23.39 56.956 22.712 56.956 21.836V12.962H58.234V21.764C58.234 22.316 58.372 22.742 58.648 23.042C58.936 23.342 59.344 23.492 59.872 23.492C60.436 23.492 60.904 23.33 61.276 23.006L61.726 23.924C61.474 24.152 61.168 24.32 60.808 24.428C60.46 24.536 60.1 24.59 59.728 24.59ZM55.264 16.112V15.05H61.114V16.112H55.264ZM74.5414 24.608C73.5934 24.608 72.7114 24.452 71.8954 24.14C71.0914 23.816 70.3894 23.366 69.7894 22.79C69.2014 22.202 68.7394 21.524 68.4034 20.756C68.0794 19.976 67.9174 19.124 67.9174 18.2C67.9174 17.276 68.0794 16.43 68.4034 15.662C68.7394 14.882 69.2014 14.204 69.7894 13.628C70.3894 13.04 71.0914 12.59 71.8954 12.278C72.6994 11.954 73.5814 11.792 74.5414 11.792C75.4894 11.792 76.3654 11.954 77.1694 12.278C77.9734 12.59 78.6694 13.034 79.2574 13.61C79.8574 14.186 80.3194 14.864 80.6434 15.644C80.9794 16.424 81.1474 17.276 81.1474 18.2C81.1474 19.124 80.9794 19.976 80.6434 20.756C80.3194 21.536 79.8574 22.214 79.2574 22.79C78.6694 23.366 77.9734 23.816 77.1694 24.14C76.3654 24.452 75.4894 24.608 74.5414 24.608ZM74.5414 23.42C75.2974 23.42 75.9934 23.294 76.6294 23.042C77.2774 22.778 77.8354 22.412 78.3034 21.944C78.7834 21.464 79.1554 20.912 79.4194 20.288C79.6834 19.652 79.8154 18.956 79.8154 18.2C79.8154 17.444 79.6834 16.754 79.4194 16.13C79.1554 15.494 78.7834 14.942 78.3034 14.474C77.8354 13.994 77.2774 13.628 76.6294 13.376C75.9934 13.112 75.2974 12.98 74.5414 12.98C73.7854 12.98 73.0834 13.112 72.4354 13.376C71.7874 13.628 71.2234 13.994 70.7434 14.474C70.2754 14.942 69.9034 15.494 69.6274 16.13C69.3634 16.754 69.2314 17.444 69.2314 18.2C69.2314 18.944 69.3634 19.634 69.6274 20.27C69.9034 20.906 70.2754 21.464 70.7434 21.944C71.2234 22.412 71.7874 22.778 72.4354 23.042C73.0834 23.294 73.7854 23.42 74.5414 23.42ZM87.7691 24.59C86.9651 24.59 86.2631 24.44 85.6631 24.14C85.0631 23.84 84.5951 23.39 84.2591 22.79C83.9351 22.19 83.7731 21.44 83.7731 20.54V15.05H85.0511V20.396C85.0511 21.404 85.2971 22.166 85.7891 22.682C86.2931 23.186 86.9951 23.438 87.8951 23.438C88.5551 23.438 89.1251 23.306 89.6051 23.042C90.0971 22.766 90.4691 22.37 90.7211 21.854C90.9851 21.338 91.1171 20.72 91.1171 20V15.05H92.3951V24.5H91.1711V21.908L91.3691 22.376C91.0691 23.072 90.6011 23.618 89.9651 24.014C89.3411 24.398 88.6091 24.59 87.7691 24.59ZM95.9568 24.5V15.05H97.1808V17.624L97.0548 17.174C97.3188 16.454 97.7628 15.908 98.3868 15.536C99.0108 15.152 99.7848 14.96 100.709 14.96V16.202C100.661 16.202 100.613 16.202 100.565 16.202C100.517 16.19 100.469 16.184 100.421 16.184C99.4248 16.184 98.6448 16.49 98.0808 17.102C97.5168 17.702 97.2348 18.56 97.2348 19.676V24.5H95.9568ZM113.634 24.608C112.686 24.608 111.81 24.452 111.006 24.14C110.202 23.816 109.506 23.366 108.918 22.79C108.33 22.214 107.868 21.536 107.532 20.756C107.208 19.976 107.046 19.124 107.046 18.2C107.046 17.276 107.208 16.424 107.532 15.644C107.868 14.864 108.33 14.186 108.918 13.61C109.518 13.034 110.22 12.59 111.024 12.278C111.828 11.954 112.704 11.792 113.652 11.792C114.564 11.792 115.422 11.948 116.226 12.26C117.03 12.56 117.708 13.016 118.26 13.628L117.414 14.474C116.898 13.946 116.328 13.568 115.704 13.34C115.08 13.1 114.408 12.98 113.688 12.98C112.932 12.98 112.23 13.112 111.582 13.376C110.934 13.628 110.37 13.994 109.89 14.474C109.41 14.942 109.032 15.494 108.756 16.13C108.492 16.754 108.36 17.444 108.36 18.2C108.36 18.956 108.492 19.652 108.756 20.288C109.032 20.912 109.41 21.464 109.89 21.944C110.37 22.412 110.934 22.778 111.582 23.042C112.23 23.294 112.932 23.42 113.688 23.42C114.408 23.42 115.08 23.3 115.704 23.06C116.328 22.82 116.898 22.436 117.414 21.908L118.26 22.754C117.708 23.366 117.03 23.828 116.226 24.14C115.422 24.452 114.558 24.608 113.634 24.608ZM120.83 24.5V11.144H122.108V24.5H120.83ZM125.664 24.5V15.05H126.942V24.5H125.664ZM126.312 12.962C126.048 12.962 125.826 12.872 125.646 12.692C125.466 12.512 125.376 12.296 125.376 12.044C125.376 11.792 125.466 11.582 125.646 11.414C125.826 11.234 126.048 11.144 126.312 11.144C126.576 11.144 126.798 11.228 126.978 11.396C127.158 11.564 127.248 11.774 127.248 12.026C127.248 12.29 127.158 12.512 126.978 12.692C126.81 12.872 126.588 12.962 126.312 12.962ZM134.512 24.59C133.528 24.59 132.664 24.386 131.92 23.978C131.176 23.558 130.594 22.988 130.174 22.268C129.754 21.536 129.544 20.702 129.544 19.766C129.544 18.83 129.742 18.002 130.138 17.282C130.546 16.562 131.098 15.998 131.794 15.59C132.502 15.17 133.294 14.96 134.17 14.96C135.058 14.96 135.844 15.164 136.528 15.572C137.224 15.968 137.77 16.532 138.166 17.264C138.562 17.984 138.76 18.818 138.76 19.766C138.76 19.826 138.754 19.892 138.742 19.964C138.742 20.024 138.742 20.09 138.742 20.162H130.516V19.208H138.058L137.554 19.586C137.554 18.902 137.404 18.296 137.104 17.768C136.816 17.228 136.42 16.808 135.916 16.508C135.412 16.208 134.83 16.058 134.17 16.058C133.522 16.058 132.94 16.208 132.424 16.508C131.908 16.808 131.506 17.228 131.218 17.768C130.93 18.308 130.786 18.926 130.786 19.622V19.82C130.786 20.54 130.942 21.176 131.254 21.728C131.578 22.268 132.022 22.694 132.586 23.006C133.162 23.306 133.816 23.456 134.548 23.456C135.124 23.456 135.658 23.354 136.15 23.15C136.654 22.946 137.086 22.634 137.446 22.214L138.166 23.042C137.746 23.546 137.218 23.93 136.582 24.194C135.958 24.458 135.268 24.59 134.512 24.59ZM146.185 14.96C146.953 14.96 147.625 15.11 148.201 15.41C148.789 15.698 149.245 16.142 149.569 16.742C149.905 17.342 150.073 18.098 150.073 19.01V24.5H148.795V19.136C148.795 18.14 148.543 17.39 148.039 16.886C147.547 16.37 146.851 16.112 145.951 16.112C145.279 16.112 144.691 16.25 144.187 16.526C143.695 16.79 143.311 17.18 143.035 17.696C142.771 18.2 142.639 18.812 142.639 19.532V24.5H141.361V15.05H142.585V17.642L142.387 17.156C142.687 16.472 143.167 15.938 143.827 15.554C144.487 15.158 145.273 14.96 146.185 14.96ZM156.513 24.59C155.625 24.59 154.941 24.35 154.461 23.87C153.981 23.39 153.741 22.712 153.741 21.836V12.962H155.019V21.764C155.019 22.316 155.157 22.742 155.433 23.042C155.721 23.342 156.129 23.492 156.657 23.492C157.221 23.492 157.689 23.33 158.061 23.006L158.511 23.924C158.259 24.152 157.953 24.32 157.593 24.428C157.245 24.536 156.885 24.59 156.513 24.59ZM152.049 16.112V15.05H157.899V16.112H152.049ZM163.376 24.59C162.596 24.59 161.858 24.482 161.162 24.266C160.466 24.038 159.92 23.756 159.524 23.42L160.1 22.412C160.484 22.7 160.976 22.952 161.576 23.168C162.176 23.372 162.806 23.474 163.466 23.474C164.366 23.474 165.014 23.336 165.41 23.06C165.806 22.772 166.004 22.394 166.004 21.926C166.004 21.578 165.89 21.308 165.662 21.116C165.446 20.912 165.158 20.762 164.798 20.666C164.438 20.558 164.036 20.468 163.592 20.396C163.148 20.324 162.704 20.24 162.26 20.144C161.828 20.048 161.432 19.91 161.072 19.73C160.712 19.538 160.418 19.28 160.19 18.956C159.974 18.632 159.866 18.2 159.866 17.66C159.866 17.144 160.01 16.682 160.298 16.274C160.586 15.866 161.006 15.548 161.558 15.32C162.122 15.08 162.806 14.96 163.61 14.96C164.222 14.96 164.834 15.044 165.446 15.212C166.058 15.368 166.562 15.578 166.958 15.842L166.4 16.868C165.98 16.58 165.53 16.376 165.05 16.256C164.57 16.124 164.09 16.058 163.61 16.058C162.758 16.058 162.128 16.208 161.72 16.508C161.324 16.796 161.126 17.168 161.126 17.624C161.126 17.984 161.234 18.266 161.45 18.47C161.678 18.674 161.972 18.836 162.332 18.956C162.704 19.064 163.106 19.154 163.538 19.226C163.982 19.298 164.42 19.388 164.852 19.496C165.296 19.592 165.698 19.73 166.058 19.91C166.43 20.078 166.724 20.324 166.94 20.648C167.168 20.96 167.282 21.374 167.282 21.89C167.282 22.442 167.126 22.922 166.814 23.33C166.514 23.726 166.07 24.038 165.482 24.266C164.906 24.482 164.204 24.59 163.376 24.59ZM178.082 24.608C177.146 24.608 176.246 24.458 175.382 24.158C174.53 23.846 173.87 23.45 173.402 22.97L173.924 21.944C174.368 22.376 174.962 22.742 175.706 23.042C176.462 23.33 177.254 23.474 178.082 23.474C178.874 23.474 179.516 23.378 180.008 23.186C180.512 22.982 180.878 22.712 181.106 22.376C181.346 22.04 181.466 21.668 181.466 21.26C181.466 20.768 181.322 20.372 181.034 20.072C180.758 19.772 180.392 19.538 179.936 19.37C179.48 19.19 178.976 19.034 178.424 18.902C177.872 18.77 177.32 18.632 176.768 18.488C176.216 18.332 175.706 18.128 175.238 17.876C174.782 17.624 174.41 17.294 174.122 16.886C173.846 16.466 173.708 15.92 173.708 15.248C173.708 14.624 173.87 14.054 174.194 13.538C174.53 13.01 175.04 12.59 175.724 12.278C176.408 11.954 177.284 11.792 178.352 11.792C179.06 11.792 179.762 11.894 180.458 12.098C181.154 12.29 181.754 12.56 182.258 12.908L181.808 13.97C181.268 13.61 180.692 13.346 180.08 13.178C179.48 13.01 178.898 12.926 178.334 12.926C177.578 12.926 176.954 13.028 176.462 13.232C175.97 13.436 175.604 13.712 175.364 14.06C175.136 14.396 175.022 14.78 175.022 15.212C175.022 15.704 175.16 16.1 175.436 16.4C175.724 16.7 176.096 16.934 176.552 17.102C177.02 17.27 177.53 17.42 178.082 17.552C178.634 17.684 179.18 17.828 179.72 17.984C180.272 18.14 180.776 18.344 181.232 18.596C181.7 18.836 182.072 19.16 182.348 19.568C182.636 19.976 182.78 20.51 182.78 21.17C182.78 21.782 182.612 22.352 182.276 22.88C181.94 23.396 181.424 23.816 180.728 24.14C180.044 24.452 179.162 24.608 178.082 24.608ZM191.334 24.5V22.412L191.28 22.07V18.578C191.28 17.774 191.052 17.156 190.596 16.724C190.152 16.292 189.486 16.076 188.598 16.076C187.986 16.076 187.404 16.178 186.852 16.382C186.3 16.586 185.832 16.856 185.448 17.192L184.872 16.238C185.352 15.83 185.928 15.518 186.6 15.302C187.272 15.074 187.98 14.96 188.724 14.96C189.948 14.96 190.89 15.266 191.55 15.878C192.222 16.478 192.558 17.396 192.558 18.632V24.5H191.334ZM188.076 24.59C187.368 24.59 186.75 24.476 186.222 24.248C185.706 24.008 185.31 23.684 185.034 23.276C184.758 22.856 184.62 22.376 184.62 21.836C184.62 21.344 184.734 20.9 184.962 20.504C185.202 20.096 185.586 19.772 186.114 19.532C186.654 19.28 187.374 19.154 188.274 19.154H191.532V20.108H188.31C187.398 20.108 186.762 20.27 186.402 20.594C186.054 20.918 185.88 21.32 185.88 21.8C185.88 22.34 186.09 22.772 186.51 23.096C186.93 23.42 187.518 23.582 188.274 23.582C188.994 23.582 189.612 23.42 190.128 23.096C190.656 22.76 191.04 22.28 191.28 21.656L191.568 22.538C191.328 23.162 190.908 23.66 190.308 24.032C189.72 24.404 188.976 24.59 188.076 24.59ZM195.925 28.082C195.481 28.082 195.055 28.01 194.647 27.866C194.251 27.722 193.909 27.506 193.621 27.218L194.215 26.264C194.455 26.492 194.713 26.666 194.989 26.786C195.277 26.918 195.595 26.984 195.943 26.984C196.363 26.984 196.723 26.864 197.023 26.624C197.335 26.396 197.629 25.988 197.905 25.4L198.517 24.014L198.661 23.816L202.549 15.05H203.809L199.075 25.634C198.811 26.246 198.517 26.732 198.193 27.092C197.881 27.452 197.539 27.704 197.167 27.848C196.795 28.004 196.381 28.082 195.925 28.082ZM198.445 24.77L194.089 15.05H195.421L199.273 23.726L198.445 24.77Z" fill="white"/>
</svg>
