<svg width="42" height="43" viewBox="0 0 42 43" fill="none" xmlns="http://www.w3.org/2000/svg">
<path d="M8.79998 30.4253L9.01675 33.7543C9.13343 35.5462 10.6792 36.903 12.4711 36.7863L31.9299 35.5192C33.7217 35.4026 35.0785 33.8568 34.9618 32.0649L34.0901 18.6773" stroke="#A3DB21" stroke-width="2.5" stroke-linecap="round" stroke-linejoin="round"/>
<path d="M8.43071 24.7498L7.53881 11.0524C7.42214 9.26057 8.77894 7.71476 10.5708 7.59809L30.0296 6.33103C31.8214 6.21436 33.3672 7.57116 33.4839 9.36299L33.7208 13.0018" stroke="#A3DB21" stroke-width="2.5" stroke-linecap="round" stroke-linejoin="round"/>
<path d="M10.4814 25.451C11.6618 26.487 11.7788 28.2838 10.7428 29.4641C9.70672 30.6445 7.90996 30.7615 6.7296 29.7254C5.54923 28.6894 5.43224 26.8926 6.46828 25.7123C7.50433 24.5319 9.30109 24.4149 10.4814 25.451" stroke="#A3DB21" stroke-width="2.5" stroke-linecap="round" stroke-linejoin="round"/>
<path fill-rule="evenodd" clip-rule="evenodd" d="M23.1057 26.3183C23.0037 24.7518 24.1906 23.3979 25.7586 23.2958C27.3267 23.1936 28.6791 24.3807 28.7812 25.9487C28.8833 27.5168 27.6963 28.8691 26.1282 28.9712C24.5671 29.0794 23.2153 27.9021 23.1072 26.341C23.1066 26.3329 23.1062 26.3264 23.1057 26.3183Z" stroke="#A3DB21" stroke-width="2.5" stroke-linecap="round" stroke-linejoin="round"/>
<path d="M18.5732 14.8228C19.7536 15.8588 19.8706 17.6556 18.8346 18.836C17.7985 20.0163 16.0018 20.1333 14.8214 19.0973C13.641 18.0612 13.524 16.2645 14.5601 15.0841C15.5961 13.9037 17.3929 13.7867 18.5732 14.8228" stroke="#A3DB21" stroke-width="2.5" stroke-linecap="round" stroke-linejoin="round"/>
<path d="M35.791 13.7016C36.9714 14.7377 37.0884 16.5344 36.0523 17.7148C35.0163 18.8952 33.2195 19.0122 32.0392 17.9761C30.8588 16.9401 30.7418 15.1433 31.7779 13.9629C32.8139 12.7826 34.6107 12.6656 35.791 13.7016" stroke="#A3DB21" stroke-width="2.5" stroke-linecap="round" stroke-linejoin="round"/>
<path d="M32.0761 18.004L27.7399 23.937" stroke="#A3DB21" stroke-width="2.5" stroke-linecap="round" stroke-linejoin="round"/>
<path d="M10.3926 25.376L14.9054 19.1546" stroke="#A3DB21" stroke-width="2.5" stroke-linecap="round" stroke-linejoin="round"/>
<path d="M23.8806 24.1884L18.7651 18.9033" stroke="#A3DB21" stroke-width="2.5" stroke-linecap="round" stroke-linejoin="round"/>
</svg>
