<svg width="60" height="60" viewBox="0 0 60 60" fill="none" xmlns="http://www.w3.org/2000/svg">
<g id="Group">
<path id="Vector" d="M30.0683 0H29.9317C13.4009 0 0 13.4009 0 29.9317V30.0683C0 46.5991 13.4009 60 29.9317 60H30.0683C46.5991 60 60 46.5991 60 30.0683V29.9317C60 13.4009 46.5991 0 30.0683 0Z" fill="url(#paint0_linear_16296_11555)"/>
<path id="Vector_2" d="M11.3643 28.9752C11.4484 28.9331 11.5325 28.8932 11.6145 28.8553C13.0397 28.1953 14.4838 27.5773 15.9259 26.9592C16.0036 26.9592 16.1339 26.8689 16.2075 26.8394C16.3189 26.7911 16.4303 26.7448 16.5418 26.6965L17.1829 26.4211C17.6117 26.2382 18.0384 26.0553 18.4673 25.8725C19.3228 25.5067 20.1784 25.1409 21.0339 24.7731C22.745 24.0415 24.4582 23.3079 26.1694 22.5764C27.8805 21.8449 29.5936 21.1112 31.3047 20.3797C33.0159 19.6482 34.729 18.9145 36.4401 18.183C38.1512 17.4515 39.8645 16.7179 41.5756 15.9863C41.9561 15.8224 42.3681 15.5785 42.7759 15.507C43.1185 15.4461 43.4527 15.3284 43.7975 15.2632C44.4512 15.1392 45.1722 15.0887 45.7987 15.3599C46.0152 15.4545 46.2149 15.5869 46.3809 15.753C47.1755 16.5392 47.0641 17.8299 46.896 18.9356C45.7251 26.6418 44.5542 34.3502 43.3813 42.0565C43.2215 43.1138 43.0029 44.2742 42.1683 44.9426C41.462 45.5081 40.4572 45.5712 39.5849 45.3315C38.7125 45.0898 37.9432 44.5832 37.1885 44.085C34.0585 42.0123 30.9264 39.9397 27.7964 37.867C27.0522 37.3751 26.224 36.7319 26.2324 35.8385C26.2366 35.3003 26.5582 34.8211 26.8861 34.3943C29.6063 30.846 33.5309 28.4076 36.4507 25.0232C36.8627 24.546 37.1864 23.6842 36.6209 23.4088C36.2846 23.2448 35.8978 23.4677 35.5909 23.68C31.7315 26.3602 27.8741 29.0424 24.0147 31.7226C22.7556 32.5971 21.4354 33.4968 19.9177 33.7112C18.5598 33.9046 17.1934 33.5262 15.8796 33.1394C14.7781 32.8157 13.6787 32.4835 12.5835 32.1409C12.0012 31.9601 11.4 31.7646 10.9502 31.3547C10.5003 30.9448 10.2418 30.2553 10.513 29.7088C10.6832 29.3661 11.0133 29.1496 11.3601 28.9731L11.3643 28.9752Z" fill="white"/>
</g>
<defs>
<linearGradient id="paint0_linear_16296_11555" x1="0" y1="30" x2="60" y2="30" gradientUnits="userSpaceOnUse">
<stop stop-color="#A3DB21"/>
<stop offset="1" stop-color="#00A6B2"/>
</linearGradient>
</defs>
</svg>
