<svg width="61" height="60" viewBox="0 0 61 60" fill="none" xmlns="http://www.w3.org/2000/svg">
<g id="Group">
<path id="Vector" d="M30.5683 0H30.4317C13.9009 0 0.5 13.4009 0.5 29.9317V30.0683C0.5 46.5991 13.9009 60 30.4317 60H30.5683C47.0991 60 60.5 46.5991 60.5 30.0683V29.9317C60.5 13.4009 47.0991 0 30.5683 0Z" fill="url(#paint0_linear_16296_11537)"/>
<g id="Group_2">
<path id="Vector_2" d="M36.3464 38.7748C28.6675 38.7748 22.4201 32.5252 22.418 24.8463C22.4201 22.8998 24.0051 21.3169 25.9474 21.3169C26.1471 21.3169 26.3447 21.3337 26.5339 21.3673C26.9501 21.4367 27.3453 21.5776 27.7089 21.7899C27.7615 21.8214 27.7972 21.8718 27.8056 21.9307L28.617 27.0451C28.6275 27.1061 28.6086 27.1649 28.5687 27.2091C28.1209 27.7051 27.5492 28.0625 26.9122 28.2412L26.6053 28.3274L26.7209 28.6238C27.7678 31.2892 29.8993 33.4186 32.5669 34.4697L32.8633 34.5874L32.9494 34.2805C33.1281 33.6436 33.4855 33.0718 33.9816 32.624C34.0173 32.5904 34.0657 32.5736 34.114 32.5736C34.1245 32.5736 34.135 32.5736 34.1476 32.5757L39.262 33.3871C39.323 33.3976 39.3734 33.4312 39.405 33.4838C39.6152 33.8475 39.756 34.2448 39.8275 34.661C39.8611 34.846 39.8758 35.0415 39.8758 35.2454C39.8758 37.1898 38.293 38.7727 36.3464 38.7748Z" fill="white"/>
<path id="Vector_3" d="M49.9638 28.3148C49.5496 23.6355 47.4055 19.2947 43.9266 16.0932C40.4266 12.8728 35.886 11.0986 31.1374 11.0986C20.7152 11.0986 12.2354 19.5785 12.2354 30.0006C12.2354 33.4985 13.2003 36.906 15.027 39.8742L10.9531 48.8921L23.9966 47.5027C26.2648 48.4318 28.6653 48.9026 31.1353 48.9026C31.7849 48.9026 32.4512 48.869 33.1197 48.7996C33.7083 48.7366 34.3032 48.6441 34.8876 48.5264C43.6154 46.7627 49.9869 39.0165 50.0373 30.1015V30.0006C50.0373 29.4331 50.0121 28.8655 49.9616 28.3148H49.9638ZM24.499 43.5444L17.2825 44.3138L19.4372 39.5399L19.0062 38.9618C18.9747 38.9198 18.9432 38.8778 18.9075 38.8294C17.0366 36.2459 16.0486 33.1937 16.0486 30.0027C16.0486 21.6827 22.8173 14.9139 31.1374 14.9139C38.932 14.9139 45.5388 20.9953 46.1758 28.7583C46.2094 29.1745 46.2283 29.5928 46.2283 30.0048C46.2283 30.1226 46.2262 30.2382 46.2241 30.3622C46.0644 37.3222 41.2022 43.2333 34.3999 44.7384C33.8806 44.854 33.3488 44.9423 32.8191 44.9991C32.2683 45.0621 31.7029 45.0937 31.1416 45.0937C29.1425 45.0937 27.2002 44.7069 25.3651 43.9417C25.1612 43.8597 24.9615 43.7714 24.7744 43.681L24.5011 43.5486L24.499 43.5444Z" fill="white"/>
</g>
</g>
<defs>
<linearGradient id="paint0_linear_16296_11537" x1="0.5" y1="30" x2="60.5" y2="30" gradientUnits="userSpaceOnUse">
<stop stop-color="#A3DB21"/>
<stop offset="1" stop-color="#00A6B2"/>
</linearGradient>
</defs>
</svg>
