<svg width="162" height="78" viewBox="0 0 162 78" fill="none" xmlns="http://www.w3.org/2000/svg">
<g id="1 57306">
<g id="Clip path group">
<mask id="mask0_16814_3058" style="mask-type:luminance" maskUnits="userSpaceOnUse" x="44" y="2" width="73" height="73">
<g id="6524c92e03">
<path id="Vector" d="M44.3281 2.32812H116.714V74.7135H44.3281V2.32812Z" fill="white"/>
</g>
</mask>
<g mask="url(#mask0_16814_3058)">
<g id="Group">
<path id="Vector_2" d="M117.005 38.6667C117.005 18.5781 100.719 2.32812 80.6667 2.32812C60.5781 2.32812 44.3281 18.6198 44.3281 38.6667C44.3281 58.7552 60.6198 75.0052 80.6667 75.0052C100.719 75.0052 117.005 58.7188 117.005 38.6667ZM51.8802 22.8333H69.5729L54.9844 58.9219H106.464C100.458 66.5677 91.1302 71.4635 80.6406 71.4635C62.5 71.4635 47.8073 56.7708 47.8073 38.6406C47.8333 32.9219 49.2917 27.5365 51.8802 22.8333ZM101.698 38.5417V34.0938H92.7917V22.8594H109.391C111.979 27.5469 113.438 32.9323 113.438 38.6823C113.438 44.4271 111.979 49.8125 109.391 54.5052H67.3802L81.9583 18.4115H54.8333C60.8385 10.7708 70.1667 5.875 80.6562 5.875C91.1198 5.875 100.458 10.7708 106.479 18.4115H83.026V51.2448H92.8177V38.526H101.698V38.5417Z" fill="white"/>
</g>
</g>
</g>
</g>
</svg>
